<svg width="360" height="350" viewBox="0 0 360 350" fill="none" xmlns="http://www.w3.org/2000/svg">
<path d="M179.556 347.108C274.856 347.108 352.112 269.853 352.112 174.554C352.112 79.2549 274.856 2 179.556 2C84.2559 2 7 79.2549 7 174.554C7 269.853 84.2559 347.108 179.556 347.108Z" fill="#E5F3FF"/>
<path d="M357.508 328.557H328.266V328.788H357.508V328.557Z" fill="#EBEBEB"/>
<path d="M192.967 74.9473L140.188 127.737V303.539H325.434V74.9473H192.967Z" fill="white"/>
<path d="M325.428 304.038H140.172C140.039 304.038 139.912 303.986 139.818 303.892C139.725 303.798 139.672 303.671 139.672 303.538V127.737C139.672 127.671 139.685 127.606 139.71 127.546C139.736 127.485 139.773 127.43 139.82 127.385L192.618 74.5857C192.713 74.4941 192.838 74.4412 192.97 74.4375H325.428C325.493 74.4375 325.558 74.4504 325.619 74.4756C325.68 74.5007 325.735 74.5376 325.781 74.584C325.828 74.6304 325.865 74.6856 325.89 74.7463C325.915 74.807 325.928 74.872 325.928 74.9377V303.538C325.928 303.604 325.915 303.669 325.89 303.73C325.865 303.79 325.828 303.846 325.781 303.892C325.735 303.938 325.68 303.975 325.619 304C325.558 304.026 325.493 304.038 325.428 304.038ZM140.682 303.047H324.927V75.4472H193.174L140.682 127.94V303.047Z" fill="#E0E0E0"/>
<path d="M140.188 127.737L195.57 134.879L192.967 74.9473L140.188 127.737Z" fill="#E6E6E6"/>
<path d="M140.188 127.737H192.967V74.9473L140.188 127.737Z" fill="white"/>
<path d="M192.963 128.225H140.166C140.067 128.225 139.97 128.197 139.888 128.142C139.805 128.088 139.741 128.01 139.702 127.919C139.664 127.829 139.654 127.729 139.674 127.633C139.694 127.537 139.743 127.45 139.814 127.382L192.611 74.5832C192.682 74.5145 192.772 74.4676 192.868 74.4479C192.965 74.4282 193.066 74.4366 193.158 74.472C193.248 74.5114 193.325 74.5761 193.379 74.6583C193.434 74.7405 193.463 74.8367 193.464 74.9352V127.734C193.461 127.865 193.407 127.99 193.314 128.082C193.22 128.174 193.094 128.225 192.963 128.225ZM141.388 127.234H192.472V76.1486L141.388 127.234Z" fill="#E0E0E0"/>
<path d="M243.522 203.757L275.015 172.263C275.719 171.559 276.277 170.724 276.658 169.804C277.039 168.885 277.235 167.9 277.235 166.904C277.235 165.909 277.039 164.924 276.658 164.004C276.277 163.085 275.719 162.249 275.015 161.546C274.312 160.842 273.476 160.284 272.557 159.903C271.638 159.522 270.652 159.326 269.657 159.326C268.662 159.326 267.676 159.522 266.757 159.903C265.838 160.284 265.002 160.842 264.298 161.546L232.805 193.04L201.312 161.546C199.89 160.125 197.963 159.326 195.953 159.326C193.943 159.326 192.016 160.125 190.595 161.546C189.173 162.967 188.375 164.895 188.375 166.904C188.375 168.914 189.173 170.842 190.595 172.263L222.088 203.757L190.595 235.251C189.173 236.672 188.375 238.6 188.375 240.61C188.375 242.62 189.173 244.547 190.595 245.968C192.016 247.39 193.943 248.188 195.953 248.188C197.963 248.188 199.89 247.39 201.312 245.968L232.805 214.474L264.298 245.968C265.72 247.39 267.647 248.188 269.657 248.188C271.667 248.188 273.594 247.39 275.015 245.968C276.437 244.547 277.235 242.62 277.235 240.61C277.235 238.6 276.437 236.672 275.015 235.251L243.522 203.757Z" fill="#FF373F"/>
<path d="M147.332 177.645C145.555 179.42 143.146 180.417 140.635 180.417C138.124 180.417 135.715 179.42 133.938 177.645L103.547 147.244L116.941 133.85L147.332 164.288C149.096 166.063 150.086 168.464 150.086 170.966C150.086 173.469 149.096 175.87 147.332 177.645Z" fill="#171717"/>
<path d="M103.547 147.303L116.941 133.908L118.179 135.146C119.463 136.43 120.184 138.171 120.184 139.986C120.184 141.802 119.463 143.543 118.179 144.827L114.465 148.541C113.182 149.824 111.441 150.546 109.625 150.546C107.81 150.546 106.069 149.824 104.785 148.541L103.547 147.303Z" fill="#333333"/>
<path d="M19.2388 49.546C10.048 58.7464 3.79102 70.465 1.25883 83.2208C-1.27336 95.9765 0.0329125 109.197 5.01252 121.21C9.99213 133.224 18.4215 143.491 29.2352 150.715C40.0489 157.938 52.7613 161.794 65.7657 161.794C78.7701 161.794 91.4826 157.938 102.296 150.715C113.11 143.491 121.539 133.224 126.519 121.21C131.499 109.197 132.805 95.9765 130.273 83.2208C127.74 70.465 121.483 58.7464 112.293 49.546C106.185 43.4319 98.932 38.5816 90.9486 35.2724C82.9652 31.9631 74.4078 30.2598 65.7657 30.2598C57.1237 30.2598 48.5663 31.9631 40.5829 35.2724C32.5995 38.5816 25.3466 43.4319 19.2388 49.546ZM108.495 138.804C100.045 147.254 89.2788 153.009 77.5583 155.34C65.8378 157.671 53.6892 156.475 42.6487 151.901C31.6083 147.328 22.1719 139.584 15.5328 129.647C8.89367 119.711 5.35007 108.029 5.35007 96.0785C5.35007 84.1282 8.89367 72.4462 15.5328 62.5098C22.1719 52.5734 31.6083 44.829 42.6487 40.2557C53.6892 35.6824 65.8378 34.4858 77.5583 36.8171C89.2788 39.1485 100.045 44.903 108.495 53.3531C114.106 58.9639 118.556 65.6248 121.593 72.9556C124.629 80.2865 126.192 88.1437 126.192 96.0785C126.192 104.013 124.629 111.871 121.593 119.201C118.556 126.532 114.106 133.193 108.495 138.804Z" fill="#333333"/>
<path d="M100.335 132.858C99.9001 132.857 99.4749 132.727 99.1133 132.485C98.7518 132.242 98.4701 131.898 98.3037 131.496C98.1372 131.094 98.0936 130.652 98.1782 130.225C98.2628 129.798 98.4719 129.405 98.7792 129.097C107.52 120.332 112.428 108.458 112.428 96.0793C112.428 83.7005 107.52 71.8268 98.7792 63.0614C98.5546 62.8619 98.3732 62.6185 98.2461 62.3463C98.119 62.0741 98.0489 61.7787 98.04 61.4784C98.0312 61.1781 98.0838 60.8792 98.1947 60.6C98.3056 60.3207 98.4723 60.0671 98.6848 59.8547C98.8972 59.6423 99.1508 59.4755 99.43 59.3646C99.7092 59.2537 100.008 59.2011 100.308 59.2099C100.609 59.2188 100.904 59.2889 101.176 59.416C101.449 59.5431 101.692 59.7245 101.891 59.9491C111.457 69.5381 116.83 82.5299 116.83 96.0746C116.83 109.619 111.457 122.611 101.891 132.2C101.688 132.407 101.446 132.571 101.179 132.684C100.912 132.797 100.625 132.856 100.335 132.858Z" fill="#333333"/>
<path d="M18.1921 109.59C17.6965 109.59 17.2153 109.423 16.8268 109.115C16.4383 108.808 16.1654 108.377 16.0524 107.895C14.4503 101.11 14.2482 94.0691 15.4586 87.2032C16.669 80.3373 19.2664 73.7903 23.0922 67.9621C23.414 67.4708 23.9178 67.1274 24.4928 67.0076C25.0678 66.8877 25.6668 67.0011 26.1581 67.323C26.6495 67.6448 26.9928 68.1486 27.1127 68.7236C27.2325 69.2986 27.1191 69.8977 26.7973 70.389C23.2945 75.713 20.9131 81.6948 19.7983 87.9695C18.6835 94.2443 18.8587 100.68 20.3133 106.885C20.3821 107.166 20.3944 107.458 20.3494 107.744C20.3045 108.03 20.2033 108.304 20.0517 108.55C19.9 108.797 19.701 109.011 19.466 109.18C19.2311 109.348 18.965 109.469 18.6831 109.534C18.5217 109.569 18.3572 109.588 18.1921 109.59Z" fill="#333333"/>
<path d="M31.1963 132.858C30.6121 132.857 30.0524 132.624 29.6401 132.21C25.6722 128.257 22.3858 123.675 19.9142 118.649C19.7865 118.39 19.711 118.108 19.6922 117.82C19.6733 117.532 19.7115 117.242 19.8043 116.969C19.8972 116.695 20.0431 116.443 20.2336 116.226C20.4241 116.008 20.6555 115.831 20.9146 115.703C21.1737 115.576 21.4554 115.5 21.7436 115.481C22.0319 115.462 22.321 115.501 22.5945 115.593C22.8681 115.686 23.1206 115.832 23.3378 116.023C23.5549 116.213 23.7324 116.445 23.8601 116.704C26.1263 121.294 29.1303 125.48 32.7524 129.098C33.1642 129.511 33.3954 130.07 33.3954 130.654C33.3954 131.237 33.1642 131.797 32.7524 132.21C32.3384 132.621 31.7798 132.854 31.1963 132.858Z" fill="#333333"/>
<path d="M136.249 262.313L144.908 270.972L124.8 291.08C123.771 292.109 122.377 292.686 120.922 292.686C119.468 292.686 118.073 292.109 117.045 291.08L116.134 290.17C115.106 289.142 114.528 287.747 114.528 286.292C114.528 284.838 115.106 283.443 116.134 282.415L136.242 262.307L136.249 262.313Z" fill="#171717"/>
<path d="M136.263 262.33L144.909 270.975L144.496 271.388C143.563 272.321 142.298 272.845 140.979 272.845C139.66 272.845 138.395 272.321 137.462 271.388L135.837 269.764C134.905 268.831 134.38 267.566 134.38 266.246C134.38 264.927 134.905 263.662 135.837 262.729L136.25 262.316L136.263 262.33Z" fill="#333333"/>
<path d="M204.168 215.344L183.883 235.62C181.631 238.033 180.405 241.227 180.463 244.527C180.521 247.826 181.858 250.975 184.193 253.307C186.528 255.64 189.678 256.974 192.978 257.029C196.277 257.083 199.469 255.854 201.88 253.6L210.087 245.402C211.815 234.996 209.712 224.317 204.168 215.344Z" fill="#FF373F"/>
<path d="M211.802 234.908C211.221 226.511 208.163 218.475 203.014 211.816C197.866 205.157 190.858 200.174 182.878 197.499C174.897 194.823 166.303 194.574 158.181 196.783C150.059 198.992 142.775 203.561 137.249 209.91C131.724 216.26 128.206 224.106 127.14 232.455C126.074 240.804 127.507 249.282 131.26 256.817C135.012 264.351 140.915 270.603 148.221 274.783C155.527 278.962 163.909 280.881 172.305 280.296C183.561 279.513 194.044 274.291 201.451 265.78C208.857 257.268 212.581 246.164 211.802 234.908ZM130.373 240.577C129.836 232.868 131.598 225.172 135.435 218.464C139.272 211.757 145.011 206.337 151.928 202.891C158.845 199.446 166.629 198.129 174.294 199.107C181.96 200.085 189.163 203.315 194.993 208.387C200.823 213.459 205.018 220.147 207.048 227.603C209.077 235.06 208.85 242.951 206.395 250.278C203.939 257.605 199.366 264.04 193.254 268.768C187.142 273.497 179.764 276.306 172.055 276.841C161.719 277.559 151.521 274.142 143.704 267.341C135.888 260.54 131.092 250.913 130.373 240.577Z" fill="#333333"/>
<path d="M147.691 262.781C144.412 259.939 141.728 256.478 139.79 252.597C137.852 248.715 136.7 244.489 136.399 240.161C136.378 239.97 136.396 239.776 136.451 239.592C136.507 239.407 136.599 239.236 136.722 239.088C136.845 238.941 136.997 238.819 137.169 238.732C137.34 238.645 137.528 238.593 137.72 238.579C137.912 238.566 138.104 238.592 138.286 238.656C138.468 238.719 138.635 238.818 138.777 238.948C138.92 239.077 139.034 239.234 139.114 239.409C139.194 239.585 139.238 239.774 139.243 239.966C139.811 247.943 143.515 255.37 149.546 260.622C155.577 265.873 163.443 268.522 171.422 267.987C171.798 267.961 172.169 268.086 172.453 268.333C172.737 268.581 172.911 268.931 172.936 269.307C172.962 269.683 172.838 270.053 172.59 270.337C172.343 270.621 171.992 270.795 171.616 270.821C167.296 271.121 162.958 270.566 158.852 269.186C154.746 267.806 150.954 265.63 147.691 262.781Z" fill="#333333"/>
<path d="M198.869 230.443C198.658 230.26 198.507 230.018 198.434 229.748C197.319 225.784 195.407 222.088 192.816 218.887C190.225 215.686 187.009 213.046 183.364 211.13C183.045 210.946 182.809 210.647 182.706 210.294C182.603 209.941 182.64 209.561 182.809 209.235C182.979 208.909 183.268 208.661 183.617 208.542C183.965 208.424 184.346 208.445 184.679 208.601C188.669 210.699 192.189 213.588 195.026 217.092C197.862 220.595 199.955 224.64 201.176 228.979C201.226 229.16 201.241 229.348 201.218 229.533C201.196 229.719 201.137 229.898 201.045 230.061C200.953 230.224 200.829 230.367 200.682 230.482C200.534 230.596 200.365 230.681 200.185 230.73C199.959 230.793 199.721 230.799 199.492 230.749C199.262 230.699 199.049 230.594 198.869 230.443Z" fill="#333333"/>
<path d="M166.227 207.407C165.944 207.156 165.771 206.803 165.745 206.425C165.72 206.05 165.844 205.679 166.09 205.395C166.337 205.11 166.685 204.935 167.061 204.906C170.673 204.655 174.303 204.996 177.806 205.916C177.988 205.964 178.159 206.047 178.309 206.162C178.46 206.276 178.586 206.419 178.681 206.582C178.776 206.745 178.838 206.925 178.863 207.112C178.889 207.299 178.877 207.489 178.829 207.671C178.781 207.854 178.698 208.025 178.583 208.175C178.469 208.325 178.326 208.451 178.163 208.546C178 208.642 177.82 208.704 177.633 208.729C177.446 208.754 177.256 208.743 177.074 208.695C173.877 207.849 170.563 207.536 167.265 207.768C166.885 207.787 166.513 207.658 166.227 207.407Z" fill="#333333"/>
<path d="M68.4399 100.65C60.9741 108.162 73.6641 119.824 65.2812 125.178C72.1264 128.615 96.117 132.978 102.332 119.463C97.8029 115.943 100.952 107.291 96.7747 98.9825C90.5223 86.6628 60.9741 92.1186 68.4399 100.65Z" fill="#263238"/>
<path d="M69.1139 100.456C66.7889 100.067 58.9248 103.976 64.7789 114.471C69.4936 122.956 65.5662 123.558 65.5662 123.558C65.5662 123.558 70.1976 123.687 67.4188 117.379C64.4732 110.645 63.0931 103.661 69.1139 100.456Z" fill="#263238"/>
<path d="M124.18 167.093C123.893 166.569 123.412 166.178 122.841 166.005C122.269 165.832 121.652 165.89 121.123 166.167L120.576 166.454C120.4 166.547 120.067 166.769 119.798 166.927C119.53 167.084 119.215 167.26 118.918 167.408C118.334 167.702 117.731 167.956 117.112 168.168C115.967 168.583 114.763 168.811 113.546 168.844C112.428 168.857 111.316 168.679 110.258 168.316C109.586 168.067 108.938 167.757 108.322 167.39C107.525 165.63 106.766 163.851 106.117 162.017C105.33 159.878 104.635 157.691 104.024 155.478C103.413 153.264 102.875 151.022 102.431 148.771C102.199 147.65 101.995 146.52 101.81 145.399L101.56 143.723C101.477 143.186 101.403 142.574 101.356 142.148V141.963C101.233 140.735 100.628 139.605 99.6722 138.824C98.7168 138.042 97.49 137.672 96.2617 137.795C95.0334 137.917 93.9041 138.523 93.1224 139.479C92.3407 140.434 91.9706 141.661 92.0934 142.889C92.1583 143.677 92.2138 144.279 92.2972 144.936C92.3806 145.594 92.4732 146.224 92.5658 146.863C92.7696 148.141 93.0012 149.401 93.2605 150.661C93.7755 153.164 94.4248 155.638 95.2057 158.071C95.567 159.294 96.0116 160.498 96.4284 161.712C96.8452 162.925 97.3547 164.111 97.8827 165.287C98.8935 167.664 100.041 169.981 101.319 172.225L101.43 172.429C101.763 173.032 102.261 173.527 102.866 173.855C104.617 174.81 106.509 175.479 108.47 175.838C110.484 176.193 112.549 176.149 114.546 175.708C117.366 175.054 119.955 173.649 122.04 171.641C122.383 171.327 122.707 171.002 122.966 170.66C123.226 170.317 123.541 169.993 123.893 169.511C124.164 169.176 124.335 168.772 124.386 168.344C124.437 167.916 124.365 167.482 124.18 167.093Z" fill="#FF8B7B"/>
<path d="M130.343 158.423H130.074C129.187 158.404 128.308 158.59 127.505 158.966C126.702 159.342 125.996 159.898 125.443 160.591L120.969 166.204V170.039C124.563 171.465 129.12 167.621 129.12 167.621L131.426 167.038C132.203 166.844 132.88 166.369 133.326 165.705C133.773 165.042 133.957 164.236 133.844 163.444L133.511 161.193C133.402 160.428 133.022 159.728 132.441 159.22C131.859 158.711 131.115 158.429 130.343 158.423Z" fill="#FF8B7B"/>
<path d="M101.237 136.775C104.229 139.851 104.414 149.03 104.414 149.03L92.4466 158.664C92.4466 158.664 87.5281 145.047 90.2513 140.24C92.5578 136.164 97.4207 132.857 101.237 136.775Z" fill="#F5F5F5"/>
<g opacity="0.2">
<path d="M101.237 136.775C104.229 139.851 104.414 149.03 104.414 149.03L92.4466 158.664C92.4466 158.664 87.5281 145.047 90.2513 140.24C92.5578 136.164 97.4207 132.857 101.237 136.775Z" fill="white"/>
</g>
<path d="M81.4297 343.145L88.0433 343.868L88.9511 325.898L82.3374 325.166L81.4297 343.145Z" fill="#FF8B7B"/>
<path d="M89.1295 339.551H81.3581C81.2014 339.546 81.049 339.602 80.9331 339.708C80.8172 339.813 80.747 339.96 80.7375 340.116L80.2188 347.462C80.2186 347.846 80.3687 348.215 80.6369 348.49C80.9052 348.765 81.2703 348.925 81.6545 348.934C84.9335 348.934 84.9706 348.934 89.0647 348.934H100.097C103.487 348.934 103.496 345.498 102.033 345.183C95.4468 343.794 92.881 341.867 90.556 340.033C90.1474 339.718 89.6454 339.548 89.1295 339.551Z" fill="#263238"/>
<path opacity="0.2" d="M88.9512 325.908L88.4788 335.171H81.8281L82.3376 325.176L88.9512 325.908Z" fill="black"/>
<path d="M92.5232 182.525C92.5232 182.525 98.2476 230.442 98.2476 251.747C93.7367 281.388 89.9111 333.409 89.9111 333.409L80.7595 333.168C80.7595 333.168 76.6005 276.516 80.4538 252.052C75.5168 230.136 69.4219 179.561 69.4219 179.561L92.5232 182.525Z" fill="#263238"/>
<path opacity="0.2" d="M74.871 195.865C73.7802 196.345 72.722 196.896 71.7031 197.514C72.9629 206.972 74.6209 218.874 76.3808 229.86C79.382 220.82 77.761 200.941 74.871 195.865Z" fill="black"/>
<path d="M9.8125 326.463L15.2683 330.27L24.6793 314.93L19.2235 311.123L9.8125 326.463Z" fill="#FF8B7B"/>
<path d="M16.6472 328.26L12.0158 322.026C11.9276 321.898 11.7928 321.81 11.6404 321.78C11.488 321.751 11.3301 321.782 11.2007 321.868L4.9946 325.851C4.685 326.079 4.47744 326.419 4.41678 326.799C4.35612 327.179 4.44723 327.567 4.67041 327.88C6.60633 330.52 6.64337 330.538 9.07948 333.817C10.5893 335.827 13.5997 339.875 15.6746 342.663C17.7494 345.452 20.4634 343.34 19.8336 341.969C17.0547 335.864 17.0547 332.706 17.1103 329.705C17.1198 329.185 16.9569 328.677 16.6472 328.26Z" fill="#263238"/>
<path opacity="0.2" d="M24.6736 314.93L19.8292 322.841L13.9844 319.654L19.2271 311.123L24.6736 314.93Z" fill="black"/>
<path d="M43.2731 332.893C38.5398 332.893 28.6842 332.893 28.5175 325.927C28.3878 320.462 35.1496 318.192 40.9852 317.914C41.6317 317.883 42.2781 317.98 42.8873 318.198C43.4965 318.417 44.0567 318.754 44.5358 319.189C45.0149 319.624 45.4036 320.15 45.6796 320.735C45.9557 321.321 46.1136 321.955 46.1445 322.601V322.972C52.7581 322.657 57.0375 321.212 58.603 318.748C62.1321 313.19 55.3702 298.842 48.84 284.975C41.1519 268.663 32.4449 250.184 32.2781 232.482C32.272 231.835 32.3935 231.193 32.6355 230.593C32.8775 229.992 33.2354 229.446 33.6886 228.984C34.1419 228.522 34.6818 228.154 35.2773 227.901C35.8729 227.647 36.5125 227.514 37.1596 227.508C38.4578 227.51 39.7029 228.024 40.6252 228.937C41.5475 229.851 42.0728 231.091 42.0874 232.389C42.2356 247.933 50.4239 265.375 57.7045 280.77C66.041 298.536 73.3122 313.885 66.8746 324.028C63.1417 329.993 55.4073 332.893 43.2731 332.893Z" fill="#026FCE"/>
<path d="M85.1937 181.581C85.1937 181.581 69.3914 236.344 61.6755 256.203C46.7254 282.195 21.9197 321.97 21.9197 321.97L14 317.339C14 317.339 32.5255 271.395 44.984 249.997C48.3278 227.766 60.9715 178.432 60.9715 178.432L85.1937 181.581Z" fill="#263238"/>
<path d="M18.0723 332.732C18.3866 333.252 18.8708 333.648 19.4432 333.853C19.6107 333.893 19.7862 333.886 19.9498 333.832C20.1135 333.778 20.2588 333.679 20.3695 333.547C20.4465 333.476 20.5052 333.388 20.5407 333.29C20.5762 333.191 20.5874 333.086 20.5732 332.982C20.4621 331.871 17.5906 330.426 17.0163 330.148C16.9829 330.134 16.9456 330.133 16.9114 330.145C16.8773 330.157 16.8487 330.181 16.8311 330.213C16.8088 330.247 16.7969 330.287 16.7969 330.328C16.7969 330.369 16.8088 330.41 16.8311 330.444C17.1712 331.244 17.5868 332.011 18.0723 332.732ZM20.0453 332.732C20.1268 332.834 20.181 332.955 20.2027 333.084C20.2072 333.12 20.2028 333.157 20.1899 333.19C20.1769 333.224 20.1559 333.255 20.1286 333.279C20.0539 333.364 19.9579 333.427 19.8505 333.463C19.7431 333.499 19.6281 333.506 19.5173 333.482C18.9059 333.362 18.1001 332.371 17.322 330.805C18.3308 331.275 19.2519 331.915 20.0453 332.695V332.732Z" fill="#F5F5F5"/>
<path d="M16.7877 330.483L16.8433 330.529C17.7695 331.039 20.1779 331.456 20.7058 330.687C20.7945 330.546 20.8376 330.382 20.8293 330.216C20.821 330.05 20.7617 329.891 20.6595 329.76C19.7332 328.121 16.9544 330.048 16.834 330.131C16.8064 330.153 16.7844 330.181 16.7699 330.213C16.7554 330.246 16.7488 330.281 16.7506 330.316C16.7469 330.374 16.7597 330.432 16.7877 330.483ZM20.3075 329.946C20.3345 329.978 20.3593 330.012 20.3816 330.048C20.4835 330.224 20.5021 330.353 20.4465 330.427C20.1408 330.872 18.3624 330.714 17.3249 330.307C18.0196 329.89 19.6406 329.047 20.3075 329.946Z" fill="#F5F5F5"/>
<path d="M93.6157 341.08C94.2228 341.135 94.8306 340.981 95.3386 340.644C95.4674 340.532 95.5624 340.385 95.6131 340.222C95.6637 340.058 95.6681 339.884 95.6257 339.718C95.6125 339.613 95.5756 339.513 95.5178 339.425C95.46 339.337 95.3829 339.263 95.2923 339.209C94.366 338.644 91.4667 340.079 90.9017 340.376C90.8699 340.393 90.8451 340.421 90.8316 340.455C90.8181 340.489 90.8167 340.526 90.8276 340.561C90.8417 340.6 90.8651 340.634 90.8959 340.662C90.9266 340.689 90.9636 340.709 91.0036 340.718C91.8597 340.928 92.735 341.049 93.6157 341.08ZM94.7643 339.477C94.8962 339.469 95.0278 339.498 95.1441 339.561C95.1904 339.561 95.2367 339.625 95.2552 339.737C95.2794 339.847 95.2733 339.963 95.2374 340.07C95.2016 340.178 95.1373 340.274 95.0514 340.348C94.5976 340.765 93.3193 340.82 91.5964 340.515C92.5699 339.993 93.6258 339.642 94.718 339.477H94.7643Z" fill="#F5F5F5"/>
<path d="M90.9972 340.764H91.062C91.9883 340.338 93.7946 338.642 93.4982 337.762C93.4364 337.617 93.3332 337.493 93.2014 337.406C93.0697 337.318 92.9152 337.272 92.7571 337.271C90.9046 337.058 90.7749 340.412 90.7656 340.551C90.7659 340.587 90.7754 340.624 90.7931 340.656C90.8109 340.688 90.8365 340.716 90.8675 340.736C90.9069 340.758 90.9521 340.768 90.9972 340.764ZM92.6645 337.614H92.7942C92.9887 337.614 93.1091 337.698 93.1369 337.79C93.3129 338.3 92.1273 339.643 91.1732 340.226C91.2566 339.42 91.553 337.614 92.683 337.614H92.6645Z" fill="#F5F5F5"/>
<path d="M60.9688 178.478L92.5178 182.516C99.6316 158.562 101.975 146.993 102.605 141.426C102.772 140.027 102.445 138.613 101.68 137.429C100.916 136.245 99.762 135.366 98.4182 134.942C96.5656 134.349 94.1758 133.645 91.8045 133.089C90.9987 132.876 90.1743 132.682 89.3684 132.496C84.6453 131.538 79.8597 130.919 75.0482 130.644C74.3349 130.579 73.631 130.542 72.9177 130.505C71.5191 130.431 70.1389 130.412 68.8792 130.412C67.9337 130.411 66.9983 130.607 66.1326 130.987C65.267 131.367 64.4901 131.924 63.8513 132.621C63.2126 133.318 62.7261 134.141 62.4227 135.036C62.1194 135.932 62.0059 136.881 62.0896 137.822C62.3396 140.601 62.5342 143.186 62.6824 145.557C63.0344 151.115 63.1455 155.561 63.0621 159.451C62.8728 165.839 62.1728 172.202 60.9688 178.478Z" fill="#F5F5F5"/>
<g opacity="0.3">
<path d="M60.9688 178.478L92.5178 182.516C99.6316 158.562 101.975 146.993 102.605 141.426C102.772 140.027 102.445 138.613 101.68 137.429C100.916 136.245 99.762 135.366 98.4182 134.942C96.5656 134.349 94.1758 133.645 91.8045 133.089C90.9987 132.876 90.1743 132.682 89.3684 132.496C84.6453 131.538 79.8597 130.919 75.0482 130.644C74.3349 130.579 73.631 130.542 72.9177 130.505C71.5191 130.431 70.1389 130.412 68.8792 130.412C67.9337 130.411 66.9983 130.607 66.1326 130.987C65.267 131.367 64.4901 131.924 63.8513 132.621C63.2126 133.318 62.7261 134.141 62.4227 135.036C62.1194 135.932 62.0059 136.881 62.0896 137.822C62.3396 140.601 62.5342 143.186 62.6824 145.557C63.0344 151.115 63.1455 155.561 63.0621 159.451C62.8728 165.839 62.1728 172.202 60.9688 178.478Z" fill="white"/>
</g>
<path opacity="0.3" d="M63.0517 159.415C67.2199 154.024 68.7297 147.855 67.3774 144.455L62.6719 145.511C63.0516 151.05 63.1535 155.515 63.0517 159.415Z" fill="#F5F5F5"/>
<path d="M91.8062 133.033C90.9911 132.82 90.176 132.625 89.3701 132.44C84.6432 131.486 79.8548 130.867 75.0406 130.588C74.3274 130.532 73.6234 130.495 72.9195 130.458L71.6875 130.402L72.6138 132.023C72.7435 132.246 75.8928 137.396 83.7291 142.935L85.4057 144.102L87.0174 142.87C88.5695 141.757 89.8378 140.294 90.7196 138.599C91.6014 136.905 92.072 135.026 92.0934 133.116L91.8062 133.033Z" fill="white"/>
<path d="M78.5219 121.066C78.2255 124.966 77.3084 128.94 75.0391 130.607C75.0391 130.607 77.929 135.415 85.4134 140.667C90.1003 137.082 89.3686 132.441 89.3686 132.441C84.3852 130.589 84.7372 127.134 86.8398 121.622L82.9495 119.529C82.6138 119.159 82.1768 118.896 81.6929 118.772C81.2089 118.649 80.6993 118.67 80.2275 118.834C79.7557 118.998 79.3424 119.297 79.0392 119.694C78.7359 120.091 78.556 120.568 78.5219 121.066Z" fill="#FF8B7B"/>
<path opacity="0.2" d="M82.9516 119.529C82.6364 119.181 82.231 118.927 81.7803 118.794C81.3296 118.662 80.8511 118.657 80.3978 118.78C79.9444 118.903 79.5337 119.148 79.2112 119.49C78.8887 119.831 78.6669 120.255 78.5703 120.715C80.0481 123.695 82.4314 126.13 85.3785 127.671C85.484 125.582 85.9771 123.531 86.8327 121.623L82.9516 119.529Z" fill="black"/>
<path d="M72.4673 108.839C74.4032 116.37 75.0609 119.594 79.6645 122.734C86.5838 127.495 95.4112 123.475 95.7539 115.527C96.0781 108.367 92.8639 97.2515 84.8238 95.6583C83.0489 95.2954 81.2107 95.3933 79.4843 95.9425C77.758 96.4917 76.2011 97.474 74.9621 98.7957C73.7231 100.117 72.8433 101.734 72.4065 103.493C71.9698 105.251 71.9907 107.092 72.4673 108.839Z" fill="#FF8B7B"/>
<path d="M91.6299 97.2124C87.0944 101.244 81.714 104.21 75.8832 105.892C75.8832 105.892 81.6354 118.128 70.8721 115.044C67.7505 104.623 70.8721 99.2132 73.6509 96.6659C82.2097 93.887 88.2305 92.9607 91.6299 97.2124Z" fill="#263238"/>
<path d="M72.1052 116.259C72.7364 117.624 73.882 118.683 75.2916 119.205C77.1442 119.872 78.2465 118.279 77.8482 116.426C77.4869 114.768 76.079 112.415 74.1431 112.536C73.7243 112.571 73.321 112.71 72.9689 112.94C72.6168 113.169 72.327 113.482 72.1252 113.851C71.9235 114.22 71.8161 114.632 71.8126 115.053C71.8091 115.473 71.9096 115.887 72.1052 116.259Z" fill="#FF8B7B"/>
<path d="M60.7426 176.568L58.9549 179.208C58.816 179.412 59.0475 179.671 59.4088 179.717L92.4954 183.96C92.7825 183.96 93.0326 183.886 93.0789 183.71L93.7273 180.931C93.7273 180.736 93.5421 180.542 93.2364 180.496L61.2798 176.401C61.1836 176.379 61.083 176.382 60.9886 176.412C60.8941 176.441 60.8092 176.495 60.7426 176.568Z" fill="#F5F5F5"/>
<path d="M64.5687 180.691L63.7165 180.58C63.5497 180.58 63.4293 180.45 63.4571 180.348L64.3278 176.726C64.361 176.665 64.4138 176.617 64.4778 176.59C64.5418 176.563 64.613 176.559 64.6798 176.578L65.5412 176.689C65.708 176.689 65.8284 176.81 65.8006 176.921L64.9299 180.533C64.9021 180.644 64.7446 180.709 64.5687 180.691Z" fill="#263238"/>
<path d="M90.0452 183.952L89.193 183.85C89.0263 183.85 88.9059 183.72 88.9337 183.609L89.8044 179.996C89.8044 179.894 89.9896 179.82 90.1564 179.839L91.0178 179.95C91.1845 179.95 91.305 180.08 91.2772 180.182L90.4065 183.803C90.3787 183.905 90.2212 183.979 90.0452 183.952Z" fill="#263238"/>
<path d="M77.3123 182.321L76.4601 182.21C76.2841 182.21 76.1637 182.089 76.1915 181.978L77.0622 178.366C77.0622 178.255 77.2474 178.19 77.4234 178.208L78.2756 178.319C78.4423 178.319 78.5628 178.449 78.5442 178.551L77.6643 182.173C77.6457 182.275 77.479 182.34 77.3123 182.321Z" fill="#263238"/>
<path d="M86.1466 115.434C86.1187 115.467 86.1028 115.508 86.1016 115.55C86.1005 115.593 86.1142 115.635 86.1403 115.669C86.1665 115.703 86.2036 115.726 86.2452 115.736C86.2869 115.746 86.3306 115.74 86.3689 115.722C87.0688 115.365 87.8433 115.178 88.629 115.178C89.4147 115.178 90.1892 115.365 90.8891 115.722C90.9311 115.745 90.9806 115.752 91.0274 115.74C91.0741 115.728 91.1142 115.698 91.1392 115.657C91.1645 115.614 91.1728 115.564 91.1625 115.516C91.1522 115.468 91.124 115.426 91.0837 115.397C90.3282 115.01 89.4917 114.809 88.6429 114.809C87.7942 114.809 86.9576 115.01 86.2022 115.397C86.2022 115.397 86.2022 115.416 86.1466 115.434Z" fill="#263238"/>
<path d="M37.2118 237.36C35.9129 237.36 34.6665 236.848 33.7436 235.933C32.8208 235.019 32.2963 233.778 32.284 232.479C32.1544 219.325 36.5357 208.219 44.9555 200.364C55.3206 190.694 71.4841 186.201 90.4913 187.702C103.82 188.758 112.37 185.516 122.263 181.746C123.893 181.134 125.532 180.504 127.218 179.893C128.447 179.446 129.802 179.505 130.987 180.057C132.172 180.61 133.088 181.61 133.535 182.839C133.983 184.067 133.923 185.423 133.371 186.607C132.819 187.792 131.818 188.709 130.59 189.156C128.95 189.749 127.357 190.36 125.773 190.962C115.686 194.797 105.265 198.752 89.7132 197.53C73.5034 196.242 59.9983 199.808 51.6803 207.571C45.1964 213.573 42.0377 221.919 42.1396 232.386C42.1458 233.033 42.0243 233.675 41.7823 234.276C41.5403 234.876 41.1824 235.422 40.7291 235.884C40.2758 236.346 39.736 236.714 39.1405 236.968C38.5449 237.221 37.9053 237.354 37.2582 237.36H37.2118Z" fill="#026FCE"/>
<path d="M151.18 196.115L131.358 203.377C129.704 203.983 127.877 203.907 126.279 203.166C124.681 202.425 123.443 201.079 122.837 199.425L114.652 177.081C114.046 175.427 114.122 173.6 114.863 172.002C115.604 170.404 116.949 169.166 118.603 168.56L138.425 161.298L151.17 196.089L151.18 196.115Z" fill="#026FCE"/>
<path opacity="0.7" d="M151.18 196.115L131.358 203.377C129.704 203.983 127.877 203.907 126.279 203.166C124.681 202.425 123.443 201.079 122.837 199.425L114.652 177.081C114.046 175.427 114.122 173.6 114.863 172.002C115.604 170.404 116.949 169.166 118.603 168.56L138.425 161.298L151.17 196.089L151.18 196.115Z" fill="white"/>
<path opacity="0.2" d="M129.59 164.528L138.436 161.295L151.181 196.105L142.336 199.347C141.747 198.778 141.297 198.08 141.02 197.309L129.905 166.936C129.614 166.169 129.506 165.344 129.59 164.528Z" fill="#026FCE"/>
<path d="M158.299 169.967L157.43 170.285L159.552 176.078L160.422 175.759L158.299 169.967Z" fill="#026FCE"/>
<path d="M156.09 166.677L152.969 158.137C152.433 156.689 151.467 155.439 150.2 154.557C148.933 153.674 147.427 153.2 145.883 153.2C145.004 153.197 144.132 153.351 143.308 153.654L137.676 155.719L137.352 154.849L142.993 152.783C143.918 152.444 144.897 152.271 145.883 152.273C147.617 152.278 149.309 152.812 150.732 153.806C152.154 154.799 153.238 156.204 153.839 157.831L156.961 166.372L156.09 166.677Z" fill="#026FCE"/>
<path d="M151.327 198.612L159.599 195.62C162.301 194.642 163.7 191.659 162.722 188.956L151.495 157.915C150.517 155.212 147.534 153.814 144.832 154.792L136.56 157.784C133.857 158.761 132.459 161.744 133.437 164.447L144.664 195.488C145.641 198.191 148.625 199.589 151.327 198.612Z" fill="#026FCE"/>
<path d="M146.592 167.334C146.781 167.851 146.812 168.412 146.682 168.946C146.552 169.48 146.266 169.964 145.861 170.336C145.456 170.708 144.95 170.951 144.406 171.035C143.863 171.119 143.306 171.04 142.808 170.807C142.309 170.575 141.891 170.2 141.606 169.73C141.321 169.26 141.182 168.715 141.206 168.166C141.23 167.616 141.417 167.087 141.742 166.643C142.068 166.2 142.518 165.864 143.035 165.676C143.726 165.425 144.489 165.459 145.156 165.77C145.823 166.081 146.339 166.643 146.592 167.334Z" fill="#263238"/>
<path d="M153.515 186.222C153.703 186.738 153.734 187.299 153.603 187.832C153.473 188.366 153.188 188.849 152.783 189.221C152.378 189.592 151.872 189.835 151.329 189.92C150.786 190.004 150.23 189.925 149.732 189.693C149.234 189.462 148.816 189.087 148.53 188.618C148.244 188.149 148.104 187.605 148.127 187.056C148.151 186.507 148.336 185.978 148.66 185.534C148.984 185.09 149.433 184.753 149.949 184.564C150.292 184.438 150.656 184.382 151.021 184.397C151.386 184.412 151.744 184.5 152.075 184.654C152.407 184.808 152.704 185.025 152.951 185.294C153.198 185.564 153.39 185.879 153.515 186.222Z" fill="#263238"/>
<path d="M72.3049 183.988L72.2308 183.905C70.7858 182.46 69.2575 180.885 67.8773 179.274C66.4972 177.662 65.1448 176.05 63.9129 174.383C62.705 172.756 61.6065 171.051 60.6246 169.279C59.9219 168.011 59.324 166.689 58.8369 165.324C59.3926 163.471 59.9855 161.618 60.6894 159.84C61.4953 157.7 62.403 155.598 63.3942 153.523C64.3853 151.448 65.4412 149.41 66.5806 147.418C67.1363 146.418 67.7199 145.427 68.3219 144.454L69.2482 143.028C69.5354 142.565 69.8781 142.101 70.1189 141.703L70.2208 141.555C70.8793 140.551 71.1223 139.331 70.8987 138.152C70.6752 136.972 70.0024 135.926 69.0223 135.233C68.0422 134.54 66.8314 134.254 65.6449 134.437C64.4585 134.619 63.3892 135.255 62.6624 136.21C62.1992 136.84 61.8473 137.34 61.4768 137.887C61.1062 138.433 60.7728 138.98 60.4208 139.526C59.7446 140.619 59.087 141.722 58.4571 142.842C57.204 145.078 56.0693 147.379 55.0577 149.734C54.5389 150.901 54.1314 152.096 53.6034 153.291C53.0754 154.486 52.7234 155.699 52.3529 156.941C51.5667 159.4 50.9203 161.902 50.417 164.434V164.647C50.2732 165.323 50.3214 166.026 50.5559 166.676C51.4535 169.051 52.6453 171.304 54.1036 173.382C55.4768 175.355 57.0071 177.214 58.6794 178.94C60.3085 180.603 62.0377 182.166 63.8573 183.618C65.6761 185.068 67.585 186.402 69.5724 187.61C70.055 187.893 70.6239 187.989 71.1726 187.882C71.7213 187.775 72.212 187.471 72.5529 187.028C72.8938 186.585 73.0613 186.033 73.0242 185.475C72.9871 184.917 72.7478 184.392 72.3513 183.998L72.3049 183.988Z" fill="#FF8B7B"/>
<path d="M83.0727 188.592L82.9523 188.351C82.5677 187.549 82.0019 186.846 81.2994 186.3C80.597 185.753 79.777 185.377 78.9044 185.202L71.874 183.775L68.4375 185.489C68.808 189.342 74.3101 191.649 74.3101 191.649L75.8755 193.437C76.4033 194.036 77.1339 194.42 77.927 194.514C78.7202 194.608 79.5201 194.406 80.1734 193.946L82.026 192.622C82.6486 192.182 83.0954 191.536 83.287 190.798C83.4786 190.061 83.4027 189.279 83.0727 188.592Z" fill="#FF8B7B"/>
<path d="M66.0025 131.006C62.1028 132.793 57.9531 138.981 57.9531 138.981L66.2896 154.589C66.2896 154.589 75.7654 143.668 74.9688 138.203C74.3204 133.562 70.9673 128.727 66.0025 131.006Z" fill="#F5F5F5"/>
<g opacity="0.3">
<path d="M66.0025 131.006C62.1028 132.793 57.9531 138.981 57.9531 138.981L66.2896 154.589C66.2896 154.589 75.7654 143.668 74.9688 138.203C74.3204 133.562 70.9673 128.727 66.0025 131.006Z" fill="white"/>
</g>
<path d="M332.86 335.513C324.699 335.513 316.678 333.837 312.787 328.76C294.373 304.677 294.54 256.232 294.697 209.352C294.79 184.11 296.781 160.258 293.975 141.732C292.326 130.811 286.564 123.317 280.747 119.445C272.114 113.739 260.258 116.805 255.191 118.112C254.56 118.288 253.9 118.337 253.25 118.255C252.6 118.173 251.973 117.962 251.405 117.635C250.837 117.308 250.34 116.871 249.943 116.349C249.547 115.828 249.258 115.232 249.094 114.598C248.93 113.963 248.895 113.302 248.989 112.654C249.084 112.005 249.307 111.382 249.645 110.821C249.983 110.26 250.43 109.772 250.96 109.385C251.489 108.999 252.09 108.722 252.727 108.571C259.054 106.931 273.893 103.106 286.175 111.22C294.465 116.694 301.635 126.467 303.719 140.259C306.637 159.526 304.645 183.73 304.553 209.352C304.395 254.583 304.238 301.351 320.614 322.74C321.939 324.462 327.098 326.009 335.666 325.565C336.426 325.565 337.167 325.481 337.899 325.417C337.567 324.746 337.396 324.007 337.398 323.258C337.398 321.951 337.918 320.698 338.842 319.774C339.766 318.85 341.019 318.33 342.326 318.33C353.099 318.33 358.768 319.257 359.861 324.185C360.176 325.602 360.342 329.159 355.137 331.595C351.246 333.42 341.965 335.513 332.86 335.513Z" fill="#026FCE"/>
<path d="M225.019 339.764L214.969 335.808L220.267 318.385L230.326 322.331L225.019 339.764Z" fill="#FFC3BD"/>
<path d="M214.733 334.744L226.071 339.191C226.214 339.249 226.334 339.354 226.411 339.488C226.488 339.622 226.518 339.778 226.497 339.932L225.385 346.99C225.356 347.161 225.289 347.323 225.189 347.464C225.09 347.605 224.959 347.723 224.808 347.807C224.657 347.891 224.489 347.941 224.317 347.952C224.144 347.963 223.971 347.935 223.81 347.87C220.967 346.694 216.511 344.748 212.908 343.331C210.694 342.46 206.48 341.071 203.414 339.867C200.348 338.663 201.144 335.476 202.488 335.699C208.592 336.68 210.926 335.634 213.362 334.726C213.805 334.557 214.295 334.563 214.733 334.744Z" fill="#263238"/>
<path opacity="0.2" d="M230.331 322.34L220.272 318.385L217.539 327.37L227.598 331.325L230.331 322.34Z" fill="black"/>
<path d="M242.9 187.473C242.9 187.473 233.804 232.435 230.331 254.611C226.422 279.463 216.094 324.861 216.094 324.861L229.46 330.113C229.46 330.113 248.551 283.631 251.209 261.122C259.221 242.828 275.153 188.992 275.153 188.992L242.9 187.473Z" fill="#263238"/>
<path d="M215.445 324.933L230.118 330.704L232.628 326.258L216.223 319.459L215.445 324.933Z" fill="#263238"/>
<path d="M211.849 334.938C211.338 334.779 210.894 334.453 210.589 334.012C210.505 333.849 210.461 333.667 210.461 333.484C210.461 333.3 210.505 333.119 210.589 332.956C210.627 332.855 210.692 332.767 210.777 332.702C210.862 332.636 210.964 332.596 211.071 332.585C212.044 332.483 213.85 334.855 214.026 335.133C214.046 335.163 214.057 335.198 214.057 335.234C214.057 335.271 214.046 335.306 214.026 335.336C214.007 335.367 213.979 335.391 213.946 335.406C213.913 335.42 213.876 335.425 213.841 335.42C213.161 335.332 212.494 335.17 211.849 334.938ZM211.358 333.002C211.284 332.965 211.2 332.949 211.117 332.956C211.062 332.956 210.997 332.956 210.932 333.113C210.871 333.224 210.838 333.348 210.838 333.474C210.838 333.601 210.871 333.725 210.932 333.836C211.201 334.327 212.127 334.762 213.47 334.984C212.906 334.189 212.188 333.515 211.358 333.002Z" fill="#F5F5F5"/>
<path d="M213.826 335.411C213.796 335.401 213.77 335.382 213.751 335.356C213.159 334.652 212.325 332.475 212.825 331.725C212.902 331.608 213.017 331.522 213.15 331.48C213.283 331.438 213.427 331.442 213.557 331.493C213.695 331.528 213.823 331.591 213.935 331.679C214.047 331.767 214.139 331.877 214.205 332.003C214.78 333.031 214.131 335.198 214.103 335.291C214.092 335.324 214.073 335.353 214.047 335.376C214.021 335.399 213.989 335.414 213.955 335.421C213.935 335.431 213.912 335.435 213.889 335.433C213.866 335.432 213.844 335.424 213.826 335.411ZM213.511 331.873H213.436C213.196 331.817 213.14 331.873 213.112 331.956C212.834 332.401 213.288 333.976 213.816 334.837C214.08 333.98 214.08 333.063 213.816 332.206C213.758 332.062 213.649 331.944 213.511 331.873Z" fill="#F5F5F5"/>
<path opacity="0.2" d="M262.512 214.695C257.473 220.939 255.482 236.852 255.5 250.117C258.9 240.752 262.799 228.858 266.226 218.058L262.512 214.695Z" fill="black"/>
<path d="M285.502 341.441H274.701L273.266 323.285H284.066L285.502 341.441Z" fill="#FFC3BD"/>
<path d="M274.102 340.533H286.282C286.439 340.532 286.59 340.585 286.712 340.683C286.833 340.781 286.917 340.918 286.949 341.07L288.496 348.036C288.532 348.206 288.53 348.382 288.489 348.551C288.448 348.72 288.369 348.878 288.259 349.012C288.148 349.146 288.009 349.254 287.851 349.327C287.694 349.401 287.522 349.437 287.348 349.435C284.272 349.379 279.428 349.194 275.556 349.194C273.166 349.194 268.739 349.444 265.45 349.444C262.162 349.444 261.745 346.193 263.07 345.896C269.119 344.572 270.916 342.756 272.842 341.015C273.189 340.706 273.637 340.535 274.102 340.533Z" fill="#263238"/>
<path opacity="0.2" d="M284.075 323.285H273.266L274.016 332.65H284.826L284.075 323.285Z" fill="black"/>
<path d="M255.984 188.037C255.984 188.037 261.968 238.14 263.228 256.175C264.979 281.278 271.75 330.835 271.75 330.835H286.107C286.107 330.835 287.645 280.222 285.051 257.704C288.626 238.057 287.496 189.547 287.496 189.547L255.984 188.037Z" fill="#263238"/>
<path d="M271.169 331.142H286.934L287.647 326.093L269.891 325.76L271.169 331.142Z" fill="#263238"/>
<path d="M271.451 341.765C270.917 341.805 270.386 341.665 269.941 341.367C269.803 341.246 269.696 341.094 269.628 340.923C269.561 340.752 269.535 340.568 269.552 340.385C269.552 340.276 269.583 340.168 269.64 340.075C269.697 339.982 269.779 339.906 269.876 339.857C270.747 339.412 273.276 340.968 273.582 341.144C273.614 341.163 273.64 341.19 273.656 341.223C273.673 341.256 273.679 341.293 273.674 341.33C273.666 341.367 273.648 341.401 273.622 341.429C273.595 341.456 273.562 341.477 273.526 341.487C272.847 341.658 272.151 341.751 271.451 341.765ZM270.284 340.144C270.201 340.139 270.118 340.155 270.043 340.19C269.997 340.19 269.941 340.264 269.932 340.403C269.913 340.528 269.926 340.656 269.969 340.774C270.013 340.892 270.086 340.998 270.182 341.08C270.608 341.441 271.636 341.487 272.961 341.219C272.155 340.693 271.256 340.329 270.312 340.144H270.284Z" fill="#F5F5F5"/>
<path d="M273.498 341.487H273.406C272.6 341.042 271.025 339.329 271.192 338.449C271.22 338.312 271.294 338.189 271.402 338.102C271.51 338.014 271.646 337.966 271.785 337.967C271.925 337.947 272.068 337.957 272.204 337.997C272.339 338.037 272.465 338.106 272.572 338.198C273.498 338.949 273.674 341.209 273.684 341.302C273.686 341.335 273.679 341.369 273.664 341.4C273.65 341.431 273.628 341.457 273.6 341.478C273.568 341.489 273.533 341.492 273.498 341.487ZM271.914 338.31H271.831C271.59 338.31 271.572 338.458 271.562 338.504C271.461 339.014 272.489 340.357 273.267 340.931C273.21 340.036 272.888 339.178 272.341 338.467C272.22 338.368 272.07 338.313 271.914 338.31Z" fill="#F5F5F5"/>
<path d="M260.935 118.946L252.284 118.835C249.375 118.835 246.485 118.742 243.623 118.696C242.752 118.696 241.9 118.64 241.039 118.603C241.094 118.603 241.131 118.501 241.178 118.455C241.789 117.806 242.4 117.139 243.03 116.5C243.345 116.167 243.654 115.843 243.957 115.528C244.244 115.213 244.614 114.861 244.809 114.601L245.596 113.601C246.217 112.809 246.572 111.842 246.612 110.837C246.652 109.832 246.375 108.84 245.819 108.001C245.264 107.163 244.458 106.52 243.517 106.165C242.576 105.81 241.547 105.761 240.576 106.024L238.862 106.487C238.334 106.645 237.806 106.821 237.278 106.996C236.241 107.358 235.222 107.756 234.212 108.191C232.178 109.09 230.212 110.136 228.33 111.322C226.381 112.568 224.538 113.971 222.819 115.518C220.999 117.173 219.351 119.007 217.9 120.993C217.534 121.488 217.223 122.023 216.974 122.586C216.114 124.558 216.072 126.79 216.857 128.793C217.642 130.796 219.19 132.405 221.161 133.266L222.004 133.637C223.907 134.456 225.878 135.107 227.895 135.582C229.655 136.036 231.322 136.332 232.962 136.61C234.601 136.888 236.204 137.11 237.797 137.305C239.39 137.499 240.965 137.648 242.539 137.777C245.679 138.055 248.792 138.194 251.895 138.287C254.998 138.379 258.036 138.379 261.259 138.231C263.773 138.124 266.145 137.039 267.871 135.209C269.597 133.378 270.539 130.946 270.498 128.43C270.457 125.915 269.436 123.515 267.651 121.741C265.867 119.968 263.46 118.962 260.944 118.936L260.935 118.946Z" fill="#FFC3BD"/>
<path d="M265.971 135.849C258.496 144.371 240.508 141.185 240.508 141.185L241.499 119.954C247.665 118.597 253.952 117.868 260.265 117.777C270.825 117.759 271.955 129.013 265.971 135.849Z" fill="#F5F5F5"/>
<path d="M246.024 129.32C245.579 132.747 245.097 137.36 244.81 143.566C240.911 163.296 239.456 177.274 242.902 187.473C245.625 190.835 281.111 190.187 287.493 189.538C291.198 180.368 291.587 154.043 292.023 131.913C292.077 128.864 291.037 125.896 289.092 123.547C287.146 121.199 284.423 119.625 281.417 119.112C273.431 117.696 265.285 117.422 257.222 118.297C254.393 118.619 251.752 119.879 249.722 121.877C247.693 123.875 246.39 126.495 246.024 129.32Z" fill="#F5F5F5"/>
<path opacity="0.2" d="M280.445 142.787C280.566 149.531 285.456 160.303 290.959 165.769C291.292 160.072 291.505 153.893 291.672 147.659L280.445 142.787Z" fill="black"/>
<path d="M311.372 155.894L311.057 155.153C309.763 152.063 308.249 149.07 306.528 146.196C304.879 143.417 303.101 140.796 301.257 138.267C299.414 135.738 297.46 133.32 295.459 130.968C294.44 129.8 293.43 128.633 292.365 127.503L290.763 125.817L289.058 124.094C287.273 122.332 284.871 121.333 282.363 121.311C279.854 121.289 277.435 122.244 275.618 123.975C273.802 125.706 272.731 128.076 272.632 130.583C272.534 133.09 273.415 135.537 275.09 137.405L275.368 137.711L280.805 143.76C282.658 145.816 284.427 147.91 286.187 149.994C287.039 151.04 287.919 152.087 288.716 153.152C289.512 154.218 290.355 155.246 291.152 156.302C292.3 157.904 293.412 159.497 294.403 161.063C294.251 161.853 294.06 162.636 293.829 163.406C293.163 165.65 292.381 167.858 291.485 170.02C290.559 172.308 289.577 174.652 288.558 176.958C287.539 179.265 286.446 181.673 285.474 183.989L285.381 184.193C284.954 185.216 284.889 186.355 285.197 187.42C285.505 188.486 286.167 189.414 287.074 190.052C287.981 190.69 289.079 191 290.186 190.93C291.293 190.86 292.342 190.414 293.162 189.667C295.205 187.773 297.144 185.769 298.969 183.665C300.822 181.583 302.56 179.391 304.184 177.088C305.009 175.93 305.796 174.726 306.574 173.475C307.382 172.204 308.121 170.89 308.788 169.539C309.538 168.065 310.188 166.542 310.733 164.981C311.444 162.982 311.844 160.886 311.919 158.766C311.943 157.781 311.756 156.802 311.372 155.894Z" fill="#FFC3BD"/>
<path d="M282.045 119.231C294.541 121.371 302.683 138.285 302.683 138.285L287.622 154.486C287.622 154.486 278.942 145.649 273.727 137.461C268.105 128.55 273.098 117.712 282.045 119.231Z" fill="#F5F5F5"/>
<path d="M259.221 92.5637C257.128 89.053 256.442 84.227 260.277 79.3084C259.53 79.402 258.772 79.2768 258.094 78.948C257.417 78.6192 256.85 78.1008 256.461 77.4558C260.66 74.0203 265.94 72.1826 271.365 72.2685C282.573 72.2685 283.406 76.5943 283.027 79.5492C290.696 80.0401 296.291 99.9833 276.848 103.512C265.724 91.7948 259.221 92.5637 259.221 92.5637Z" fill="#263238"/>
<path d="M282.322 79.909C282.322 79.909 285.444 76.7225 281.562 72.8691C282.433 73.1077 283.226 73.5676 283.866 74.2039C284.505 74.8403 284.969 75.6314 285.212 76.5002C285.759 78.7419 284.249 80.5389 282.322 79.909Z" fill="#263238"/>
<path d="M278.027 101.076C277.73 107.218 277.175 114.202 278.203 119.102C276.61 121.612 272.534 124.502 265.235 125.151C262.641 123.678 259.214 120.075 260.409 118.222C263.512 116.23 264.827 110.2 263.938 105.689L278.027 101.076Z" fill="#FFC3BD"/>
<path opacity="0.2" d="M274.472 102.234L263.922 105.689C264.281 107.611 264.296 109.58 263.968 111.507C267.118 111.405 271.48 109.033 273.12 106.81C273.654 106.185 274.05 105.455 274.283 104.666C274.516 103.878 274.581 103.049 274.472 102.234Z" fill="black"/>
<path d="M281.101 91.3503C279.147 98.8811 278.387 103.392 273.775 106.551C266.837 111.303 258.111 105.977 257.769 98.0196C257.472 90.8501 260.714 79.7346 268.773 78.1506C270.547 77.7947 272.383 77.8985 274.106 78.4519C275.829 79.0054 277.382 79.9902 278.617 81.3128C279.853 82.6354 280.729 84.2518 281.164 86.0086C281.599 87.7654 281.577 89.6042 281.101 91.3503Z" fill="#FFC3BD"/>
<path d="M279.543 80.5684C276.236 82.9212 272.133 92.8881 280.469 96.8897C287.954 90.313 286.018 80.5684 279.543 80.5684Z" fill="#263238"/>
<path d="M281.453 81.7633C282.87 75.2052 266.318 71.8149 261.075 79.4754C259.296 84.0883 280.453 88.164 281.453 81.7633Z" fill="#263238"/>
<path d="M269.102 99.3431C267.382 98.5655 265.538 98.0982 263.656 97.9629C263.629 97.9629 263.603 97.9682 263.579 97.9785C263.555 97.9889 263.533 98.004 263.515 98.0231C263.497 98.0422 263.482 98.0647 263.473 98.0894C263.464 98.1141 263.46 98.1404 263.461 98.1667C263.472 98.2266 263.502 98.2812 263.547 98.3215C263.593 98.3619 263.651 98.3857 263.711 98.389C265.516 98.5194 267.284 98.9646 268.935 99.7043C268.987 99.7271 269.046 99.7292 269.099 99.7103C269.153 99.6914 269.197 99.6528 269.223 99.6024C269.233 99.5776 269.238 99.5509 269.237 99.5241C269.237 99.4972 269.231 99.4707 269.219 99.4464C269.208 99.422 269.192 99.4003 269.172 99.3825C269.151 99.3647 269.128 99.3513 269.102 99.3431Z" fill="#263238"/>
<path d="M282.905 99.585C281.563 101.01 279.711 101.846 277.755 101.91C275.161 101.966 274.504 99.4924 275.754 97.3804C276.884 95.5279 279.589 93.1565 281.942 94.1014C284.295 95.0462 284.535 97.8158 282.905 99.585Z" fill="#FFC3BD"/>
<path d="M289.847 183.722L281.891 183.666L286.003 192.799C286.003 192.799 292.793 191.345 292.422 187.658L289.847 183.722Z" fill="#FFC3BD"/>
<path d="M277.837 189.937L279.143 192.512C279.494 193.198 280.088 193.728 280.809 193.998C281.53 194.269 282.327 194.261 283.042 193.976L285.997 192.799L281.884 183.666L278.726 186.074C278.147 186.511 277.741 187.138 277.579 187.844C277.416 188.55 277.507 189.291 277.837 189.937Z" fill="#FFC3BD"/>
<path d="M229.269 176.995C228.308 176.985 227.37 176.695 226.572 176.16C225.773 175.625 225.148 174.868 224.773 173.983C224.399 173.098 224.291 172.122 224.462 171.177C224.634 170.231 225.078 169.356 225.74 168.659C229.278 165.009 232.474 162.175 235.29 159.701C242.089 153.708 244.432 151.365 244.21 146.872C243.877 144.1 243.288 141.365 242.45 138.702C240.421 131.246 238.124 122.807 242.061 116.036C244.173 112.395 247.757 109.904 252.722 108.625C253.978 108.327 255.3 108.534 256.404 109.2C257.509 109.866 258.309 110.939 258.631 112.188C258.954 113.437 258.774 114.763 258.13 115.881C257.486 116.998 256.429 117.819 255.186 118.166C251.694 119.093 250.851 120.51 250.555 120.991C248.702 124.187 250.49 130.801 251.935 136.109C252.981 139.456 253.683 142.901 254.028 146.39C254.491 155.885 248.888 160.831 241.783 167.093C239.106 169.464 236.059 172.151 232.78 175.522C232.322 175.99 231.776 176.361 231.173 176.614C230.57 176.867 229.923 176.996 229.269 176.995Z" fill="#026FCE"/>
<path d="M240.078 106.227L247.785 104.254L245.988 114.11C245.988 114.11 239.05 114.323 238.531 110.664L240.078 106.227Z" fill="#FFC3BD"/>
<path d="M253.199 109.478L252.606 112.053C252.424 112.84 251.954 113.53 251.289 113.988C250.624 114.445 249.812 114.638 249.012 114.527L245.992 114.11L247.789 104.254L251.328 105.782C252.023 106.082 252.591 106.616 252.933 107.291C253.275 107.967 253.369 108.741 253.199 109.478Z" fill="#FFC3BD"/>
<path d="M226.516 160.787L226.306 160.577C225.369 159.64 223.85 159.641 222.913 160.578L195.599 187.902C194.662 188.839 194.662 190.358 195.6 191.295L195.809 191.504C196.746 192.441 198.265 192.441 199.202 191.504L226.516 164.179C227.453 163.242 227.453 161.723 226.516 160.787Z" fill="#263238"/>
<path d="M240.758 175.006L240.548 174.796C239.611 173.859 238.092 173.859 237.155 174.796L209.836 202.116C208.899 203.053 208.899 204.572 209.836 205.509L210.046 205.718C210.983 206.655 212.502 206.655 213.438 205.718L240.758 178.398C241.694 177.462 241.694 175.943 240.758 175.006Z" fill="#263238"/>
<path d="M204.219 170.959L223.469 151.709C224.085 151.092 224.817 150.603 225.623 150.269C226.429 149.935 227.293 149.764 228.165 149.764C229.037 149.764 229.901 149.935 230.706 150.269C231.512 150.603 232.244 151.092 232.861 151.709L249.687 168.536C250.304 169.152 250.793 169.884 251.127 170.69C251.461 171.496 251.632 172.36 251.632 173.232C251.632 174.104 251.461 174.968 251.127 175.773C250.793 176.579 250.304 177.311 249.687 177.928L230.437 197.178L204.219 170.959Z" fill="#026FCE"/>
<path opacity="0.7" d="M204.219 170.959L223.469 151.709C224.085 151.092 224.817 150.603 225.623 150.269C226.429 149.935 227.293 149.764 228.165 149.764C229.037 149.764 229.901 149.935 230.706 150.269C231.512 150.603 232.244 151.092 232.861 151.709L249.687 168.536C250.304 169.152 250.793 169.884 251.127 170.69C251.461 171.496 251.632 172.36 251.632 173.232C251.632 174.104 251.461 174.968 251.127 175.773C250.793 176.579 250.304 177.311 249.687 177.928L230.437 197.178L204.219 170.959Z" fill="white"/>
<path opacity="0.2" d="M210.857 164.268L204.188 170.928L230.41 197.151L237.07 190.482C236.805 189.706 236.365 189.002 235.783 188.425L212.913 165.601C212.341 165.003 211.637 164.546 210.857 164.268Z" fill="#026FCE"/>
<path d="M203.065 167.569L202.587 168.047C200.554 170.08 200.554 173.377 202.587 175.41L225.937 198.76C227.97 200.793 231.266 200.793 233.299 198.76L233.777 198.282C235.81 196.249 235.81 192.953 233.777 190.92L210.427 167.569C208.394 165.536 205.098 165.536 203.065 167.569Z" fill="#026FCE"/>
<path d="M275.326 0.722656H68.7289C64.4215 0.722656 60.9297 4.21457 60.9297 8.52207V46.2038C60.9297 50.5113 64.4215 54.0032 68.7289 54.0032H275.326C279.633 54.0032 283.125 50.5113 283.125 46.2038V8.52207C283.125 4.21457 279.633 0.722656 275.326 0.722656Z" fill="#FF373F"/>
<path d="M275.045 54.6515H68.4847C66.2352 54.649 64.0785 53.7543 62.4878 52.1636C60.8972 50.5729 60.0025 48.4162 60 46.1666V8.48487C60.0025 6.2353 60.8972 4.07856 62.4878 2.48787C64.0785 0.897178 66.2352 0.00245186 68.4847 0H275.045C277.294 0.00245186 279.451 0.897178 281.041 2.48787C282.632 4.07856 283.527 6.2353 283.529 8.48487V46.1666C283.527 48.4162 282.632 50.5729 281.041 52.1636C279.451 53.7543 277.294 54.649 275.045 54.6515ZM68.4847 1.37092C66.5988 1.37337 64.7908 2.12366 63.4572 3.45725C62.1236 4.79085 61.3733 6.59889 61.3709 8.48487V46.1666C61.3733 48.0526 62.1236 49.8606 63.4572 51.1942C64.7908 52.5278 66.5988 53.2781 68.4847 53.2805H275.045C276.93 53.2781 278.739 52.5278 280.072 51.1942C281.406 49.8606 282.156 48.0526 282.158 46.1666V8.48487C282.156 6.59889 281.406 4.79085 280.072 3.45725C278.739 2.12366 276.93 1.37337 275.045 1.37092H68.4847Z" fill="#263238"/>
<path d="M171.751 81.3392C181.236 81.3392 188.924 73.6504 188.924 64.1657C188.924 54.681 181.236 46.9922 171.751 46.9922C162.267 46.9922 154.578 54.681 154.578 64.1657C154.578 73.6504 162.267 81.3392 171.751 81.3392Z" fill="#263238"/>
<path d="M171.749 78.7808C179.822 78.7808 186.366 72.2365 186.366 64.1638C186.366 56.0911 179.822 49.5469 171.749 49.5469C163.677 49.5469 157.133 56.0911 157.133 64.1638C157.133 72.2365 163.677 78.7808 171.749 78.7808Z" fill="#FF373F"/>
<path d="M182.214 76.6725L184.258 74.6289L161.275 51.6453L159.231 53.6889L182.214 76.6725Z" fill="#263238"/>
<path d="M109.957 20.679C109.957 20.7823 109.916 20.8753 109.833 20.958C109.771 21.02 109.688 21.051 109.585 21.051H99.417C99.3137 21.051 99.262 21.1027 99.262 21.206V26.011C99.262 26.1143 99.3137 26.166 99.417 26.166H106.082C106.185 26.166 106.268 26.2073 106.33 26.29C106.413 26.352 106.454 26.4347 106.454 26.538V29.545C106.454 29.6483 106.413 29.7413 106.33 29.824C106.268 29.886 106.185 29.917 106.082 29.917H99.417C99.3137 29.917 99.262 29.9687 99.262 30.072V35.094C99.262 35.1973 99.3137 35.249 99.417 35.249H109.585C109.688 35.249 109.771 35.2903 109.833 35.373C109.916 35.435 109.957 35.5177 109.957 35.621V38.628C109.957 38.7313 109.916 38.8243 109.833 38.907C109.771 38.969 109.688 39 109.585 39H95.263C95.1597 39 95.0667 38.969 94.984 38.907C94.922 38.8243 94.891 38.7313 94.891 38.628V17.672C94.891 17.5687 94.922 17.486 94.984 17.424C95.0667 17.3413 95.1597 17.3 95.263 17.3H109.585C109.688 17.3 109.771 17.3413 109.833 17.424C109.916 17.486 109.957 17.5687 109.957 17.672V20.679ZM124.899 39C124.692 39 124.547 38.907 124.465 38.721L120.59 30.134C120.548 30.0513 120.486 30.01 120.404 30.01H117.521C117.417 30.01 117.366 30.0617 117.366 30.165V38.628C117.366 38.7313 117.324 38.8243 117.242 38.907C117.18 38.969 117.097 39 116.994 39H113.367C113.263 39 113.17 38.969 113.088 38.907C113.026 38.8243 112.995 38.7313 112.995 38.628V17.672C112.995 17.5687 113.026 17.486 113.088 17.424C113.17 17.3413 113.263 17.3 113.367 17.3H122.233C123.555 17.3 124.713 17.5687 125.705 18.106C126.717 18.6433 127.492 19.408 128.03 20.4C128.588 21.392 128.867 22.539 128.867 23.841C128.867 25.2463 128.515 26.4553 127.813 27.468C127.11 28.46 126.128 29.1627 124.868 29.576C124.764 29.6173 124.733 29.6897 124.775 29.793L128.991 38.566C129.032 38.6487 129.053 38.7107 129.053 38.752C129.053 38.9173 128.939 39 128.712 39H124.899ZM117.521 21.051C117.417 21.051 117.366 21.1027 117.366 21.206V26.507C117.366 26.6103 117.417 26.662 117.521 26.662H121.582C122.45 26.662 123.152 26.4037 123.69 25.887C124.248 25.3703 124.527 24.6987 124.527 23.872C124.527 23.0453 124.248 22.3737 123.69 21.857C123.152 21.3197 122.45 21.051 121.582 21.051H117.521ZM143.941 39C143.734 39 143.589 38.907 143.507 38.721L139.632 30.134C139.59 30.0513 139.528 30.01 139.446 30.01H136.563C136.459 30.01 136.408 30.0617 136.408 30.165V38.628C136.408 38.7313 136.366 38.8243 136.284 38.907C136.222 38.969 136.139 39 136.036 39H132.409C132.305 39 132.212 38.969 132.13 38.907C132.068 38.8243 132.037 38.7313 132.037 38.628V17.672C132.037 17.5687 132.068 17.486 132.13 17.424C132.212 17.3413 132.305 17.3 132.409 17.3H141.275C142.597 17.3 143.755 17.5687 144.747 18.106C145.759 18.6433 146.534 19.408 147.072 20.4C147.63 21.392 147.909 22.539 147.909 23.841C147.909 25.2463 147.557 26.4553 146.855 27.468C146.152 28.46 145.17 29.1627 143.91 29.576C143.806 29.6173 143.775 29.6897 143.817 29.793L148.033 38.566C148.074 38.6487 148.095 38.7107 148.095 38.752C148.095 38.9173 147.981 39 147.754 39H143.941ZM136.563 21.051C136.459 21.051 136.408 21.1027 136.408 21.206V26.507C136.408 26.6103 136.459 26.662 136.563 26.662H140.624C141.492 26.662 142.194 26.4037 142.732 25.887C143.29 25.3703 143.569 24.6987 143.569 23.872C143.569 23.0453 143.29 22.3737 142.732 21.857C142.194 21.3197 141.492 21.051 140.624 21.051H136.563ZM158.798 39.341C157.186 39.341 155.76 39.0103 154.52 38.349C153.3 37.6877 152.35 36.768 151.668 35.59C150.986 34.3913 150.645 33.017 150.645 31.467V24.833C150.645 23.3037 150.986 21.95 151.668 20.772C152.35 19.594 153.3 18.6847 154.52 18.044C155.76 17.3827 157.186 17.052 158.798 17.052C160.43 17.052 161.856 17.3827 163.076 18.044C164.316 18.6847 165.277 19.594 165.959 20.772C166.641 21.95 166.982 23.3037 166.982 24.833V31.467C166.982 33.017 166.641 34.3913 165.959 35.59C165.277 36.7887 164.316 37.7187 163.076 38.38C161.856 39.0207 160.43 39.341 158.798 39.341ZM158.798 35.59C159.934 35.59 160.854 35.2283 161.557 34.505C162.259 33.7817 162.611 32.8207 162.611 31.622V24.802C162.611 23.6033 162.259 22.6423 161.557 21.919C160.875 21.175 159.955 20.803 158.798 20.803C157.661 20.803 156.741 21.175 156.039 21.919C155.357 22.6423 155.016 23.6033 155.016 24.802V31.622C155.016 32.8207 155.357 33.7817 156.039 34.505C156.741 35.2283 157.661 35.59 158.798 35.59ZM182.236 39C182.03 39 181.885 38.907 181.802 38.721L177.927 30.134C177.886 30.0513 177.824 30.01 177.741 30.01H174.858C174.755 30.01 174.703 30.0617 174.703 30.165V38.628C174.703 38.7313 174.662 38.8243 174.579 38.907C174.517 38.969 174.435 39 174.331 39H170.704C170.601 39 170.508 38.969 170.425 38.907C170.363 38.8243 170.332 38.7313 170.332 38.628V17.672C170.332 17.5687 170.363 17.486 170.425 17.424C170.508 17.3413 170.601 17.3 170.704 17.3H179.57C180.893 17.3 182.05 17.5687 183.042 18.106C184.055 18.6433 184.83 19.408 185.367 20.4C185.925 21.392 186.204 22.539 186.204 23.841C186.204 25.2463 185.853 26.4553 185.15 27.468C184.448 28.46 183.466 29.1627 182.205 29.576C182.102 29.6173 182.071 29.6897 182.112 29.793L186.328 38.566C186.37 38.6487 186.39 38.7107 186.39 38.752C186.39 38.9173 186.277 39 186.049 39H182.236ZM174.858 21.051C174.755 21.051 174.703 21.1027 174.703 21.206V26.507C174.703 26.6103 174.755 26.662 174.858 26.662H178.919C179.787 26.662 180.49 26.4037 181.027 25.887C181.585 25.3703 181.864 24.6987 181.864 23.872C181.864 23.0453 181.585 22.3737 181.027 21.857C180.49 21.3197 179.787 21.051 178.919 21.051H174.858ZM210.615 29.545C210.719 29.545 210.801 29.5863 210.863 29.669C210.946 29.731 210.987 29.8137 210.987 29.917V33.048C210.987 33.1513 210.946 33.2443 210.863 33.327C210.801 33.389 210.719 33.42 210.615 33.42H209.282C209.179 33.42 209.127 33.4717 209.127 33.575V38.628C209.127 38.7313 209.086 38.8243 209.003 38.907C208.941 38.969 208.859 39 208.755 39H205.128C205.025 39 204.932 38.969 204.849 38.907C204.787 38.8243 204.756 38.7313 204.756 38.628V33.575C204.756 33.4717 204.705 33.42 204.601 33.42H195.084C194.981 33.42 194.888 33.389 194.805 33.327C194.743 33.2443 194.712 33.1513 194.712 33.048V30.568C194.712 30.444 194.743 30.289 194.805 30.103L200.385 17.579C200.468 17.393 200.613 17.3 200.819 17.3H204.694C204.839 17.3 204.932 17.3413 204.973 17.424C205.035 17.486 205.035 17.5893 204.973 17.734L199.796 29.359C199.776 29.4003 199.776 29.4417 199.796 29.483C199.817 29.5243 199.848 29.545 199.889 29.545H204.601C204.705 29.545 204.756 29.4933 204.756 29.39V25.546C204.756 25.4427 204.787 25.36 204.849 25.298C204.932 25.2153 205.025 25.174 205.128 25.174H208.755C208.859 25.174 208.941 25.2153 209.003 25.298C209.086 25.36 209.127 25.4427 209.127 25.546V29.39C209.127 29.4933 209.179 29.545 209.282 29.545H210.615ZM221.263 39.341C218.99 39.341 217.192 38.7107 215.869 37.45C214.546 36.1687 213.885 34.4327 213.885 32.242V24.058C213.885 21.9087 214.546 20.2037 215.869 18.943C217.192 17.6823 218.99 17.052 221.263 17.052C223.536 17.052 225.334 17.6823 226.657 18.943C228 20.2037 228.672 21.9087 228.672 24.058V32.242C228.672 34.4327 228 36.1687 226.657 37.45C225.334 38.7107 223.536 39.341 221.263 39.341ZM221.263 35.59C222.193 35.59 222.927 35.311 223.464 34.753C224.022 34.1743 224.301 33.4097 224.301 32.459V23.934C224.301 22.9833 224.022 22.229 223.464 21.671C222.927 21.0923 222.193 20.803 221.263 20.803C220.354 20.803 219.62 21.0923 219.062 21.671C218.525 22.229 218.256 22.9833 218.256 23.934V32.459C218.256 33.4097 218.525 34.1743 219.062 34.753C219.62 35.311 220.354 35.59 221.263 35.59ZM247.065 29.545C247.168 29.545 247.251 29.5863 247.313 29.669C247.395 29.731 247.437 29.8137 247.437 29.917V33.048C247.437 33.1513 247.395 33.2443 247.313 33.327C247.251 33.389 247.168 33.42 247.065 33.42H245.732C245.628 33.42 245.577 33.4717 245.577 33.575V38.628C245.577 38.7313 245.535 38.8243 245.453 38.907C245.391 38.969 245.308 39 245.205 39H241.578C241.474 39 241.381 38.969 241.299 38.907C241.237 38.8243 241.206 38.7313 241.206 38.628V33.575C241.206 33.4717 241.154 33.42 241.051 33.42H231.534C231.43 33.42 231.337 33.389 231.255 33.327C231.193 33.2443 231.162 33.1513 231.162 33.048V30.568C231.162 30.444 231.193 30.289 231.255 30.103L236.835 17.579C236.917 17.393 237.062 17.3 237.269 17.3H241.144C241.288 17.3 241.381 17.3413 241.423 17.424C241.485 17.486 241.485 17.5893 241.423 17.734L236.246 29.359C236.225 29.4003 236.225 29.4417 236.246 29.483C236.266 29.5243 236.297 29.545 236.339 29.545H241.051C241.154 29.545 241.206 29.4933 241.206 29.39V25.546C241.206 25.4427 241.237 25.36 241.299 25.298C241.381 25.2153 241.474 25.174 241.578 25.174H245.205C245.308 25.174 245.391 25.2153 245.453 25.298C245.535 25.36 245.577 25.4427 245.577 25.546V29.39C245.577 29.4933 245.628 29.545 245.732 29.545H247.065Z" fill="white"/>
</svg>
