<svg width="360" height="360" viewBox="0 0 360 360" fill="none" xmlns="http://www.w3.org/2000/svg">
<path d="M179.502 353C274.772 353 352.003 275.769 352.003 180.5C352.003 85.2306 274.772 8 179.502 8C84.2316 8 7 85.2306 7 180.5C7 275.769 84.2316 353 179.502 353Z" fill="#E5F3FF"/>
<path d="M300.528 51.8613H319.594V43.8045H300.528V51.8613Z" stroke="#616161" stroke-width="0.75" stroke-miterlimit="10"/>
<path d="M311.169 41.7031H330.234V33.6463H311.169V41.7031Z" stroke="#616161" stroke-width="0.75" stroke-miterlimit="10"/>
<path d="M179.997 131.154H199.062V123.097H179.997V131.154Z" stroke="#616161" stroke-width="0.75" stroke-miterlimit="10"/>
<path d="M190.63 120.996H209.695V112.939H190.63V120.996Z" stroke="#616161" stroke-width="0.75" stroke-miterlimit="10"/>
<path d="M201.223 131.154H220.289V123.097H201.223V131.154Z" stroke="#616161" stroke-width="0.75" stroke-miterlimit="10"/>
<path d="M29.7625 41.7031H48.8281V33.6463H29.7625V41.7031Z" stroke="#616161" stroke-width="0.75" stroke-miterlimit="10"/>
<path d="M40.4032 231.148H59.4688V223.092H40.4032V231.148Z" stroke="#616161" stroke-width="0.75" stroke-miterlimit="10"/>
<path d="M29.7625 220.99H48.8281V212.933H29.7625V220.99Z" stroke="#616161" stroke-width="0.75" stroke-miterlimit="10"/>
<path d="M300.528 231.148H319.594V223.092H300.528V231.148Z" stroke="#616161" stroke-width="0.75" stroke-miterlimit="10"/>
<path d="M150.344 303.508V213.033L169.589 186.76V137.562" stroke="#616161" stroke-miterlimit="10"/>
<path d="M167.883 135.885C167.883 136.225 167.984 136.556 168.172 136.838C168.361 137.12 168.629 137.34 168.942 137.469C169.256 137.599 169.601 137.632 169.933 137.566C170.266 137.499 170.571 137.335 170.811 137.095C171.05 136.854 171.213 136.548 171.278 136.215C171.343 135.882 171.308 135.538 171.178 135.225C171.047 134.912 170.826 134.645 170.543 134.457C170.26 134.27 169.928 134.17 169.589 134.172C169.365 134.172 169.142 134.216 168.935 134.302C168.727 134.389 168.539 134.515 168.38 134.674C168.222 134.833 168.096 135.022 168.011 135.23C167.925 135.438 167.882 135.661 167.883 135.885Z" stroke="#616161" stroke-miterlimit="10"/>
<path d="M155.305 303.508V216.208L174.55 189.935V155.562" stroke="#616161" stroke-miterlimit="10"/>
<path d="M172.844 153.878C172.842 154.217 172.942 154.55 173.129 154.832C173.316 155.115 173.584 155.336 173.897 155.467C174.21 155.597 174.554 155.632 174.887 155.567C175.22 155.502 175.526 155.339 175.766 155.1C176.007 154.86 176.171 154.555 176.237 154.222C176.304 153.89 176.271 153.545 176.141 153.231C176.012 152.918 175.792 152.65 175.51 152.461C175.228 152.273 174.897 152.172 174.557 152.172C174.104 152.172 173.669 152.351 173.348 152.671C173.027 152.991 172.846 153.425 172.844 153.878Z" stroke="#616161" stroke-miterlimit="10"/>
<path d="M145.57 303.509V183.693" stroke="#616161" stroke-miterlimit="10"/>
<path d="M143.859 181.98C143.858 182.319 143.957 182.651 144.145 182.934C144.332 183.217 144.599 183.437 144.912 183.568C145.225 183.699 145.57 183.734 145.903 183.669C146.236 183.603 146.542 183.441 146.782 183.201C147.022 182.962 147.186 182.657 147.253 182.324C147.32 181.991 147.286 181.646 147.157 181.333C147.027 181.019 146.808 180.751 146.526 180.563C146.244 180.374 145.912 180.273 145.573 180.273C145.12 180.273 144.685 180.453 144.364 180.773C144.043 181.093 143.861 181.527 143.859 181.98Z" stroke="#616161" stroke-miterlimit="10"/>
<path d="M140.975 303.51V242.612L127.914 217.974V173.787" stroke="#616161" stroke-miterlimit="10"/>
<path d="M126.195 172.081C126.195 172.42 126.296 172.751 126.484 173.033C126.672 173.315 126.94 173.534 127.253 173.664C127.566 173.794 127.911 173.828 128.243 173.761C128.576 173.695 128.881 173.532 129.121 173.292C129.36 173.053 129.523 172.748 129.59 172.415C129.656 172.083 129.622 171.738 129.492 171.425C129.362 171.112 129.143 170.844 128.861 170.656C128.579 170.468 128.248 170.367 127.909 170.367C127.684 170.366 127.46 170.41 127.252 170.496C127.044 170.581 126.854 170.708 126.695 170.867C126.536 171.026 126.41 171.216 126.324 171.424C126.238 171.632 126.194 171.856 126.195 172.081Z" stroke="#616161" stroke-miterlimit="10"/>
<path d="M136.401 303.509V245.246L121 218.001V188.906" stroke="#616161" stroke-miterlimit="10"/>
<path d="M119.289 187.201C119.288 187.54 119.387 187.872 119.574 188.155C119.762 188.437 120.029 188.658 120.342 188.789C120.655 188.92 121 188.955 121.333 188.889C121.665 188.824 121.971 188.661 122.212 188.422C122.452 188.183 122.616 187.877 122.683 187.545C122.75 187.212 122.716 186.867 122.587 186.554C122.457 186.24 122.237 185.972 121.955 185.783C121.673 185.595 121.342 185.494 121.003 185.494C120.55 185.496 120.116 185.676 119.796 185.996C119.475 186.315 119.293 186.748 119.289 187.201Z" stroke="#616161" stroke-miterlimit="10"/>
<path d="M79.7188 27.0432V0" stroke="#C7C7C7" stroke-miterlimit="10"/>
<path d="M96.423 43.1422L95.0766 46.1014H64.347L63.0078 43.1422L76.0902 34.0918H83.3406L96.423 43.1422Z" fill="#616161"/>
<path d="M84.2523 25.3652L83.3451 34.0916H76.0947L75.1875 25.3652H84.2523Z" fill="#DBDBDB"/>
<path d="M96.423 43.1504L95.0766 46.1024H64.347L63.0078 43.1504H96.423Z" fill="#DBDBDB"/>
<path d="M146.578 27.0432V0" stroke="#C7C7C7" stroke-miterlimit="10"/>
<path d="M163.282 43.1422L161.936 46.1014H131.206L129.867 43.1422L142.95 34.0918H150.2L163.282 43.1422Z" fill="#616161"/>
<path d="M151.104 25.3652L150.197 34.0916H142.946L142.039 25.3652H151.104Z" fill="#DBDBDB"/>
<path d="M163.282 43.1504L161.936 46.1024H131.206L129.867 43.1504H163.282Z" fill="#DBDBDB"/>
<path d="M213.43 27.0432V0" stroke="#C7C7C7" stroke-miterlimit="10"/>
<path d="M230.134 43.1422L228.795 46.1014H198.058L196.719 43.1422L209.801 34.0918H217.052L230.134 43.1422Z" fill="#616161"/>
<path d="M217.955 25.3652L217.048 34.0916H209.798L208.891 25.3652H217.955Z" fill="#DBDBDB"/>
<path d="M230.134 43.1504L228.788 46.1024H198.058L196.719 43.1504H230.134Z" fill="#DBDBDB"/>
<path d="M280.281 27.0432V0" stroke="#C7C7C7" stroke-miterlimit="10"/>
<path d="M296.993 43.1422L295.646 46.1014H264.91L263.57 43.1422L276.66 34.0918H283.903L296.993 43.1422Z" fill="#616161"/>
<path d="M284.807 25.3652L283.9 34.0916H276.657L275.742 25.3652H284.807Z" fill="#DBDBDB"/>
<path d="M296.986 43.1504L295.646 46.1024H264.91L263.57 43.1504H296.986Z" fill="#DBDBDB"/>
<path d="M239.322 127.023H192.508V303.546H239.322V127.023Z" fill="#37474F"/>
<path d="M325.475 127.023H239.32V303.546H325.475V127.023Z" fill="#455A64"/>
<path d="M320.1 280.65H245.789V297.815H320.1V280.65Z" fill="#37474F"/>
<path d="M291.214 283.486H248.914V284.934H291.214V283.486Z" fill="#455A64"/>
<path d="M291.214 286H248.914V287.447H291.214V286Z" fill="#455A64"/>
<path d="M291.214 288.512H248.914V289.959H291.214V288.512Z" fill="#455A64"/>
<path d="M291.214 291.018H248.914V292.465H291.214V291.018Z" fill="#455A64"/>
<path d="M291.214 293.531H248.914V294.978H291.214V293.531Z" fill="#455A64"/>
<path d="M298.927 284.926C298.927 285.211 298.842 285.49 298.684 285.726C298.526 285.963 298.301 286.148 298.038 286.257C297.775 286.366 297.485 286.394 297.206 286.339C296.927 286.283 296.67 286.146 296.469 285.945C296.267 285.743 296.13 285.487 296.075 285.207C296.019 284.928 296.047 284.638 296.156 284.375C296.265 284.112 296.45 283.887 296.687 283.729C296.924 283.571 297.202 283.486 297.487 283.486C297.869 283.486 298.235 283.638 298.505 283.908C298.775 284.178 298.927 284.544 298.927 284.926Z" fill="#FF373F"/>
<path d="M303.661 284.926C303.661 285.211 303.577 285.49 303.419 285.726C303.26 285.963 303.035 286.148 302.772 286.257C302.509 286.366 302.22 286.394 301.94 286.339C301.661 286.283 301.404 286.146 301.203 285.945C301.002 285.743 300.864 285.487 300.809 285.207C300.753 284.928 300.782 284.638 300.891 284.375C301 284.112 301.184 283.887 301.421 283.729C301.658 283.571 301.936 283.486 302.221 283.486C302.603 283.486 302.969 283.638 303.239 283.908C303.51 284.178 303.661 284.544 303.661 284.926Z" fill="#FF373F"/>
<path d="M308.396 284.926C308.396 285.211 308.311 285.49 308.153 285.726C307.995 285.963 307.77 286.148 307.507 286.257C307.244 286.366 306.954 286.394 306.675 286.339C306.395 286.283 306.139 286.146 305.937 285.945C305.736 285.743 305.599 285.487 305.543 285.207C305.488 284.928 305.516 284.638 305.625 284.375C305.734 284.112 305.919 283.887 306.156 283.729C306.392 283.571 306.671 283.486 306.956 283.486C307.338 283.486 307.704 283.638 307.974 283.908C308.244 284.178 308.396 284.544 308.396 284.926Z" fill="#FF373F"/>
<path d="M313.13 284.926C313.13 285.211 313.046 285.49 312.887 285.726C312.729 285.963 312.504 286.148 312.241 286.257C311.978 286.366 311.688 286.394 311.409 286.339C311.13 286.283 310.873 286.146 310.672 285.945C310.47 285.743 310.333 285.487 310.278 285.207C310.222 284.928 310.251 284.638 310.36 284.375C310.469 284.112 310.653 283.887 310.89 283.729C311.127 283.571 311.405 283.486 311.69 283.486C312.072 283.486 312.438 283.638 312.708 283.908C312.978 284.178 313.13 284.544 313.13 284.926Z" fill="#FF373F"/>
<path d="M317.864 284.926C317.864 285.211 317.78 285.49 317.622 285.726C317.463 285.963 317.239 286.148 316.975 286.257C316.712 286.366 316.423 286.394 316.143 286.339C315.864 286.283 315.608 286.146 315.406 285.945C315.205 285.743 315.068 285.487 315.012 285.207C314.956 284.928 314.985 284.638 315.094 284.375C315.203 284.112 315.388 283.887 315.624 283.729C315.861 283.571 316.14 283.486 316.424 283.486C316.806 283.486 317.173 283.638 317.443 283.908C317.713 284.178 317.864 284.544 317.864 284.926Z" fill="#FF373F"/>
<path d="M298.927 289.233C298.927 289.518 298.842 289.796 298.684 290.033C298.526 290.27 298.301 290.454 298.038 290.563C297.775 290.672 297.485 290.701 297.206 290.645C296.927 290.59 296.67 290.453 296.469 290.251C296.267 290.05 296.13 289.793 296.075 289.514C296.019 289.235 296.047 288.945 296.156 288.682C296.265 288.419 296.45 288.194 296.687 288.036C296.924 287.877 297.202 287.793 297.487 287.793C297.869 287.793 298.235 287.945 298.505 288.215C298.775 288.485 298.927 288.851 298.927 289.233Z" fill="#FF373F"/>
<path d="M303.661 289.233C303.661 289.518 303.577 289.796 303.419 290.033C303.26 290.27 303.035 290.454 302.772 290.563C302.509 290.672 302.22 290.701 301.94 290.645C301.661 290.59 301.404 290.453 301.203 290.251C301.002 290.05 300.864 289.793 300.809 289.514C300.753 289.235 300.782 288.945 300.891 288.682C301 288.419 301.184 288.194 301.421 288.036C301.658 287.877 301.936 287.793 302.221 287.793C302.603 287.793 302.969 287.945 303.239 288.215C303.51 288.485 303.661 288.851 303.661 289.233Z" fill="#FF373F"/>
<path d="M308.396 289.233C308.396 289.518 308.311 289.796 308.153 290.033C307.995 290.27 307.77 290.454 307.507 290.563C307.244 290.672 306.954 290.701 306.675 290.645C306.395 290.59 306.139 290.453 305.937 290.251C305.736 290.05 305.599 289.793 305.543 289.514C305.488 289.235 305.516 288.945 305.625 288.682C305.734 288.419 305.919 288.194 306.156 288.036C306.392 287.877 306.671 287.793 306.956 287.793C307.338 287.793 307.704 287.945 307.974 288.215C308.244 288.485 308.396 288.851 308.396 289.233Z" fill="#FF373F"/>
<path d="M313.13 289.233C313.13 289.518 313.046 289.796 312.887 290.033C312.729 290.27 312.504 290.454 312.241 290.563C311.978 290.672 311.688 290.701 311.409 290.645C311.13 290.59 310.873 290.453 310.672 290.251C310.47 290.05 310.333 289.793 310.278 289.514C310.222 289.235 310.251 288.945 310.36 288.682C310.469 288.419 310.653 288.194 310.89 288.036C311.127 287.877 311.405 287.793 311.69 287.793C312.072 287.793 312.438 287.945 312.708 288.215C312.978 288.485 313.13 288.851 313.13 289.233Z" fill="#FF373F"/>
<path d="M317.864 289.233C317.864 289.518 317.78 289.796 317.622 290.033C317.463 290.27 317.239 290.454 316.975 290.563C316.712 290.672 316.423 290.701 316.143 290.645C315.864 290.59 315.608 290.453 315.406 290.251C315.205 290.05 315.068 289.793 315.012 289.514C314.956 289.235 314.985 288.945 315.094 288.682C315.203 288.419 315.388 288.194 315.624 288.036C315.861 287.877 316.14 287.793 316.424 287.793C316.806 287.793 317.173 287.945 317.443 288.215C317.713 288.485 317.864 288.851 317.864 289.233Z" fill="#FF373F"/>
<path d="M297.495 294.985C298.29 294.985 298.935 294.341 298.935 293.545C298.935 292.75 298.29 292.105 297.495 292.105C296.699 292.105 296.055 292.75 296.055 293.545C296.055 294.341 296.699 294.985 297.495 294.985Z" fill="#FF373F"/>
<path d="M303.661 293.545C303.661 293.83 303.577 294.109 303.419 294.345C303.26 294.582 303.035 294.767 302.772 294.876C302.509 294.985 302.22 295.013 301.94 294.958C301.661 294.902 301.404 294.765 301.203 294.564C301.002 294.362 300.864 294.106 300.809 293.826C300.753 293.547 300.782 293.258 300.891 292.994C301 292.731 301.184 292.506 301.421 292.348C301.658 292.19 301.936 292.105 302.221 292.105C302.603 292.105 302.969 292.257 303.239 292.527C303.51 292.797 303.661 293.164 303.661 293.545Z" fill="#FF373F"/>
<path d="M306.956 294.985C307.751 294.985 308.396 294.341 308.396 293.545C308.396 292.75 307.751 292.105 306.956 292.105C306.16 292.105 305.516 292.75 305.516 293.545C305.516 294.341 306.16 294.985 306.956 294.985Z" fill="#FF373F"/>
<path d="M313.13 293.545C313.13 293.83 313.046 294.109 312.887 294.345C312.729 294.582 312.504 294.767 312.241 294.876C311.978 294.985 311.688 295.013 311.409 294.958C311.13 294.902 310.873 294.765 310.672 294.564C310.47 294.362 310.333 294.106 310.278 293.826C310.222 293.547 310.251 293.258 310.36 292.994C310.469 292.731 310.653 292.506 310.89 292.348C311.127 292.19 311.405 292.105 311.69 292.105C312.072 292.105 312.438 292.257 312.708 292.527C312.978 292.797 313.13 293.164 313.13 293.545Z" fill="#FF373F"/>
<path d="M317.864 293.545C317.864 293.83 317.78 294.109 317.622 294.345C317.463 294.582 317.239 294.767 316.975 294.876C316.712 294.985 316.423 295.013 316.143 294.958C315.864 294.902 315.608 294.765 315.406 294.564C315.205 294.362 315.068 294.106 315.012 293.826C314.956 293.547 314.985 293.258 315.094 292.994C315.203 292.731 315.388 292.506 315.624 292.348C315.861 292.19 316.14 292.105 316.424 292.105C316.806 292.105 317.173 292.257 317.443 292.527C317.713 292.797 317.864 293.164 317.864 293.545Z" fill="#FF373F"/>
<path d="M294.156 283.486H293.328V294.978H294.156V283.486Z" fill="#263238"/>
<path d="M320.1 259.971H245.789V277.135H320.1V259.971Z" fill="#37474F"/>
<path d="M291.214 262.801H248.914V264.248H291.214V262.801Z" fill="#455A64"/>
<path d="M291.214 265.314H248.914V266.762H291.214V265.314Z" fill="#455A64"/>
<path d="M291.214 267.826H248.914V269.273H291.214V267.826Z" fill="#455A64"/>
<path d="M291.214 270.34H248.914V271.787H291.214V270.34Z" fill="#455A64"/>
<path d="M291.214 272.846H248.914V274.293H291.214V272.846Z" fill="#455A64"/>
<path d="M298.927 264.241C298.927 264.526 298.842 264.804 298.684 265.041C298.526 265.278 298.301 265.462 298.038 265.571C297.775 265.68 297.485 265.709 297.206 265.653C296.927 265.598 296.67 265.46 296.469 265.259C296.267 265.058 296.13 264.801 296.075 264.522C296.019 264.242 296.047 263.953 296.156 263.69C296.265 263.427 296.45 263.202 296.687 263.043C296.924 262.885 297.202 262.801 297.487 262.801C297.869 262.801 298.235 262.952 298.505 263.223C298.775 263.493 298.927 263.859 298.927 264.241Z" fill="#FF373F"/>
<path d="M303.661 264.241C303.661 264.526 303.577 264.804 303.419 265.041C303.26 265.278 303.035 265.462 302.772 265.571C302.509 265.68 302.22 265.709 301.94 265.653C301.661 265.598 301.404 265.46 301.203 265.259C301.002 265.058 300.864 264.801 300.809 264.522C300.753 264.242 300.782 263.953 300.891 263.69C301 263.427 301.184 263.202 301.421 263.043C301.658 262.885 301.936 262.801 302.221 262.801C302.603 262.801 302.969 262.952 303.239 263.223C303.51 263.493 303.661 263.859 303.661 264.241Z" fill="#FF373F"/>
<path d="M308.396 264.241C308.396 264.526 308.311 264.804 308.153 265.041C307.995 265.278 307.77 265.462 307.507 265.571C307.244 265.68 306.954 265.709 306.675 265.653C306.395 265.598 306.139 265.46 305.937 265.259C305.736 265.058 305.599 264.801 305.543 264.522C305.488 264.242 305.516 263.953 305.625 263.69C305.734 263.427 305.919 263.202 306.156 263.043C306.392 262.885 306.671 262.801 306.956 262.801C307.338 262.801 307.704 262.952 307.974 263.223C308.244 263.493 308.396 263.859 308.396 264.241Z" fill="#FF373F"/>
<path d="M313.13 264.241C313.13 264.526 313.046 264.804 312.887 265.041C312.729 265.278 312.504 265.462 312.241 265.571C311.978 265.68 311.688 265.709 311.409 265.653C311.13 265.598 310.873 265.46 310.672 265.259C310.47 265.058 310.333 264.801 310.278 264.522C310.222 264.242 310.251 263.953 310.36 263.69C310.469 263.427 310.653 263.202 310.89 263.043C311.127 262.885 311.405 262.801 311.69 262.801C312.072 262.801 312.438 262.952 312.708 263.223C312.978 263.493 313.13 263.859 313.13 264.241Z" fill="#FF373F"/>
<path d="M317.864 264.241C317.864 264.526 317.78 264.804 317.622 265.041C317.463 265.278 317.239 265.462 316.975 265.571C316.712 265.68 316.423 265.709 316.143 265.653C315.864 265.598 315.608 265.46 315.406 265.259C315.205 265.058 315.068 264.801 315.012 264.522C314.956 264.242 314.985 263.953 315.094 263.69C315.203 263.427 315.388 263.202 315.624 263.043C315.861 262.885 316.14 262.801 316.424 262.801C316.806 262.801 317.173 262.952 317.443 263.223C317.713 263.493 317.864 263.859 317.864 264.241Z" fill="#FF373F"/>
<path d="M298.927 268.561C298.927 268.846 298.842 269.124 298.684 269.361C298.526 269.598 298.301 269.782 298.038 269.891C297.775 270 297.485 270.029 297.206 269.973C296.927 269.918 296.67 269.781 296.469 269.579C296.267 269.378 296.13 269.121 296.075 268.842C296.019 268.563 296.047 268.273 296.156 268.01C296.265 267.747 296.45 267.522 296.687 267.364C296.924 267.206 297.202 267.121 297.487 267.121C297.869 267.121 298.235 267.273 298.505 267.543C298.775 267.813 298.927 268.179 298.927 268.561Z" fill="#FF373F"/>
<path d="M303.661 268.561C303.661 268.846 303.577 269.124 303.419 269.361C303.26 269.598 303.035 269.782 302.772 269.891C302.509 270 302.22 270.029 301.94 269.973C301.661 269.918 301.404 269.781 301.203 269.579C301.002 269.378 300.864 269.121 300.809 268.842C300.753 268.563 300.782 268.273 300.891 268.01C301 267.747 301.184 267.522 301.421 267.364C301.658 267.206 301.936 267.121 302.221 267.121C302.603 267.121 302.969 267.273 303.239 267.543C303.51 267.813 303.661 268.179 303.661 268.561Z" fill="#FF373F"/>
<path d="M308.396 268.561C308.396 268.846 308.311 269.124 308.153 269.361C307.995 269.598 307.77 269.782 307.507 269.891C307.244 270 306.954 270.029 306.675 269.973C306.395 269.918 306.139 269.781 305.937 269.579C305.736 269.378 305.599 269.121 305.543 268.842C305.488 268.563 305.516 268.273 305.625 268.01C305.734 267.747 305.919 267.522 306.156 267.364C306.392 267.206 306.671 267.121 306.956 267.121C307.338 267.121 307.704 267.273 307.974 267.543C308.244 267.813 308.396 268.179 308.396 268.561Z" fill="#FF373F"/>
<path d="M313.13 268.561C313.13 268.846 313.046 269.124 312.887 269.361C312.729 269.598 312.504 269.782 312.241 269.891C311.978 270 311.688 270.029 311.409 269.973C311.13 269.918 310.873 269.781 310.672 269.579C310.47 269.378 310.333 269.121 310.278 268.842C310.222 268.563 310.251 268.273 310.36 268.01C310.469 267.747 310.653 267.522 310.89 267.364C311.127 267.206 311.405 267.121 311.69 267.121C312.072 267.121 312.438 267.273 312.708 267.543C312.978 267.813 313.13 268.179 313.13 268.561Z" fill="#FF373F"/>
<path d="M317.864 268.561C317.864 268.846 317.78 269.124 317.622 269.361C317.463 269.598 317.239 269.782 316.975 269.891C316.712 270 316.423 270.029 316.143 269.973C315.864 269.918 315.608 269.781 315.406 269.579C315.205 269.378 315.068 269.121 315.012 268.842C314.956 268.563 314.985 268.273 315.094 268.01C315.203 267.747 315.388 267.522 315.624 267.364C315.861 267.206 316.14 267.121 316.424 267.121C316.806 267.121 317.173 267.273 317.443 267.543C317.713 267.813 317.864 268.179 317.864 268.561Z" fill="#FF373F"/>
<path d="M298.927 272.881C298.927 273.166 298.842 273.445 298.684 273.681C298.526 273.918 298.301 274.103 298.038 274.212C297.775 274.321 297.485 274.349 297.206 274.294C296.927 274.238 296.67 274.101 296.469 273.9C296.267 273.698 296.13 273.442 296.075 273.162C296.019 272.883 296.047 272.593 296.156 272.33C296.265 272.067 296.45 271.842 296.687 271.684C296.924 271.526 297.202 271.441 297.487 271.441C297.869 271.441 298.235 271.593 298.505 271.863C298.775 272.133 298.927 272.499 298.927 272.881Z" fill="#FF373F"/>
<path d="M303.661 272.881C303.661 273.166 303.577 273.445 303.419 273.681C303.26 273.918 303.035 274.103 302.772 274.212C302.509 274.321 302.22 274.349 301.94 274.294C301.661 274.238 301.404 274.101 301.203 273.9C301.002 273.698 300.864 273.442 300.809 273.162C300.753 272.883 300.782 272.593 300.891 272.33C301 272.067 301.184 271.842 301.421 271.684C301.658 271.526 301.936 271.441 302.221 271.441C302.603 271.441 302.969 271.593 303.239 271.863C303.51 272.133 303.661 272.499 303.661 272.881Z" fill="#FF373F"/>
<path d="M308.396 272.881C308.396 273.166 308.311 273.445 308.153 273.681C307.995 273.918 307.77 274.103 307.507 274.212C307.244 274.321 306.954 274.349 306.675 274.294C306.395 274.238 306.139 274.101 305.937 273.9C305.736 273.698 305.599 273.442 305.543 273.162C305.488 272.883 305.516 272.593 305.625 272.33C305.734 272.067 305.919 271.842 306.156 271.684C306.392 271.526 306.671 271.441 306.956 271.441C307.338 271.441 307.704 271.593 307.974 271.863C308.244 272.133 308.396 272.499 308.396 272.881Z" fill="#FF373F"/>
<path d="M313.13 272.881C313.13 273.166 313.046 273.445 312.887 273.681C312.729 273.918 312.504 274.103 312.241 274.212C311.978 274.321 311.688 274.349 311.409 274.294C311.13 274.238 310.873 274.101 310.672 273.9C310.47 273.698 310.333 273.442 310.278 273.162C310.222 272.883 310.251 272.593 310.36 272.33C310.469 272.067 310.653 271.842 310.89 271.684C311.127 271.526 311.405 271.441 311.69 271.441C312.072 271.441 312.438 271.593 312.708 271.863C312.978 272.133 313.13 272.499 313.13 272.881Z" fill="#FF373F"/>
<path d="M317.864 272.881C317.864 273.166 317.78 273.445 317.622 273.681C317.463 273.918 317.239 274.103 316.975 274.212C316.712 274.321 316.423 274.349 316.143 274.294C315.864 274.238 315.608 274.101 315.406 273.9C315.205 273.698 315.068 273.442 315.012 273.162C314.956 272.883 314.985 272.593 315.094 272.33C315.203 272.067 315.388 271.842 315.624 271.684C315.861 271.526 316.14 271.441 316.424 271.441C316.806 271.441 317.173 271.593 317.443 271.863C317.713 272.133 317.864 272.499 317.864 272.881Z" fill="#FF373F"/>
<path d="M294.156 262.801H293.328V274.292H294.156V262.801Z" fill="#263238"/>
<path d="M320.1 239.285H245.789V256.45H320.1V239.285Z" fill="#37474F"/>
<path d="M291.214 242.123H248.914V243.57H291.214V242.123Z" fill="#455A64"/>
<path d="M291.214 244.629H248.914V246.076H291.214V244.629Z" fill="#455A64"/>
<path d="M291.214 247.141H248.914V248.588H291.214V247.141Z" fill="#455A64"/>
<path d="M291.214 249.654H248.914V251.102H291.214V249.654Z" fill="#455A64"/>
<path d="M291.214 252.166H248.914V253.613H291.214V252.166Z" fill="#455A64"/>
<path d="M297.495 244.995C298.29 244.995 298.935 244.351 298.935 243.555C298.935 242.76 298.29 242.115 297.495 242.115C296.699 242.115 296.055 242.76 296.055 243.555C296.055 244.351 296.699 244.995 297.495 244.995Z" fill="#FF373F"/>
<path d="M303.661 243.555C303.661 243.84 303.577 244.118 303.419 244.355C303.26 244.592 303.035 244.777 302.772 244.886C302.509 244.995 302.22 245.023 301.94 244.968C301.661 244.912 301.404 244.775 301.203 244.573C301.002 244.372 300.864 244.116 300.809 243.836C300.753 243.557 300.782 243.267 300.891 243.004C301 242.741 301.184 242.516 301.421 242.358C301.658 242.2 301.936 242.115 302.221 242.115C302.603 242.115 302.969 242.267 303.239 242.537C303.51 242.807 303.661 243.173 303.661 243.555Z" fill="#FF373F"/>
<path d="M306.956 244.995C307.751 244.995 308.396 244.351 308.396 243.555C308.396 242.76 307.751 242.115 306.956 242.115C306.16 242.115 305.516 242.76 305.516 243.555C305.516 244.351 306.16 244.995 306.956 244.995Z" fill="#FF373F"/>
<path d="M313.13 243.555C313.13 243.84 313.046 244.118 312.887 244.355C312.729 244.592 312.504 244.777 312.241 244.886C311.978 244.995 311.688 245.023 311.409 244.968C311.13 244.912 310.873 244.775 310.672 244.573C310.47 244.372 310.333 244.116 310.278 243.836C310.222 243.557 310.251 243.267 310.36 243.004C310.469 242.741 310.653 242.516 310.89 242.358C311.127 242.2 311.405 242.115 311.69 242.115C312.072 242.115 312.438 242.267 312.708 242.537C312.978 242.807 313.13 243.173 313.13 243.555Z" fill="#FF373F"/>
<path d="M317.864 243.555C317.864 243.84 317.78 244.118 317.622 244.355C317.463 244.592 317.239 244.777 316.975 244.886C316.712 244.995 316.423 245.023 316.143 244.968C315.864 244.912 315.608 244.775 315.406 244.573C315.205 244.372 315.068 244.116 315.012 243.836C314.956 243.557 314.985 243.267 315.094 243.004C315.203 242.741 315.388 242.516 315.624 242.358C315.861 242.2 316.14 242.115 316.424 242.115C316.806 242.115 317.173 242.267 317.443 242.537C317.713 242.807 317.864 243.173 317.864 243.555Z" fill="#FF373F"/>
<path d="M298.927 247.868C298.927 248.153 298.842 248.431 298.684 248.668C298.526 248.905 298.301 249.089 298.038 249.198C297.775 249.307 297.485 249.336 297.206 249.28C296.927 249.224 296.67 249.087 296.469 248.886C296.267 248.685 296.13 248.428 296.075 248.149C296.019 247.869 296.047 247.58 296.156 247.317C296.265 247.054 296.45 246.829 296.687 246.67C296.924 246.512 297.202 246.428 297.487 246.428C297.869 246.428 298.235 246.579 298.505 246.849C298.775 247.12 298.927 247.486 298.927 247.868Z" fill="#FF373F"/>
<path d="M303.661 247.868C303.661 248.153 303.577 248.431 303.419 248.668C303.26 248.905 303.035 249.089 302.772 249.198C302.509 249.307 302.22 249.336 301.94 249.28C301.661 249.224 301.404 249.087 301.203 248.886C301.002 248.685 300.864 248.428 300.809 248.149C300.753 247.869 300.782 247.58 300.891 247.317C301 247.054 301.184 246.829 301.421 246.67C301.658 246.512 301.936 246.428 302.221 246.428C302.603 246.428 302.969 246.579 303.239 246.849C303.51 247.12 303.661 247.486 303.661 247.868Z" fill="#FF373F"/>
<path d="M308.396 247.868C308.396 248.153 308.311 248.431 308.153 248.668C307.995 248.905 307.77 249.089 307.507 249.198C307.244 249.307 306.954 249.336 306.675 249.28C306.395 249.224 306.139 249.087 305.937 248.886C305.736 248.685 305.599 248.428 305.543 248.149C305.488 247.869 305.516 247.58 305.625 247.317C305.734 247.054 305.919 246.829 306.156 246.67C306.392 246.512 306.671 246.428 306.956 246.428C307.338 246.428 307.704 246.579 307.974 246.849C308.244 247.12 308.396 247.486 308.396 247.868Z" fill="#FF373F"/>
<path d="M313.13 247.868C313.13 248.153 313.046 248.431 312.887 248.668C312.729 248.905 312.504 249.089 312.241 249.198C311.978 249.307 311.688 249.336 311.409 249.28C311.13 249.224 310.873 249.087 310.672 248.886C310.47 248.685 310.333 248.428 310.278 248.149C310.222 247.869 310.251 247.58 310.36 247.317C310.469 247.054 310.653 246.829 310.89 246.67C311.127 246.512 311.405 246.428 311.69 246.428C312.072 246.428 312.438 246.579 312.708 246.849C312.978 247.12 313.13 247.486 313.13 247.868Z" fill="#FF373F"/>
<path d="M317.864 247.868C317.864 248.153 317.78 248.431 317.622 248.668C317.463 248.905 317.239 249.089 316.975 249.198C316.712 249.307 316.423 249.336 316.143 249.28C315.864 249.224 315.608 249.087 315.406 248.886C315.205 248.685 315.068 248.428 315.012 248.149C314.956 247.869 314.985 247.58 315.094 247.317C315.203 247.054 315.388 246.829 315.624 246.67C315.861 246.512 316.14 246.428 316.424 246.428C316.806 246.428 317.173 246.579 317.443 246.849C317.713 247.12 317.864 247.486 317.864 247.868Z" fill="#FF373F"/>
<path d="M298.927 252.174C298.927 252.459 298.842 252.738 298.684 252.974C298.526 253.211 298.301 253.396 298.038 253.505C297.775 253.614 297.485 253.642 297.206 253.587C296.927 253.531 296.67 253.394 296.469 253.193C296.267 252.991 296.13 252.735 296.075 252.455C296.019 252.176 296.047 251.886 296.156 251.623C296.265 251.36 296.45 251.135 296.687 250.977C296.924 250.819 297.202 250.734 297.487 250.734C297.869 250.734 298.235 250.886 298.505 251.156C298.775 251.426 298.927 251.792 298.927 252.174Z" fill="#FF373F"/>
<path d="M303.661 252.174C303.661 252.459 303.577 252.738 303.419 252.974C303.26 253.211 303.035 253.396 302.772 253.505C302.509 253.614 302.22 253.642 301.94 253.587C301.661 253.531 301.404 253.394 301.203 253.193C301.002 252.991 300.864 252.735 300.809 252.455C300.753 252.176 300.782 251.886 300.891 251.623C301 251.36 301.184 251.135 301.421 250.977C301.658 250.819 301.936 250.734 302.221 250.734C302.603 250.734 302.969 250.886 303.239 251.156C303.51 251.426 303.661 251.792 303.661 252.174Z" fill="#FF373F"/>
<path d="M308.396 252.174C308.396 252.459 308.311 252.738 308.153 252.974C307.995 253.211 307.77 253.396 307.507 253.505C307.244 253.614 306.954 253.642 306.675 253.587C306.395 253.531 306.139 253.394 305.937 253.193C305.736 252.991 305.599 252.735 305.543 252.455C305.488 252.176 305.516 251.886 305.625 251.623C305.734 251.36 305.919 251.135 306.156 250.977C306.392 250.819 306.671 250.734 306.956 250.734C307.338 250.734 307.704 250.886 307.974 251.156C308.244 251.426 308.396 251.792 308.396 252.174Z" fill="#FF373F"/>
<path d="M313.13 252.174C313.13 252.459 313.046 252.738 312.887 252.974C312.729 253.211 312.504 253.396 312.241 253.505C311.978 253.614 311.688 253.642 311.409 253.587C311.13 253.531 310.873 253.394 310.672 253.193C310.47 252.991 310.333 252.735 310.278 252.455C310.222 252.176 310.251 251.886 310.36 251.623C310.469 251.36 310.653 251.135 310.89 250.977C311.127 250.819 311.405 250.734 311.69 250.734C312.072 250.734 312.438 250.886 312.708 251.156C312.978 251.426 313.13 251.792 313.13 252.174Z" fill="#FF373F"/>
<path d="M317.864 252.174C317.864 252.459 317.78 252.738 317.622 252.974C317.463 253.211 317.239 253.396 316.975 253.505C316.712 253.614 316.423 253.642 316.143 253.587C315.864 253.531 315.608 253.394 315.406 253.193C315.205 252.991 315.068 252.735 315.012 252.455C314.956 252.176 314.985 251.886 315.094 251.623C315.203 251.36 315.388 251.135 315.624 250.977C315.861 250.819 316.14 250.734 316.424 250.734C316.806 250.734 317.173 250.886 317.443 251.156C317.713 251.426 317.864 251.792 317.864 252.174Z" fill="#FF373F"/>
<path d="M294.156 242.123H293.328V253.614H294.156V242.123Z" fill="#263238"/>
<path d="M320.1 218.6H245.789V235.764H320.1V218.6Z" fill="#37474F"/>
<path d="M291.214 221.438H248.914V222.885H291.214V221.438Z" fill="#455A64"/>
<path d="M291.214 223.943H248.914V225.391H291.214V223.943Z" fill="#455A64"/>
<path d="M291.214 226.455H248.914V227.902H291.214V226.455Z" fill="#455A64"/>
<path d="M291.214 228.969H248.914V230.416H291.214V228.969Z" fill="#455A64"/>
<path d="M291.214 231.48H248.914V232.928H291.214V231.48Z" fill="#455A64"/>
<path d="M298.927 222.87C298.927 223.154 298.842 223.433 298.684 223.67C298.526 223.907 298.301 224.091 298.038 224.2C297.775 224.309 297.485 224.338 297.206 224.282C296.927 224.226 296.67 224.089 296.469 223.888C296.267 223.687 296.13 223.43 296.075 223.151C296.019 222.871 296.047 222.582 296.156 222.319C296.265 222.055 296.45 221.831 296.687 221.672C296.924 221.514 297.202 221.43 297.487 221.43C297.869 221.43 298.235 221.581 298.505 221.851C298.775 222.122 298.927 222.488 298.927 222.87Z" fill="#FF373F"/>
<path d="M303.661 222.87C303.661 223.154 303.577 223.433 303.419 223.67C303.26 223.907 303.035 224.091 302.772 224.2C302.509 224.309 302.22 224.338 301.94 224.282C301.661 224.226 301.404 224.089 301.203 223.888C301.002 223.687 300.864 223.43 300.809 223.151C300.753 222.871 300.782 222.582 300.891 222.319C301 222.055 301.184 221.831 301.421 221.672C301.658 221.514 301.936 221.43 302.221 221.43C302.603 221.43 302.969 221.581 303.239 221.851C303.51 222.122 303.661 222.488 303.661 222.87Z" fill="#FF373F"/>
<path d="M308.396 222.87C308.396 223.154 308.311 223.433 308.153 223.67C307.995 223.907 307.77 224.091 307.507 224.2C307.244 224.309 306.954 224.338 306.675 224.282C306.395 224.226 306.139 224.089 305.937 223.888C305.736 223.687 305.599 223.43 305.543 223.151C305.488 222.871 305.516 222.582 305.625 222.319C305.734 222.055 305.919 221.831 306.156 221.672C306.392 221.514 306.671 221.43 306.956 221.43C307.338 221.43 307.704 221.581 307.974 221.851C308.244 222.122 308.396 222.488 308.396 222.87Z" fill="#FF373F"/>
<path d="M313.13 222.87C313.13 223.154 313.046 223.433 312.887 223.67C312.729 223.907 312.504 224.091 312.241 224.2C311.978 224.309 311.688 224.338 311.409 224.282C311.13 224.226 310.873 224.089 310.672 223.888C310.47 223.687 310.333 223.43 310.278 223.151C310.222 222.871 310.251 222.582 310.36 222.319C310.469 222.055 310.653 221.831 310.89 221.672C311.127 221.514 311.405 221.43 311.69 221.43C312.072 221.43 312.438 221.581 312.708 221.851C312.978 222.122 313.13 222.488 313.13 222.87Z" fill="#FF373F"/>
<path d="M317.864 222.87C317.864 223.154 317.78 223.433 317.622 223.67C317.463 223.907 317.239 224.091 316.975 224.2C316.712 224.309 316.423 224.338 316.143 224.282C315.864 224.226 315.608 224.089 315.406 223.888C315.205 223.687 315.068 223.43 315.012 223.151C314.956 222.871 314.985 222.582 315.094 222.319C315.203 222.055 315.388 221.831 315.624 221.672C315.861 221.514 316.14 221.43 316.424 221.43C316.806 221.43 317.173 221.581 317.443 221.851C317.713 222.122 317.864 222.488 317.864 222.87Z" fill="#FF373F"/>
<path d="M297.495 228.622C298.29 228.622 298.935 227.977 298.935 227.182C298.935 226.387 298.29 225.742 297.495 225.742C296.699 225.742 296.055 226.387 296.055 227.182C296.055 227.977 296.699 228.622 297.495 228.622Z" fill="#FF373F"/>
<path d="M303.661 227.182C303.661 227.467 303.577 227.745 303.419 227.982C303.26 228.219 303.035 228.404 302.772 228.513C302.509 228.622 302.22 228.65 301.94 228.595C301.661 228.539 301.404 228.402 301.203 228.2C301.002 227.999 300.864 227.742 300.809 227.463C300.753 227.184 300.782 226.894 300.891 226.631C301 226.368 301.184 226.143 301.421 225.985C301.658 225.827 301.936 225.742 302.221 225.742C302.603 225.742 302.969 225.894 303.239 226.164C303.51 226.434 303.661 226.8 303.661 227.182Z" fill="#FF373F"/>
<path d="M306.956 228.622C307.751 228.622 308.396 227.977 308.396 227.182C308.396 226.387 307.751 225.742 306.956 225.742C306.16 225.742 305.516 226.387 305.516 227.182C305.516 227.977 306.16 228.622 306.956 228.622Z" fill="#FF373F"/>
<path d="M313.13 227.182C313.13 227.467 313.046 227.745 312.887 227.982C312.729 228.219 312.504 228.404 312.241 228.513C311.978 228.622 311.688 228.65 311.409 228.595C311.13 228.539 310.873 228.402 310.672 228.2C310.47 227.999 310.333 227.742 310.278 227.463C310.222 227.184 310.251 226.894 310.36 226.631C310.469 226.368 310.653 226.143 310.89 225.985C311.127 225.827 311.405 225.742 311.69 225.742C312.072 225.742 312.438 225.894 312.708 226.164C312.978 226.434 313.13 226.8 313.13 227.182Z" fill="#FF373F"/>
<path d="M317.864 227.182C317.864 227.467 317.78 227.745 317.622 227.982C317.463 228.219 317.239 228.404 316.975 228.513C316.712 228.622 316.423 228.65 316.143 228.595C315.864 228.539 315.608 228.402 315.406 228.2C315.205 227.999 315.068 227.742 315.012 227.463C314.956 227.184 314.985 226.894 315.094 226.631C315.203 226.368 315.388 226.143 315.624 225.985C315.861 225.827 316.14 225.742 316.424 225.742C316.806 225.742 317.173 225.894 317.443 226.164C317.713 226.434 317.864 226.8 317.864 227.182Z" fill="#FF373F"/>
<path d="M297.495 232.929C298.29 232.929 298.935 232.284 298.935 231.489C298.935 230.694 298.29 230.049 297.495 230.049C296.699 230.049 296.055 230.694 296.055 231.489C296.055 232.284 296.699 232.929 297.495 232.929Z" fill="#FF373F"/>
<path d="M303.661 231.489C303.661 231.774 303.577 232.052 303.419 232.289C303.26 232.526 303.035 232.71 302.772 232.819C302.509 232.928 302.22 232.957 301.94 232.901C301.661 232.846 301.404 232.708 301.203 232.507C301.002 232.306 300.864 232.049 300.809 231.77C300.753 231.49 300.782 231.201 300.891 230.938C301 230.675 301.184 230.45 301.421 230.291C301.658 230.133 301.936 230.049 302.221 230.049C302.603 230.049 302.969 230.201 303.239 230.471C303.51 230.741 303.661 231.107 303.661 231.489Z" fill="#FF373F"/>
<path d="M306.956 232.929C307.751 232.929 308.396 232.284 308.396 231.489C308.396 230.694 307.751 230.049 306.956 230.049C306.16 230.049 305.516 230.694 305.516 231.489C305.516 232.284 306.16 232.929 306.956 232.929Z" fill="#FF373F"/>
<path d="M313.13 231.489C313.13 231.774 313.046 232.052 312.887 232.289C312.729 232.526 312.504 232.71 312.241 232.819C311.978 232.928 311.688 232.957 311.409 232.901C311.13 232.846 310.873 232.708 310.672 232.507C310.47 232.306 310.333 232.049 310.278 231.77C310.222 231.49 310.251 231.201 310.36 230.938C310.469 230.675 310.653 230.45 310.89 230.291C311.127 230.133 311.405 230.049 311.69 230.049C312.072 230.049 312.438 230.201 312.708 230.471C312.978 230.741 313.13 231.107 313.13 231.489Z" fill="#FF373F"/>
<path d="M317.864 231.489C317.864 231.774 317.78 232.052 317.622 232.289C317.463 232.526 317.239 232.71 316.975 232.819C316.712 232.928 316.423 232.957 316.143 232.901C315.864 232.846 315.608 232.708 315.406 232.507C315.205 232.306 315.068 232.049 315.012 231.77C314.956 231.49 314.985 231.201 315.094 230.938C315.203 230.675 315.388 230.45 315.624 230.291C315.861 230.133 316.14 230.049 316.424 230.049C316.806 230.049 317.173 230.201 317.443 230.471C317.713 230.741 317.864 231.107 317.864 231.489Z" fill="#FF373F"/>
<path d="M294.156 221.438H293.328V232.929H294.156V221.438Z" fill="#263238"/>
<path d="M320.1 197.914H245.789V215.079H320.1V197.914Z" fill="#37474F"/>
<path d="M291.214 200.752H248.914V202.199H291.214V200.752Z" fill="#455A64"/>
<path d="M291.214 203.264H248.914V204.711H291.214V203.264Z" fill="#455A64"/>
<path d="M291.214 205.77H248.914V207.217H291.214V205.77Z" fill="#455A64"/>
<path d="M291.214 208.283H248.914V209.73H291.214V208.283Z" fill="#455A64"/>
<path d="M291.214 210.795H248.914V212.242H291.214V210.795Z" fill="#455A64"/>
<path d="M297.495 203.632C298.29 203.632 298.935 202.987 298.935 202.192C298.935 201.397 298.29 200.752 297.495 200.752C296.699 200.752 296.055 201.397 296.055 202.192C296.055 202.987 296.699 203.632 297.495 203.632Z" fill="#FF373F"/>
<path d="M303.661 202.192C303.661 202.477 303.577 202.755 303.419 202.992C303.26 203.229 303.035 203.413 302.772 203.522C302.509 203.631 302.22 203.66 301.94 203.604C301.661 203.549 301.404 203.412 301.203 203.21C301.002 203.009 300.864 202.752 300.809 202.473C300.753 202.194 300.782 201.904 300.891 201.641C301 201.378 301.184 201.153 301.421 200.995C301.658 200.836 301.936 200.752 302.221 200.752C302.603 200.752 302.969 200.904 303.239 201.174C303.51 201.444 303.661 201.81 303.661 202.192Z" fill="#FF373F"/>
<path d="M306.956 203.632C307.751 203.632 308.396 202.987 308.396 202.192C308.396 201.397 307.751 200.752 306.956 200.752C306.16 200.752 305.516 201.397 305.516 202.192C305.516 202.987 306.16 203.632 306.956 203.632Z" fill="#FF373F"/>
<path d="M313.13 202.192C313.13 202.477 313.046 202.755 312.887 202.992C312.729 203.229 312.504 203.413 312.241 203.522C311.978 203.631 311.688 203.66 311.409 203.604C311.13 203.549 310.873 203.412 310.672 203.21C310.47 203.009 310.333 202.752 310.278 202.473C310.222 202.194 310.251 201.904 310.36 201.641C310.469 201.378 310.653 201.153 310.89 200.995C311.127 200.836 311.405 200.752 311.69 200.752C312.072 200.752 312.438 200.904 312.708 201.174C312.978 201.444 313.13 201.81 313.13 202.192Z" fill="#FF373F"/>
<path d="M317.864 202.192C317.864 202.477 317.78 202.755 317.622 202.992C317.463 203.229 317.239 203.413 316.975 203.522C316.712 203.631 316.423 203.66 316.143 203.604C315.864 203.549 315.608 203.412 315.406 203.21C315.205 203.009 315.068 202.752 315.012 202.473C314.956 202.194 314.985 201.904 315.094 201.641C315.203 201.378 315.388 201.153 315.624 200.995C315.861 200.836 316.14 200.752 316.424 200.752C316.806 200.752 317.173 200.904 317.443 201.174C317.713 201.444 317.864 201.81 317.864 202.192Z" fill="#FF373F"/>
<path d="M297.495 207.937C298.29 207.937 298.935 207.292 298.935 206.497C298.935 205.701 298.29 205.057 297.495 205.057C296.699 205.057 296.055 205.701 296.055 206.497C296.055 207.292 296.699 207.937 297.495 207.937Z" fill="#FF373F"/>
<path d="M303.661 206.497C303.661 206.781 303.577 207.06 303.419 207.297C303.26 207.533 303.035 207.718 302.772 207.827C302.509 207.936 302.22 207.965 301.94 207.909C301.661 207.853 301.404 207.716 301.203 207.515C301.002 207.313 300.864 207.057 300.809 206.778C300.753 206.498 300.782 206.209 300.891 205.946C301 205.682 301.184 205.458 301.421 205.299C301.658 205.141 301.936 205.057 302.221 205.057C302.603 205.057 302.969 205.208 303.239 205.478C303.51 205.748 303.661 206.115 303.661 206.497Z" fill="#FF373F"/>
<path d="M306.956 207.937C307.751 207.937 308.396 207.292 308.396 206.497C308.396 205.701 307.751 205.057 306.956 205.057C306.16 205.057 305.516 205.701 305.516 206.497C305.516 207.292 306.16 207.937 306.956 207.937Z" fill="#FF373F"/>
<path d="M313.13 206.497C313.13 206.781 313.046 207.06 312.887 207.297C312.729 207.533 312.504 207.718 312.241 207.827C311.978 207.936 311.688 207.965 311.409 207.909C311.13 207.853 310.873 207.716 310.672 207.515C310.47 207.313 310.333 207.057 310.278 206.778C310.222 206.498 310.251 206.209 310.36 205.946C310.469 205.682 310.653 205.458 310.89 205.299C311.127 205.141 311.405 205.057 311.69 205.057C312.072 205.057 312.438 205.208 312.708 205.478C312.978 205.748 313.13 206.115 313.13 206.497Z" fill="#FF373F"/>
<path d="M317.864 206.497C317.864 206.781 317.78 207.06 317.622 207.297C317.463 207.533 317.239 207.718 316.975 207.827C316.712 207.936 316.423 207.965 316.143 207.909C315.864 207.853 315.608 207.716 315.406 207.515C315.205 207.313 315.068 207.057 315.012 206.778C314.956 206.498 314.985 206.209 315.094 205.946C315.203 205.682 315.388 205.458 315.624 205.299C315.861 205.141 316.14 205.057 316.424 205.057C316.806 205.057 317.173 205.208 317.443 205.478C317.713 205.748 317.864 206.115 317.864 206.497Z" fill="#FF373F"/>
<path d="M298.927 210.809C298.927 211.094 298.842 211.372 298.684 211.609C298.526 211.846 298.301 212.031 298.038 212.14C297.775 212.249 297.485 212.277 297.206 212.221C296.927 212.166 296.67 212.029 296.469 211.827C296.267 211.626 296.13 211.369 296.075 211.09C296.019 210.811 296.047 210.521 296.156 210.258C296.265 209.995 296.45 209.77 296.687 209.612C296.924 209.454 297.202 209.369 297.487 209.369C297.869 209.369 298.235 209.521 298.505 209.791C298.775 210.061 298.927 210.427 298.927 210.809Z" fill="#FF373F"/>
<path d="M303.661 210.809C303.661 211.094 303.577 211.372 303.419 211.609C303.26 211.846 303.035 212.031 302.772 212.14C302.509 212.249 302.22 212.277 301.94 212.221C301.661 212.166 301.404 212.029 301.203 211.827C301.002 211.626 300.864 211.369 300.809 211.09C300.753 210.811 300.782 210.521 300.891 210.258C301 209.995 301.184 209.77 301.421 209.612C301.658 209.454 301.936 209.369 302.221 209.369C302.603 209.369 302.969 209.521 303.239 209.791C303.51 210.061 303.661 210.427 303.661 210.809Z" fill="#FF373F"/>
<path d="M308.396 210.809C308.396 211.094 308.311 211.372 308.153 211.609C307.995 211.846 307.77 212.031 307.507 212.14C307.244 212.249 306.954 212.277 306.675 212.221C306.395 212.166 306.139 212.029 305.937 211.827C305.736 211.626 305.599 211.369 305.543 211.09C305.488 210.811 305.516 210.521 305.625 210.258C305.734 209.995 305.919 209.77 306.156 209.612C306.392 209.454 306.671 209.369 306.956 209.369C307.338 209.369 307.704 209.521 307.974 209.791C308.244 210.061 308.396 210.427 308.396 210.809Z" fill="#FF373F"/>
<path d="M313.13 210.809C313.13 211.094 313.046 211.372 312.887 211.609C312.729 211.846 312.504 212.031 312.241 212.14C311.978 212.249 311.688 212.277 311.409 212.221C311.13 212.166 310.873 212.029 310.672 211.827C310.47 211.626 310.333 211.369 310.278 211.09C310.222 210.811 310.251 210.521 310.36 210.258C310.469 209.995 310.653 209.77 310.89 209.612C311.127 209.454 311.405 209.369 311.69 209.369C312.072 209.369 312.438 209.521 312.708 209.791C312.978 210.061 313.13 210.427 313.13 210.809Z" fill="#FF373F"/>
<path d="M317.864 210.809C317.864 211.094 317.78 211.372 317.622 211.609C317.463 211.846 317.239 212.031 316.975 212.14C316.712 212.249 316.423 212.277 316.143 212.221C315.864 212.166 315.608 212.029 315.406 211.827C315.205 211.626 315.068 211.369 315.012 211.09C314.956 210.811 314.985 210.521 315.094 210.258C315.203 209.995 315.388 209.77 315.624 209.612C315.861 209.454 316.14 209.369 316.424 209.369C316.806 209.369 317.173 209.521 317.443 209.791C317.713 210.061 317.864 210.427 317.864 210.809Z" fill="#FF373F"/>
<path d="M294.156 200.752H293.328V212.243H294.156V200.752Z" fill="#263238"/>
<path d="M320.1 177.229H245.789V194.393H320.1V177.229Z" fill="#37474F"/>
<path d="M291.214 180.066H248.914V181.514H291.214V180.066Z" fill="#455A64"/>
<path d="M291.214 182.578H248.914V184.025H291.214V182.578Z" fill="#455A64"/>
<path d="M291.214 185.092H248.914V186.539H291.214V185.092Z" fill="#455A64"/>
<path d="M291.214 187.598H248.914V189.045H291.214V187.598Z" fill="#455A64"/>
<path d="M291.214 190.109H248.914V191.557H291.214V190.109Z" fill="#455A64"/>
<path d="M298.927 181.506C298.927 181.791 298.842 182.07 298.684 182.306C298.526 182.543 298.301 182.728 298.038 182.837C297.775 182.946 297.485 182.974 297.206 182.919C296.927 182.863 296.67 182.726 296.469 182.525C296.267 182.323 296.13 182.067 296.075 181.787C296.019 181.508 296.047 181.218 296.156 180.955C296.265 180.692 296.45 180.467 296.687 180.309C296.924 180.151 297.202 180.066 297.487 180.066C297.869 180.066 298.235 180.218 298.505 180.488C298.775 180.758 298.927 181.124 298.927 181.506Z" fill="#FF373F"/>
<path d="M303.661 181.506C303.661 181.791 303.577 182.07 303.419 182.306C303.26 182.543 303.035 182.728 302.772 182.837C302.509 182.946 302.22 182.974 301.94 182.919C301.661 182.863 301.404 182.726 301.203 182.525C301.002 182.323 300.864 182.067 300.809 181.787C300.753 181.508 300.782 181.218 300.891 180.955C301 180.692 301.184 180.467 301.421 180.309C301.658 180.151 301.936 180.066 302.221 180.066C302.603 180.066 302.969 180.218 303.239 180.488C303.51 180.758 303.661 181.124 303.661 181.506Z" fill="#FF373F"/>
<path d="M308.396 181.506C308.396 181.791 308.311 182.07 308.153 182.306C307.995 182.543 307.77 182.728 307.507 182.837C307.244 182.946 306.954 182.974 306.675 182.919C306.395 182.863 306.139 182.726 305.937 182.525C305.736 182.323 305.599 182.067 305.543 181.787C305.488 181.508 305.516 181.218 305.625 180.955C305.734 180.692 305.919 180.467 306.156 180.309C306.392 180.151 306.671 180.066 306.956 180.066C307.338 180.066 307.704 180.218 307.974 180.488C308.244 180.758 308.396 181.124 308.396 181.506Z" fill="#FF373F"/>
<path d="M313.13 181.506C313.13 181.791 313.046 182.07 312.887 182.306C312.729 182.543 312.504 182.728 312.241 182.837C311.978 182.946 311.688 182.974 311.409 182.919C311.13 182.863 310.873 182.726 310.672 182.525C310.47 182.323 310.333 182.067 310.278 181.787C310.222 181.508 310.251 181.218 310.36 180.955C310.469 180.692 310.653 180.467 310.89 180.309C311.127 180.151 311.405 180.066 311.69 180.066C312.072 180.066 312.438 180.218 312.708 180.488C312.978 180.758 313.13 181.124 313.13 181.506Z" fill="#FF373F"/>
<path d="M317.864 181.506C317.864 181.791 317.78 182.07 317.622 182.306C317.463 182.543 317.239 182.728 316.975 182.837C316.712 182.946 316.423 182.974 316.143 182.919C315.864 182.863 315.608 182.726 315.406 182.525C315.205 182.323 315.068 182.067 315.012 181.787C314.956 181.508 314.985 181.218 315.094 180.955C315.203 180.692 315.388 180.467 315.624 180.309C315.861 180.151 316.14 180.066 316.424 180.066C316.806 180.066 317.173 180.218 317.443 180.488C317.713 180.758 317.864 181.124 317.864 181.506Z" fill="#FF373F"/>
<path d="M298.927 185.811C298.927 186.096 298.842 186.374 298.684 186.611C298.526 186.848 298.301 187.032 298.038 187.141C297.775 187.25 297.485 187.279 297.206 187.223C296.927 187.168 296.67 187.031 296.469 186.829C296.267 186.628 296.13 186.371 296.075 186.092C296.019 185.813 296.047 185.523 296.156 185.26C296.265 184.997 296.45 184.772 296.687 184.614C296.924 184.456 297.202 184.371 297.487 184.371C297.869 184.371 298.235 184.523 298.505 184.793C298.775 185.063 298.927 185.429 298.927 185.811Z" fill="#FF373F"/>
<path d="M303.661 185.811C303.661 186.096 303.577 186.374 303.419 186.611C303.26 186.848 303.035 187.032 302.772 187.141C302.509 187.25 302.22 187.279 301.94 187.223C301.661 187.168 301.404 187.031 301.203 186.829C301.002 186.628 300.864 186.371 300.809 186.092C300.753 185.813 300.782 185.523 300.891 185.26C301 184.997 301.184 184.772 301.421 184.614C301.658 184.456 301.936 184.371 302.221 184.371C302.603 184.371 302.969 184.523 303.239 184.793C303.51 185.063 303.661 185.429 303.661 185.811Z" fill="#FF373F"/>
<path d="M308.396 185.811C308.396 186.096 308.311 186.374 308.153 186.611C307.995 186.848 307.77 187.032 307.507 187.141C307.244 187.25 306.954 187.279 306.675 187.223C306.395 187.168 306.139 187.031 305.937 186.829C305.736 186.628 305.599 186.371 305.543 186.092C305.488 185.813 305.516 185.523 305.625 185.26C305.734 184.997 305.919 184.772 306.156 184.614C306.392 184.456 306.671 184.371 306.956 184.371C307.338 184.371 307.704 184.523 307.974 184.793C308.244 185.063 308.396 185.429 308.396 185.811Z" fill="#FF373F"/>
<path d="M313.13 185.811C313.13 186.096 313.046 186.374 312.887 186.611C312.729 186.848 312.504 187.032 312.241 187.141C311.978 187.25 311.688 187.279 311.409 187.223C311.13 187.168 310.873 187.031 310.672 186.829C310.47 186.628 310.333 186.371 310.278 186.092C310.222 185.813 310.251 185.523 310.36 185.26C310.469 184.997 310.653 184.772 310.89 184.614C311.127 184.456 311.405 184.371 311.69 184.371C312.072 184.371 312.438 184.523 312.708 184.793C312.978 185.063 313.13 185.429 313.13 185.811Z" fill="#FF373F"/>
<path d="M317.864 185.811C317.864 186.096 317.78 186.374 317.622 186.611C317.463 186.848 317.239 187.032 316.975 187.141C316.712 187.25 316.423 187.279 316.143 187.223C315.864 187.168 315.608 187.031 315.406 186.829C315.205 186.628 315.068 186.371 315.012 186.092C314.956 185.813 314.985 185.523 315.094 185.26C315.203 184.997 315.388 184.772 315.624 184.614C315.861 184.456 316.14 184.371 316.424 184.371C316.806 184.371 317.173 184.523 317.443 184.793C317.713 185.063 317.864 185.429 317.864 185.811Z" fill="#FF373F"/>
<path d="M298.927 190.124C298.927 190.408 298.842 190.687 298.684 190.924C298.526 191.16 298.301 191.345 298.038 191.454C297.775 191.563 297.485 191.591 297.206 191.536C296.927 191.48 296.67 191.343 296.469 191.142C296.267 190.94 296.13 190.684 296.075 190.405C296.019 190.125 296.047 189.836 296.156 189.573C296.265 189.309 296.45 189.085 296.687 188.926C296.924 188.768 297.202 188.684 297.487 188.684C297.869 188.684 298.235 188.835 298.505 189.105C298.775 189.375 298.927 189.742 298.927 190.124Z" fill="#FF373F"/>
<path d="M303.661 190.124C303.661 190.408 303.577 190.687 303.419 190.924C303.26 191.16 303.035 191.345 302.772 191.454C302.509 191.563 302.22 191.591 301.94 191.536C301.661 191.48 301.404 191.343 301.203 191.142C301.002 190.94 300.864 190.684 300.809 190.405C300.753 190.125 300.782 189.836 300.891 189.573C301 189.309 301.184 189.085 301.421 188.926C301.658 188.768 301.936 188.684 302.221 188.684C302.603 188.684 302.969 188.835 303.239 189.105C303.51 189.375 303.661 189.742 303.661 190.124Z" fill="#FF373F"/>
<path d="M308.396 190.124C308.396 190.408 308.311 190.687 308.153 190.924C307.995 191.16 307.77 191.345 307.507 191.454C307.244 191.563 306.954 191.591 306.675 191.536C306.395 191.48 306.139 191.343 305.937 191.142C305.736 190.94 305.599 190.684 305.543 190.405C305.488 190.125 305.516 189.836 305.625 189.573C305.734 189.309 305.919 189.085 306.156 188.926C306.392 188.768 306.671 188.684 306.956 188.684C307.338 188.684 307.704 188.835 307.974 189.105C308.244 189.375 308.396 189.742 308.396 190.124Z" fill="#FF373F"/>
<path d="M313.13 190.124C313.13 190.408 313.046 190.687 312.887 190.924C312.729 191.16 312.504 191.345 312.241 191.454C311.978 191.563 311.688 191.591 311.409 191.536C311.13 191.48 310.873 191.343 310.672 191.142C310.47 190.94 310.333 190.684 310.278 190.405C310.222 190.125 310.251 189.836 310.36 189.573C310.469 189.309 310.653 189.085 310.89 188.926C311.127 188.768 311.405 188.684 311.69 188.684C312.072 188.684 312.438 188.835 312.708 189.105C312.978 189.375 313.13 189.742 313.13 190.124Z" fill="#FF373F"/>
<path d="M317.864 190.124C317.864 190.408 317.78 190.687 317.622 190.924C317.463 191.16 317.239 191.345 316.975 191.454C316.712 191.563 316.423 191.591 316.143 191.536C315.864 191.48 315.608 191.343 315.406 191.142C315.205 190.94 315.068 190.684 315.012 190.405C314.956 190.125 314.985 189.836 315.094 189.573C315.203 189.309 315.388 189.085 315.624 188.926C315.861 188.768 316.14 188.684 316.424 188.684C316.806 188.684 317.173 188.835 317.443 189.105C317.713 189.375 317.864 189.742 317.864 190.124Z" fill="#FF373F"/>
<path d="M294.156 180.066H293.328V191.558H294.156V180.066Z" fill="#263238"/>
<path d="M320.1 156.551H245.789V173.716H320.1V156.551Z" fill="#37474F"/>
<path d="M291.214 159.381H248.914V160.828H291.214V159.381Z" fill="#455A64"/>
<path d="M291.214 161.893H248.914V163.34H291.214V161.893Z" fill="#455A64"/>
<path d="M291.214 164.406H248.914V165.853H291.214V164.406Z" fill="#455A64"/>
<path d="M291.214 166.918H248.914V168.365H291.214V166.918Z" fill="#455A64"/>
<path d="M291.214 169.424H248.914V170.871H291.214V169.424Z" fill="#455A64"/>
<path d="M298.927 160.821C298.927 161.106 298.842 161.384 298.684 161.621C298.526 161.858 298.301 162.042 298.038 162.151C297.775 162.26 297.485 162.289 297.206 162.233C296.927 162.178 296.67 162.04 296.469 161.839C296.267 161.638 296.13 161.381 296.075 161.102C296.019 160.822 296.047 160.533 296.156 160.27C296.265 160.007 296.45 159.782 296.687 159.624C296.924 159.465 297.202 159.381 297.487 159.381C297.869 159.381 298.235 159.533 298.505 159.803C298.775 160.073 298.927 160.439 298.927 160.821Z" fill="#FF373F"/>
<path d="M303.661 160.821C303.661 161.106 303.577 161.384 303.419 161.621C303.26 161.858 303.035 162.042 302.772 162.151C302.509 162.26 302.22 162.289 301.94 162.233C301.661 162.178 301.404 162.04 301.203 161.839C301.002 161.638 300.864 161.381 300.809 161.102C300.753 160.822 300.782 160.533 300.891 160.27C301 160.007 301.184 159.782 301.421 159.624C301.658 159.465 301.936 159.381 302.221 159.381C302.603 159.381 302.969 159.533 303.239 159.803C303.51 160.073 303.661 160.439 303.661 160.821Z" fill="#FF373F"/>
<path d="M308.396 160.821C308.396 161.106 308.311 161.384 308.153 161.621C307.995 161.858 307.77 162.042 307.507 162.151C307.244 162.26 306.954 162.289 306.675 162.233C306.395 162.178 306.139 162.04 305.937 161.839C305.736 161.638 305.599 161.381 305.543 161.102C305.488 160.822 305.516 160.533 305.625 160.27C305.734 160.007 305.919 159.782 306.156 159.624C306.392 159.465 306.671 159.381 306.956 159.381C307.338 159.381 307.704 159.533 307.974 159.803C308.244 160.073 308.396 160.439 308.396 160.821Z" fill="#FF373F"/>
<path d="M313.13 160.821C313.13 161.106 313.046 161.384 312.887 161.621C312.729 161.858 312.504 162.042 312.241 162.151C311.978 162.26 311.688 162.289 311.409 162.233C311.13 162.178 310.873 162.04 310.672 161.839C310.47 161.638 310.333 161.381 310.278 161.102C310.222 160.822 310.251 160.533 310.36 160.27C310.469 160.007 310.653 159.782 310.89 159.624C311.127 159.465 311.405 159.381 311.69 159.381C312.072 159.381 312.438 159.533 312.708 159.803C312.978 160.073 313.13 160.439 313.13 160.821Z" fill="#FF373F"/>
<path d="M317.864 160.821C317.864 161.106 317.78 161.384 317.622 161.621C317.463 161.858 317.239 162.042 316.975 162.151C316.712 162.26 316.423 162.289 316.143 162.233C315.864 162.178 315.608 162.04 315.406 161.839C315.205 161.638 315.068 161.381 315.012 161.102C314.956 160.822 314.985 160.533 315.094 160.27C315.203 160.007 315.388 159.782 315.624 159.624C315.861 159.465 316.14 159.381 316.424 159.381C316.806 159.381 317.173 159.533 317.443 159.803C317.713 160.073 317.864 160.439 317.864 160.821Z" fill="#FF373F"/>
<path d="M298.927 165.133C298.927 165.418 298.842 165.697 298.684 165.933C298.526 166.17 298.301 166.355 298.038 166.464C297.775 166.573 297.485 166.601 297.206 166.546C296.927 166.49 296.67 166.353 296.469 166.152C296.267 165.95 296.13 165.694 296.075 165.414C296.019 165.135 296.047 164.845 296.156 164.582C296.265 164.319 296.45 164.094 296.687 163.936C296.924 163.778 297.202 163.693 297.487 163.693C297.869 163.693 298.235 163.845 298.505 164.115C298.775 164.385 298.927 164.751 298.927 165.133Z" fill="#FF373F"/>
<path d="M303.661 165.133C303.661 165.418 303.577 165.697 303.419 165.933C303.26 166.17 303.035 166.355 302.772 166.464C302.509 166.573 302.22 166.601 301.94 166.546C301.661 166.49 301.404 166.353 301.203 166.152C301.002 165.95 300.864 165.694 300.809 165.414C300.753 165.135 300.782 164.845 300.891 164.582C301 164.319 301.184 164.094 301.421 163.936C301.658 163.778 301.936 163.693 302.221 163.693C302.603 163.693 302.969 163.845 303.239 164.115C303.51 164.385 303.661 164.751 303.661 165.133Z" fill="#FF373F"/>
<path d="M308.396 165.133C308.396 165.418 308.311 165.697 308.153 165.933C307.995 166.17 307.77 166.355 307.507 166.464C307.244 166.573 306.954 166.601 306.675 166.546C306.395 166.49 306.139 166.353 305.937 166.152C305.736 165.95 305.599 165.694 305.543 165.414C305.488 165.135 305.516 164.845 305.625 164.582C305.734 164.319 305.919 164.094 306.156 163.936C306.392 163.778 306.671 163.693 306.956 163.693C307.338 163.693 307.704 163.845 307.974 164.115C308.244 164.385 308.396 164.751 308.396 165.133Z" fill="#FF373F"/>
<path d="M313.13 165.133C313.13 165.418 313.046 165.697 312.887 165.933C312.729 166.17 312.504 166.355 312.241 166.464C311.978 166.573 311.688 166.601 311.409 166.546C311.13 166.49 310.873 166.353 310.672 166.152C310.47 165.95 310.333 165.694 310.278 165.414C310.222 165.135 310.251 164.845 310.36 164.582C310.469 164.319 310.653 164.094 310.89 163.936C311.127 163.778 311.405 163.693 311.69 163.693C312.072 163.693 312.438 163.845 312.708 164.115C312.978 164.385 313.13 164.751 313.13 165.133Z" fill="#FF373F"/>
<path d="M317.864 165.133C317.864 165.418 317.78 165.697 317.622 165.933C317.463 166.17 317.239 166.355 316.975 166.464C316.712 166.573 316.423 166.601 316.143 166.546C315.864 166.49 315.608 166.353 315.406 166.152C315.205 165.95 315.068 165.694 315.012 165.414C314.956 165.135 314.985 164.845 315.094 164.582C315.203 164.319 315.388 164.094 315.624 163.936C315.861 163.778 316.14 163.693 316.424 163.693C316.806 163.693 317.173 163.845 317.443 164.115C317.713 164.385 317.864 164.751 317.864 165.133Z" fill="#FF373F"/>
<path d="M298.927 169.438C298.927 169.723 298.842 170.001 298.684 170.238C298.526 170.475 298.301 170.659 298.038 170.768C297.775 170.877 297.485 170.906 297.206 170.85C296.927 170.795 296.67 170.658 296.469 170.456C296.267 170.255 296.13 169.998 296.075 169.719C296.019 169.44 296.047 169.15 296.156 168.887C296.265 168.624 296.45 168.399 296.687 168.241C296.924 168.082 297.202 167.998 297.487 167.998C297.869 167.998 298.235 168.15 298.505 168.42C298.775 168.69 298.927 169.056 298.927 169.438Z" fill="#FF373F"/>
<path d="M303.661 169.438C303.661 169.723 303.577 170.001 303.419 170.238C303.26 170.475 303.035 170.659 302.772 170.768C302.509 170.877 302.22 170.906 301.94 170.85C301.661 170.795 301.404 170.658 301.203 170.456C301.002 170.255 300.864 169.998 300.809 169.719C300.753 169.44 300.782 169.15 300.891 168.887C301 168.624 301.184 168.399 301.421 168.241C301.658 168.082 301.936 167.998 302.221 167.998C302.603 167.998 302.969 168.15 303.239 168.42C303.51 168.69 303.661 169.056 303.661 169.438Z" fill="#FF373F"/>
<path d="M308.396 169.438C308.396 169.723 308.311 170.001 308.153 170.238C307.995 170.475 307.77 170.659 307.507 170.768C307.244 170.877 306.954 170.906 306.675 170.85C306.395 170.795 306.139 170.658 305.937 170.456C305.736 170.255 305.599 169.998 305.543 169.719C305.488 169.44 305.516 169.15 305.625 168.887C305.734 168.624 305.919 168.399 306.156 168.241C306.392 168.082 306.671 167.998 306.956 167.998C307.338 167.998 307.704 168.15 307.974 168.42C308.244 168.69 308.396 169.056 308.396 169.438Z" fill="#FF373F"/>
<path d="M313.13 169.438C313.13 169.723 313.046 170.001 312.887 170.238C312.729 170.475 312.504 170.659 312.241 170.768C311.978 170.877 311.688 170.906 311.409 170.85C311.13 170.795 310.873 170.658 310.672 170.456C310.47 170.255 310.333 169.998 310.278 169.719C310.222 169.44 310.251 169.15 310.36 168.887C310.469 168.624 310.653 168.399 310.89 168.241C311.127 168.082 311.405 167.998 311.69 167.998C312.072 167.998 312.438 168.15 312.708 168.42C312.978 168.69 313.13 169.056 313.13 169.438Z" fill="#FF373F"/>
<path d="M317.864 169.438C317.864 169.723 317.78 170.001 317.622 170.238C317.463 170.475 317.239 170.659 316.975 170.768C316.712 170.877 316.423 170.906 316.143 170.85C315.864 170.795 315.608 170.658 315.406 170.456C315.205 170.255 315.068 169.998 315.012 169.719C314.956 169.44 314.985 169.15 315.094 168.887C315.203 168.624 315.388 168.399 315.624 168.241C315.861 168.082 316.14 167.998 316.424 167.998C316.806 167.998 317.173 168.15 317.443 168.42C317.713 168.69 317.864 169.056 317.864 169.438Z" fill="#FF373F"/>
<path d="M294.156 159.381H293.328V170.872H294.156V159.381Z" fill="#263238"/>
<path d="M320.1 135.865H245.789V153.03H320.1V135.865Z" fill="#37474F"/>
<path d="M291.214 138.701H248.914V140.148H291.214V138.701Z" fill="#455A64"/>
<path d="M291.214 141.207H248.914V142.654H291.214V141.207Z" fill="#455A64"/>
<path d="M291.214 143.721H248.914V145.168H291.214V143.721Z" fill="#455A64"/>
<path d="M291.214 146.232H248.914V147.68H291.214V146.232Z" fill="#455A64"/>
<path d="M291.214 148.746H248.914V150.193H291.214V148.746Z" fill="#455A64"/>
<path d="M298.927 140.135C298.927 140.42 298.842 140.699 298.684 140.935C298.526 141.172 298.301 141.357 298.038 141.466C297.775 141.575 297.485 141.603 297.206 141.548C296.927 141.492 296.67 141.355 296.469 141.154C296.267 140.952 296.13 140.696 296.075 140.416C296.019 140.137 296.047 139.847 296.156 139.584C296.265 139.321 296.45 139.096 296.687 138.938C296.924 138.78 297.202 138.695 297.487 138.695C297.869 138.695 298.235 138.847 298.505 139.117C298.775 139.387 298.927 139.753 298.927 140.135Z" fill="#FF373F"/>
<path d="M303.661 140.135C303.661 140.42 303.577 140.699 303.419 140.935C303.26 141.172 303.035 141.357 302.772 141.466C302.509 141.575 302.22 141.603 301.94 141.548C301.661 141.492 301.404 141.355 301.203 141.154C301.002 140.952 300.864 140.696 300.809 140.416C300.753 140.137 300.782 139.847 300.891 139.584C301 139.321 301.184 139.096 301.421 138.938C301.658 138.78 301.936 138.695 302.221 138.695C302.603 138.695 302.969 138.847 303.239 139.117C303.51 139.387 303.661 139.753 303.661 140.135Z" fill="#FF373F"/>
<path d="M308.396 140.135C308.396 140.42 308.311 140.699 308.153 140.935C307.995 141.172 307.77 141.357 307.507 141.466C307.244 141.575 306.954 141.603 306.675 141.548C306.395 141.492 306.139 141.355 305.937 141.154C305.736 140.952 305.599 140.696 305.543 140.416C305.488 140.137 305.516 139.847 305.625 139.584C305.734 139.321 305.919 139.096 306.156 138.938C306.392 138.78 306.671 138.695 306.956 138.695C307.338 138.695 307.704 138.847 307.974 139.117C308.244 139.387 308.396 139.753 308.396 140.135Z" fill="#FF373F"/>
<path d="M313.13 140.135C313.13 140.42 313.046 140.699 312.887 140.935C312.729 141.172 312.504 141.357 312.241 141.466C311.978 141.575 311.688 141.603 311.409 141.548C311.13 141.492 310.873 141.355 310.672 141.154C310.47 140.952 310.333 140.696 310.278 140.416C310.222 140.137 310.251 139.847 310.36 139.584C310.469 139.321 310.653 139.096 310.89 138.938C311.127 138.78 311.405 138.695 311.69 138.695C312.072 138.695 312.438 138.847 312.708 139.117C312.978 139.387 313.13 139.753 313.13 140.135Z" fill="#FF373F"/>
<path d="M317.864 140.135C317.864 140.42 317.78 140.699 317.622 140.935C317.463 141.172 317.239 141.357 316.975 141.466C316.712 141.575 316.423 141.603 316.143 141.548C315.864 141.492 315.608 141.355 315.406 141.154C315.205 140.952 315.068 140.696 315.012 140.416C314.956 140.137 314.985 139.847 315.094 139.584C315.203 139.321 315.388 139.096 315.624 138.938C315.861 138.78 316.14 138.695 316.424 138.695C316.806 138.695 317.173 138.847 317.443 139.117C317.713 139.387 317.864 139.753 317.864 140.135Z" fill="#FF373F"/>
<path d="M297.495 145.888C298.29 145.888 298.935 145.243 298.935 144.448C298.935 143.653 298.29 143.008 297.495 143.008C296.699 143.008 296.055 143.653 296.055 144.448C296.055 145.243 296.699 145.888 297.495 145.888Z" fill="#FF373F"/>
<path d="M303.661 144.448C303.661 144.733 303.577 145.011 303.419 145.248C303.26 145.485 303.035 145.669 302.772 145.778C302.509 145.887 302.22 145.916 301.94 145.86C301.661 145.805 301.404 145.667 301.203 145.466C301.002 145.265 300.864 145.008 300.809 144.729C300.753 144.449 300.782 144.16 300.891 143.897C301 143.634 301.184 143.409 301.421 143.251C301.658 143.092 301.936 143.008 302.221 143.008C302.603 143.008 302.969 143.16 303.239 143.43C303.51 143.7 303.661 144.066 303.661 144.448Z" fill="#FF373F"/>
<path d="M306.956 145.888C307.751 145.888 308.396 145.243 308.396 144.448C308.396 143.653 307.751 143.008 306.956 143.008C306.16 143.008 305.516 143.653 305.516 144.448C305.516 145.243 306.16 145.888 306.956 145.888Z" fill="#FF373F"/>
<path d="M313.13 144.448C313.13 144.733 313.046 145.011 312.887 145.248C312.729 145.485 312.504 145.669 312.241 145.778C311.978 145.887 311.688 145.916 311.409 145.86C311.13 145.805 310.873 145.667 310.672 145.466C310.47 145.265 310.333 145.008 310.278 144.729C310.222 144.449 310.251 144.16 310.36 143.897C310.469 143.634 310.653 143.409 310.89 143.251C311.127 143.092 311.405 143.008 311.69 143.008C312.072 143.008 312.438 143.16 312.708 143.43C312.978 143.7 313.13 144.066 313.13 144.448Z" fill="#FF373F"/>
<path d="M317.864 144.448C317.864 144.733 317.78 145.011 317.622 145.248C317.463 145.485 317.239 145.669 316.975 145.778C316.712 145.887 316.423 145.916 316.143 145.86C315.864 145.805 315.608 145.667 315.406 145.466C315.205 145.265 315.068 145.008 315.012 144.729C314.956 144.449 314.985 144.16 315.094 143.897C315.203 143.634 315.388 143.409 315.624 143.251C315.861 143.092 316.14 143.008 316.424 143.008C316.806 143.008 317.173 143.16 317.443 143.43C317.713 143.7 317.864 144.066 317.864 144.448Z" fill="#FF373F"/>
<path d="M298.927 148.752C298.927 149.037 298.842 149.316 298.684 149.553C298.526 149.789 298.301 149.974 298.038 150.083C297.775 150.192 297.485 150.22 297.206 150.165C296.927 150.109 296.67 149.972 296.469 149.771C296.267 149.569 296.13 149.313 296.075 149.033C296.019 148.754 296.047 148.465 296.156 148.201C296.265 147.938 296.45 147.713 296.687 147.555C296.924 147.397 297.202 147.312 297.487 147.312C297.869 147.312 298.235 147.464 298.505 147.734C298.775 148.004 298.927 148.371 298.927 148.752Z" fill="#FF373F"/>
<path d="M303.661 148.752C303.661 149.037 303.577 149.316 303.419 149.553C303.26 149.789 303.035 149.974 302.772 150.083C302.509 150.192 302.22 150.22 301.94 150.165C301.661 150.109 301.404 149.972 301.203 149.771C301.002 149.569 300.864 149.313 300.809 149.033C300.753 148.754 300.782 148.465 300.891 148.201C301 147.938 301.184 147.713 301.421 147.555C301.658 147.397 301.936 147.312 302.221 147.312C302.603 147.312 302.969 147.464 303.239 147.734C303.51 148.004 303.661 148.371 303.661 148.752Z" fill="#FF373F"/>
<path d="M308.396 148.752C308.396 149.037 308.311 149.316 308.153 149.553C307.995 149.789 307.77 149.974 307.507 150.083C307.244 150.192 306.954 150.22 306.675 150.165C306.395 150.109 306.139 149.972 305.937 149.771C305.736 149.569 305.599 149.313 305.543 149.033C305.488 148.754 305.516 148.465 305.625 148.201C305.734 147.938 305.919 147.713 306.156 147.555C306.392 147.397 306.671 147.312 306.956 147.312C307.338 147.312 307.704 147.464 307.974 147.734C308.244 148.004 308.396 148.371 308.396 148.752Z" fill="#FF373F"/>
<path d="M313.13 148.752C313.13 149.037 313.046 149.316 312.887 149.553C312.729 149.789 312.504 149.974 312.241 150.083C311.978 150.192 311.688 150.22 311.409 150.165C311.13 150.109 310.873 149.972 310.672 149.771C310.47 149.569 310.333 149.313 310.278 149.033C310.222 148.754 310.251 148.465 310.36 148.201C310.469 147.938 310.653 147.713 310.89 147.555C311.127 147.397 311.405 147.312 311.69 147.312C312.072 147.312 312.438 147.464 312.708 147.734C312.978 148.004 313.13 148.371 313.13 148.752Z" fill="#FF373F"/>
<path d="M317.864 148.752C317.864 149.037 317.78 149.316 317.622 149.553C317.463 149.789 317.239 149.974 316.975 150.083C316.712 150.192 316.423 150.22 316.143 150.165C315.864 150.109 315.608 149.972 315.406 149.771C315.205 149.569 315.068 149.313 315.012 149.033C314.956 148.754 314.985 148.465 315.094 148.201C315.203 147.938 315.388 147.713 315.624 147.555C315.861 147.397 316.14 147.312 316.424 147.312C316.806 147.312 317.173 147.464 317.443 147.734C317.713 148.004 317.864 148.371 317.864 148.752Z" fill="#FF373F"/>
<path d="M294.156 138.701H293.328V150.192H294.156V138.701Z" fill="#263238"/>
<path d="M307.972 121.58H210.016V127.023H307.972V121.58Z" fill="#37474F"/>
<path d="M210.999 276.531H200.062V287.468H210.999V276.531Z" fill="#263238"/>
<path d="M87.8982 92.317V94.4194H80.6406V84.0586H87.7974V86.161H83.0382V88.1698H87.1206V90.1138H83.0382V92.317H87.8982Z" fill="#263238"/>
<path d="M89.3594 94.4195V84.0587H94.025C94.4934 84.0546 94.9565 84.158 95.3786 84.3611C95.7947 84.5683 96.1683 84.8516 96.4802 85.1963C96.7822 85.5271 97.0257 85.907 97.2002 86.3195C97.3671 86.7211 97.4528 87.1518 97.4522 87.5867C97.4544 87.9 97.4156 88.2122 97.337 88.5155C97.2612 88.8064 97.1499 89.0869 97.0058 89.3507C96.8618 89.6139 96.6826 89.8561 96.473 90.0707C96.2603 90.2825 96.0177 90.462 95.753 90.6035L98.0282 94.4555H95.3282L93.3482 91.1147H91.7858V94.4555L89.3594 94.4195ZM91.7498 88.9907H93.9098C94.0532 88.9858 94.1935 88.9466 94.3187 88.8765C94.444 88.8064 94.5506 88.7073 94.6298 88.5875C94.8472 88.2896 94.9564 87.9264 94.9394 87.5579C94.9591 87.1842 94.8326 86.8175 94.5866 86.5355C94.4991 86.4266 94.3899 86.3371 94.2659 86.2727C94.142 86.2082 94.006 86.1702 93.8666 86.1611H91.7498V88.9907Z" fill="#263238"/>
<path d="M99.1328 94.4195V84.0587H103.798C104.267 84.0546 104.73 84.158 105.152 84.3611C105.556 84.5627 105.919 84.8359 106.225 85.1675C106.529 85.4965 106.773 85.8767 106.945 86.2907C107.114 86.6919 107.202 87.1225 107.204 87.5579C107.204 87.8715 107.163 88.1838 107.082 88.4867C107.006 88.7776 106.895 89.0581 106.75 89.3219C106.606 89.5851 106.427 89.8273 106.218 90.0419C106.005 90.2537 105.762 90.4332 105.498 90.5747L107.78 94.4267H105.08L103.093 91.0859H101.516V94.4267L99.1328 94.4195ZM101.523 88.9907H103.683C103.827 88.9858 103.967 88.9466 104.092 88.8765C104.217 88.8064 104.324 88.7073 104.403 88.5875C104.621 88.2896 104.73 87.9264 104.713 87.5579C104.733 87.1842 104.606 86.8175 104.36 86.5355C104.269 86.4222 104.154 86.33 104.023 86.2654C103.893 86.2008 103.75 86.1652 103.604 86.1611H101.516L101.523 88.9907Z" fill="#263238"/>
<path d="M113.446 94.5051C112.72 94.5146 112.001 94.3595 111.344 94.0515C110.732 93.7648 110.181 93.3612 109.724 92.8635C109.276 92.3701 108.922 91.7991 108.68 91.1787C108.436 90.5545 108.312 89.8903 108.313 89.2203C108.31 88.5464 108.439 87.8785 108.694 87.2547C109.202 85.9958 110.178 84.982 111.416 84.4251C112.069 84.1383 112.776 83.9935 113.489 84.0003C114.215 83.992 114.933 84.1445 115.592 84.4467C116.206 84.7361 116.757 85.1448 117.212 85.6491C117.658 86.1447 118.01 86.7183 118.249 87.3411C118.489 87.9536 118.614 88.6055 118.616 89.2635C118.617 89.9403 118.485 90.6106 118.227 91.2363C117.976 91.8546 117.612 92.421 117.154 92.9067C116.689 93.3949 116.134 93.7885 115.52 94.0659C114.869 94.3636 114.161 94.5135 113.446 94.5051ZM110.746 89.2491C110.746 89.6443 110.804 90.0375 110.919 90.4155C111.033 90.7742 111.209 91.1103 111.437 91.4091C111.668 91.7077 111.96 91.9532 112.294 92.1291C112.657 92.3075 113.057 92.3964 113.461 92.3883C113.857 92.3996 114.25 92.3144 114.606 92.1401C114.963 91.9657 115.271 91.7075 115.505 91.3875C115.731 91.0836 115.902 90.7424 116.009 90.3795C116.118 90.0076 116.174 89.6222 116.175 89.2347C116.176 88.8419 116.117 88.4511 116.002 88.0755C115.891 87.7141 115.713 87.3769 115.477 87.0819C115.242 86.7967 114.95 86.5637 114.62 86.3979C114.252 86.2272 113.852 86.1387 113.446 86.1387C113.041 86.1387 112.64 86.2272 112.273 86.3979C111.942 86.5763 111.653 86.8215 111.423 87.1179C111.195 87.4189 111.022 87.7577 110.912 88.1187C110.804 88.486 110.748 88.8665 110.746 89.2491Z" fill="#263238"/>
<path d="M120.008 94.4195V84.0587H124.681C125.147 84.0544 125.608 84.1579 126.027 84.3611C126.432 84.5603 126.796 84.8339 127.1 85.1675C127.404 85.4967 127.648 85.877 127.82 86.2907C127.983 86.6933 128.069 87.1234 128.072 87.5579C128.074 87.8712 128.035 88.1835 127.957 88.4867C127.878 88.7779 127.765 89.0584 127.618 89.3219C127.477 89.5866 127.297 89.8292 127.085 90.0419C126.872 90.2525 126.629 90.4319 126.365 90.5747L128.641 94.4267H125.941L123.953 91.0859H122.405V94.4267L120.008 94.4195ZM122.405 88.9907H124.565C124.709 88.9858 124.849 88.9466 124.974 88.8765C125.1 88.8064 125.206 88.7073 125.285 88.5875C125.499 88.2878 125.608 87.9259 125.595 87.5579C125.61 87.1849 125.484 86.8198 125.242 86.5355C125.149 86.4236 125.034 86.3325 124.904 86.268C124.774 86.2035 124.631 86.1671 124.486 86.1611H122.405V88.9907Z" fill="#263238"/>
<path d="M52.3606 110.842V126.833C53.5533 125.187 55.1851 123.909 57.0694 123.147C58.2677 122.686 59.5443 122.463 60.8278 122.491C65.7526 122.491 69.3886 124.215 71.7358 127.661C73.7614 130.637 74.7742 134.839 74.7742 140.268V156.317C74.7742 161.827 73.0294 166.347 69.5398 169.875C67.9087 171.554 65.9463 172.875 63.7771 173.755C61.608 174.635 59.2796 175.054 56.9398 174.987C54.6331 175.04 52.3425 174.589 50.2283 173.665C48.1141 172.741 46.2272 171.366 44.6998 169.637C41.5752 166.242 39.892 161.765 40.0054 157.152V155.367L50.755 154.56L50.9926 157.116C51.2758 160.087 52.4758 162.07 54.5926 163.063C55.2203 163.378 55.9134 163.541 56.6158 163.539C61.2094 163.539 63.5062 161.139 63.5062 156.339V138.065C63.5309 137.043 63.3294 136.029 62.9162 135.094C62.5029 134.159 61.8881 133.327 61.1158 132.658C60.2237 131.936 59.0929 131.576 57.9478 131.65C57.0698 131.598 56.1942 131.786 55.4153 132.195C54.6364 132.603 53.9835 133.216 53.527 133.968C52.7449 135.258 52.3315 136.737 52.3318 138.245V140.268H41.1286V99.5449H74.0038V110.842H52.3606Z" fill="#FF373F"/>
<path d="M119.827 157.151C119.814 160.668 118.762 164.104 116.802 167.024C114.842 169.945 112.061 172.22 108.811 173.564C105.56 174.908 101.985 175.26 98.5347 174.577C95.0844 173.893 91.9134 172.204 89.4209 169.722C87.7441 168.092 86.419 166.135 85.5274 163.973C84.6358 161.811 84.1966 159.489 84.2369 157.151V116.485C84.2343 112.958 85.2786 109.51 87.2374 106.576C89.1962 103.643 91.9814 101.357 95.2404 100.008C98.4994 98.6584 102.086 98.3066 105.545 98.997C109.004 99.6873 112.18 101.389 114.671 103.885C116.342 105.526 117.661 107.489 118.55 109.655C119.438 111.821 119.878 114.145 119.841 116.485L119.827 157.151ZM108.177 116.248C108.177 114.529 107.494 112.881 106.279 111.666C105.064 110.451 103.416 109.768 101.697 109.768C100.848 109.754 100.006 109.916 99.2231 110.243C98.44 110.57 97.733 111.055 97.1465 111.669C96.5423 112.267 96.0651 112.98 95.7434 113.767C95.4217 114.554 95.2622 115.398 95.2745 116.248V156.971C95.2614 157.821 95.4205 158.665 95.7422 159.452C96.064 160.239 96.5416 160.953 97.1465 161.55C97.733 162.164 98.44 162.649 99.2231 162.976C100.006 163.303 100.848 163.465 101.697 163.451C103.416 163.451 105.064 162.768 106.279 161.553C107.494 160.338 108.177 158.69 108.177 156.971V116.248Z" fill="#FF373F"/>
<path d="M165.135 157.152C165.135 161.874 163.259 166.403 159.92 169.742C156.58 173.082 152.051 174.958 147.329 174.958C142.607 174.958 138.078 173.082 134.739 169.742C131.399 166.403 129.523 161.874 129.523 157.152V116.486C129.523 112.959 130.569 109.511 132.528 106.578C134.488 103.646 137.274 101.36 140.533 100.011C143.792 98.6625 147.378 98.3107 150.837 99.0005C154.296 99.6902 157.473 101.391 159.965 103.886C161.635 105.527 162.955 107.49 163.844 109.656C164.732 111.822 165.171 114.146 165.135 116.486V157.152ZM153.478 116.249C153.478 114.53 152.795 112.882 151.58 111.667C150.365 110.452 148.716 109.769 146.998 109.769C146.149 109.754 145.307 109.915 144.523 110.242C143.74 110.57 143.033 111.056 142.447 111.67C141.842 112.267 141.364 112.98 141.042 113.767C140.72 114.554 140.562 115.399 140.575 116.249V156.972C140.561 157.822 140.719 158.667 141.041 159.454C141.363 160.241 141.841 160.955 142.447 161.551C143.033 162.165 143.74 162.651 144.523 162.978C145.307 163.306 146.149 163.467 146.998 163.452C148.716 163.452 150.365 162.769 151.58 161.554C152.795 160.339 153.478 158.691 153.478 156.972V116.249Z" fill="#FF373F"/>
<path d="M50.4123 254.693H31.2891V273.817H50.4123V254.693Z" fill="#37474F"/>
<path d="M40.8473 270.634C44.3745 270.634 47.2337 267.775 47.2337 264.248C47.2337 260.721 44.3745 257.861 40.8473 257.861C37.3202 257.861 34.4609 260.721 34.4609 264.248C34.4609 267.775 37.3202 270.634 40.8473 270.634Z" fill="#455A64"/>
<path d="M39.6822 261.67H38.2422V266.94H39.6822V261.67Z" fill="#263238"/>
<path d="M43.69 261.67H42.25V266.94H43.69V261.67Z" fill="#263238"/>
<path d="M26.5312 303.546L64.9001 303.373L103.269 303.308L179.999 303.186L256.73 303.308L295.098 303.373L333.467 303.546L295.098 303.726L256.73 303.79L179.999 303.906L103.269 303.783L64.9001 303.718L26.5312 303.546Z" fill="#263238"/>
<path d="M273.561 121.579H214.045L209.438 81.1582H268.953L273.561 121.579Z" fill="#A6A6A6"/>
<path d="M270.323 118.872H216.676L212.688 83.873H266.335L270.323 118.872Z" fill="white"/>
<path d="M237.186 102.282L236.329 103.305L227.891 96.0185L228.747 94.9961L237.186 102.282Z" fill="#FF373F"/>
<path d="M235.01 94.9961L236.191 96.0185L230.064 103.305L228.883 102.282L235.01 94.9961Z" fill="#FF373F"/>
<path d="M255.233 102.282L254.376 103.305L245.938 96.0185L246.794 94.9961L255.233 102.282Z" fill="#FF373F"/>
<path d="M253.057 94.9961L254.238 96.0185L248.11 103.305L246.93 102.282L253.057 94.9961Z" fill="#FF373F"/>
<path d="M226.809 109.288L226.578 107.848H259.288L259.518 109.288H226.809Z" fill="#FF373F"/>
<path d="M291.026 118.871H214.461V121.585H291.026V118.871Z" fill="#A6A6A6"/>
<path d="M297.492 118.871H231.094V121.585H297.492V118.871Z" fill="#C7C7C7"/>
<path d="M266.529 85.5722L266.335 83.873H212.688L212.882 85.5722H266.529Z" fill="#263238"/>
<path d="M217.203 84.7217C217.211 84.8308 217.259 84.9332 217.337 85.01C217.415 85.0867 217.518 85.1327 217.628 85.1393C217.679 85.1383 217.729 85.126 217.774 85.1034C217.82 85.0808 217.86 85.0484 217.892 85.0085C217.923 84.9686 217.946 84.9222 217.957 84.8726C217.969 84.823 217.969 84.7715 217.959 84.7217C217.952 84.6112 217.905 84.5071 217.827 84.4289C217.749 84.3506 217.644 84.3037 217.534 84.2969C217.483 84.2989 217.433 84.3121 217.387 84.3355C217.341 84.359 217.301 84.392 217.27 84.4325C217.238 84.4729 217.216 84.5197 217.204 84.5697C217.193 84.6196 217.192 84.6715 217.203 84.7217Z" fill="#C7C7C7"/>
<path d="M215.647 84.7217C215.657 84.8314 215.706 84.9339 215.785 85.0106C215.864 85.0872 215.969 85.1329 216.079 85.1393C216.129 85.137 216.178 85.124 216.223 85.101C216.268 85.078 216.308 85.0456 216.339 85.006C216.371 84.9664 216.393 84.9206 216.406 84.8715C216.418 84.8224 216.419 84.7713 216.41 84.7217C216.401 84.6118 216.354 84.5085 216.276 84.4305C216.198 84.3526 216.095 84.3052 215.985 84.2969C215.934 84.2991 215.883 84.3124 215.837 84.3357C215.791 84.359 215.751 84.392 215.719 84.4322C215.687 84.4725 215.664 84.5192 215.651 84.5691C215.639 84.619 215.637 84.671 215.647 84.7217Z" fill="white"/>
<path d="M214.093 84.7217C214.102 84.8308 214.15 84.9332 214.228 85.01C214.306 85.0867 214.409 85.1327 214.518 85.1393C214.569 85.1383 214.619 85.126 214.665 85.1034C214.71 85.0808 214.751 85.0484 214.782 85.0085C214.814 84.9686 214.836 84.9222 214.848 84.8726C214.86 84.823 214.86 84.7715 214.849 84.7217C214.843 84.6112 214.796 84.5071 214.717 84.4289C214.639 84.3506 214.535 84.3037 214.425 84.2969C214.373 84.2989 214.323 84.3121 214.278 84.3355C214.232 84.359 214.192 84.392 214.161 84.4325C214.129 84.4729 214.107 84.5197 214.095 84.5697C214.083 84.6196 214.083 84.6715 214.093 84.7217Z" fill="#FF373F"/>
<path d="M149.142 326.778C141.387 326.778 132.826 326.642 124.222 326.483C119.787 326.404 116.302 326.339 114.099 326.339C102.918 326.339 99.6991 311.939 96.5887 298.072C96.1567 296.135 95.7248 294.198 95.2712 292.312C94.3784 288.59 93.6511 284.838 92.9383 281.202C90.7783 269.963 88.8559 260.265 83.9023 259.732C77.3575 259.012 71.5327 268.818 69.4087 284.09L67.9688 283.895C70.2079 267.796 76.6663 257.5 84.0391 258.299C90.0511 258.94 92.0384 269.099 94.3352 280.929C95.0552 284.529 95.7752 288.287 96.6536 291.974C97.1144 293.882 97.5463 295.833 97.9855 297.777C101.11 311.73 104.062 324.914 114.085 324.914C116.281 324.914 119.794 324.978 124.237 325.058C133.971 325.245 147.277 325.49 158.581 325.266C176.883 324.906 179.05 323.466 179.274 323.027C179.274 320.032 159.949 316.432 152.677 315.071C145.405 313.71 145.045 313.631 145.124 312.746C145.203 311.86 146.096 311.932 147.464 311.932H177.661C187.129 311.932 190.182 298.31 192.01 290.166C192.323 288.418 192.788 286.7 193.4 285.033C195.517 280.626 200.874 281.267 201.097 281.296L200.91 282.736C200.722 282.736 196.359 282.203 194.696 285.666C194.143 287.238 193.714 288.851 193.414 290.49C191.492 299.051 188.288 313.379 177.661 313.379H151.453L152.958 313.66C170.54 316.943 180.721 319.542 180.721 323.092C180.718 323.286 180.675 323.476 180.594 323.652C180.514 323.828 180.397 323.986 180.253 324.114C178.114 326.195 165.392 326.778 149.142 326.778Z" fill="#263238"/>
<path d="M73.2633 283.033L64.4375 282.504L64.12 287.801L72.9458 288.33L73.2633 283.033Z" fill="#455A64"/>
<path d="M71.6928 281.256L66.1875 280.926L66.0867 282.608L71.592 282.938L71.6928 281.256Z" fill="#37474F"/>
<path d="M67.0421 287.982L66 287.92L65.7579 291.959L66.8 292.022L67.0421 287.982Z" fill="#FF373F"/>
<path d="M71.0349 288.212L70 288.15L69.7579 292.19L70.7929 292.252L71.0349 288.212Z" fill="#FF373F"/>
<path d="M203.797 277.58V286.422H207.663V277.58H203.797Z" fill="#455A64"/>
<path d="M200.68 279.245V284.76H203.804V279.245H200.68Z" fill="#37474F"/>
</svg>
