<svg width="381" height="346" viewBox="0 0 381 346" fill="none" xmlns="http://www.w3.org/2000/svg">
<path d="M190.767 345.108C286.067 345.108 363.323 267.853 363.323 172.554C363.323 77.2549 286.067 0 190.767 0C95.4668 0 18.2109 77.2549 18.2109 172.554C18.2109 267.853 95.4668 345.108 190.767 345.108Z" fill="#E5F3FF"/>
<path d="M381 322.266H349.25V322.505H381V322.266Z" fill="#EBEBEB"/>
<path d="M267.229 324.877H258.898V325.117H267.229V324.877Z" fill="#EBEBEB"/>
<path d="M348.295 313.375H329.898V313.615H348.295V313.375Z" fill="#EBEBEB"/>
<path d="M41.4038 314.984H0V315.224H41.4038V314.984Z" fill="#EBEBEB"/>
<path d="M56.0213 314.984H49.9531V315.224H56.0213V314.984Z" fill="#EBEBEB"/>
<path d="M165.54 319.029H75.7344V319.269H165.54V319.029Z" fill="#EBEBEB"/>
<path d="M294.166 122.642C321.92 122.642 344.418 100.143 344.418 72.3903C344.418 44.6371 321.92 22.1387 294.166 22.1387C266.413 22.1387 243.914 44.6371 243.914 72.3903C243.914 100.143 266.413 122.642 294.166 122.642Z" fill="#074881"/>
<path d="M290.354 122.642C318.107 122.642 340.606 100.143 340.606 72.3903C340.606 44.6371 318.107 22.1387 290.354 22.1387C262.6 22.1387 240.102 44.6371 240.102 72.3903C240.102 100.143 262.6 122.642 290.354 122.642Z" fill="#026FCE"/>
<path d="M323.207 105.239C341.346 87.1004 341.346 57.6926 323.207 39.5543C305.069 21.4161 275.661 21.4161 257.522 39.5543C239.384 57.6926 239.384 87.1004 257.522 105.239C275.661 123.377 305.069 123.377 323.207 105.239Z" fill="#E5F3FF"/>
<path d="M298.275 106.192C298.022 106.193 297.776 106.108 297.578 105.951C297.38 105.795 297.24 105.576 297.182 105.33L289.263 72.6594C289.207 72.3738 289.264 72.0777 289.42 71.8326C289.577 71.5874 289.822 71.412 290.105 71.3429C290.387 71.2738 290.686 71.3163 290.938 71.4615C291.19 71.6066 291.376 71.8434 291.459 72.1225L299.367 104.802C299.437 105.093 299.388 105.4 299.232 105.655C299.075 105.91 298.824 106.093 298.533 106.164C298.448 106.183 298.362 106.192 298.275 106.192Z" fill="#CDE8FF"/>
<path d="M290.349 74.6429C290.053 74.643 289.76 74.5846 289.487 74.4711C289.214 74.3576 288.966 74.1912 288.757 73.9815L261.58 46.8042C261.371 46.5946 261.205 46.3459 261.092 46.0723C260.979 45.7986 260.921 45.5055 260.922 45.2095C260.923 44.6117 261.161 44.0388 261.584 43.6167C262.008 43.1947 262.581 42.9581 263.179 42.959C263.777 42.9599 264.35 43.1982 264.772 43.6215L290.349 69.2075L305.275 54.2815C305.698 53.8595 306.272 53.6229 306.869 53.6238C307.467 53.6247 308.04 53.863 308.462 54.2863C308.884 54.7097 309.121 55.2833 309.12 55.8811C309.119 56.4788 308.881 57.0517 308.457 57.4738L291.94 73.9815C291.518 74.4042 290.946 74.6421 290.349 74.6429Z" fill="#026FCE"/>
<path d="M162.036 299.846H169.609V247.984H162.036V299.846Z" fill="#945A09"/>
<path d="M8.86459 306.844H164.625V299.846H8.86459V306.844Z" fill="#945A09"/>
<path d="M162.045 247.982H3.85938V299.845H162.045V247.982Z" fill="#FF9500"/>
<path d="M151.805 257.016H14.0859V286.637H151.805V257.016Z" fill="#FFECD2"/>
<path d="M49.4532 260.973H116.462C117.717 260.973 118.734 259.955 118.734 258.701V258.279C118.734 257.024 117.717 256.007 116.462 256.007H49.4532C48.1984 256.007 47.1812 257.024 47.1812 258.279V258.701C47.1812 259.955 48.1984 260.973 49.4532 260.973Z" fill="#945A09"/>
<path d="M0.398621 247.982L162.055 247.982V243.352L0.398621 243.352V247.982Z" fill="#FFF5E6"/>
<path d="M173.261 243.354H162.055V247.984H173.261V243.354Z" fill="#FFECD2"/>
<path d="M361.63 193.227H346.867V306.844H361.63V193.227Z" fill="#945A09"/>
<path d="M217.652 306.844H346.867V193.226H217.652V306.844Z" fill="#FF9500"/>
<path d="M216.468 296.865H329.914V236.097H216.468V296.865Z" fill="#FFECD2"/>
<path d="M216.468 229.656H329.914V209.65H216.468V229.656Z" fill="#FFECD2"/>
<g opacity="0.7" style="mix-blend-mode:multiply">
<path d="M330.93 236.096H329.914V296.864H330.93V236.096Z" fill="#E6E6E6"/>
</g>
<g opacity="0.7" style="mix-blend-mode:multiply">
<path d="M330.93 209.648H329.914V229.655H330.93V209.648Z" fill="#E6E6E6"/>
</g>
<g opacity="0.7" style="mix-blend-mode:multiply">
<path d="M361.617 198.021H217.312V200.591H361.617V198.021Z" fill="#E6E6E6"/>
</g>
<path d="M363.356 191.672H346.867V199.101H363.356V191.672Z" fill="#FFECD2"/>
<path d="M215.926 199.104L346.867 199.104V191.674L215.926 191.674V199.104Z" fill="#FFF5E6"/>
<path d="M265.044 169.799C264.153 168.396 263.565 166.822 263.318 165.178C263.058 163.537 262.974 161.872 263.069 160.213C263.274 156.911 263.979 153.659 265.159 150.569C265.72 149.035 266.36 147.531 267.076 146.063C267.843 144.625 268.61 143.187 269.473 141.816C270.335 140.446 271.284 139.123 272.262 137.838C273.24 136.554 274.342 135.355 275.483 134.195C274.927 135.739 274.266 137.196 273.566 138.653C272.866 140.11 272.32 141.577 271.649 142.996L269.789 147.309L268.936 149.486L268.495 150.569L268.111 151.662C267.016 154.542 266.147 157.504 265.513 160.519C265.184 162.026 264.96 163.554 264.842 165.092C264.699 166.663 264.767 168.246 265.044 169.799Z" fill="#36B561"/>
<path d="M246.441 172.337C246.565 170.022 246.361 167.702 245.837 165.444C245.347 163.386 244.386 161.469 243.029 159.846C241.582 158.237 239.87 156.888 237.967 155.858C236.002 154.717 233.835 153.825 231.602 152.771C234.084 152.506 236.594 152.774 238.964 153.557C240.188 153.958 241.36 154.505 242.453 155.187C243.571 155.906 244.582 156.781 245.454 157.784C247.195 159.838 248.206 162.41 248.33 165.099C248.462 167.648 247.802 170.177 246.441 172.337Z" fill="#36B561"/>
<path d="M247.269 172.002C247.188 169.305 246.935 166.615 246.512 163.95C246.116 161.41 245.411 158.928 244.412 156.559C243.413 154.23 242.04 152.08 240.348 150.193C238.521 148.243 236.49 146.495 234.289 144.979C237.124 145.418 239.798 146.58 242.054 148.353C244.366 150.19 246.182 152.575 247.336 155.293C248.474 157.968 249.039 160.852 248.995 163.758C249.011 166.598 248.423 169.408 247.269 172.002Z" fill="#36B561"/>
<path d="M263.774 167.106C261.691 164.404 259.922 161.474 258.501 158.373C257.056 155.279 255.867 152.073 254.944 148.786C254.011 145.49 253.392 142.114 253.094 138.701C252.78 135.29 252.938 131.851 253.564 128.482C254.264 131.847 254.801 135.097 255.568 138.328C256.335 141.558 257.101 144.741 258.012 147.914C258.923 151.087 259.843 154.26 260.831 157.433C261.818 160.606 262.825 163.827 263.774 167.106Z" fill="#36B561"/>
<path d="M262.911 166.864C260.538 164.543 258.423 161.971 256.604 159.195C254.781 156.426 253.179 153.519 251.81 150.5C250.423 147.474 249.319 144.326 248.513 141.096C247.697 137.861 247.326 134.529 247.41 131.193C248.618 134.319 249.663 137.348 250.9 140.329C252.136 143.31 253.363 146.263 254.734 149.187C256.105 152.111 257.428 155.025 258.828 157.958C260.227 160.892 261.579 163.816 262.911 166.864Z" fill="#36B561"/>
<path d="M266.467 169.931C263.779 168.507 261.283 166.748 259.038 164.696C256.777 162.658 254.713 160.412 252.874 157.986C250.997 155.574 249.39 152.964 248.081 150.202C246.77 147.443 245.897 144.496 245.492 141.469C247.141 144.047 248.598 146.569 250.285 148.975C251.973 151.381 253.602 153.768 255.395 156.059C257.188 158.35 258.98 160.651 260.84 162.933C262.7 165.214 264.588 167.534 266.467 169.931Z" fill="#36B561"/>
<path d="M261.272 166.885C258.66 165.809 256.239 164.32 254.101 162.475C251.944 160.661 250.013 158.595 248.349 156.32C247.503 155.186 246.723 154.005 246.01 152.783C245.316 151.544 244.698 150.263 244.16 148.948C243.057 146.345 242.381 143.58 242.156 140.762C243.661 143.168 244.898 145.555 246.393 147.798C247.065 148.958 247.87 150.032 248.57 151.163C249.269 152.294 250.084 153.349 250.909 154.403C252.494 156.538 254.155 158.631 255.894 160.682C257.581 162.762 259.354 164.785 261.272 166.885Z" fill="#36B561"/>
<path d="M265.353 168.523C264.113 167.648 263.122 166.466 262.477 165.092C261.811 163.72 261.343 162.261 261.087 160.759C260.608 157.778 260.692 154.735 261.336 151.786C261.647 150.339 262.031 148.908 262.487 147.501C263.033 146.13 263.522 144.74 264.174 143.426C264.826 142.113 265.516 140.829 266.293 139.592C267.091 138.366 267.952 137.183 268.871 136.045C268.565 137.492 268.133 138.863 267.721 140.234C267.309 141.605 266.964 142.985 266.513 144.318C266.063 145.65 265.794 147.031 265.382 148.363L264.912 150.386C264.749 151.057 264.557 151.728 264.462 152.409C263.883 155.07 263.588 157.786 263.58 160.509C263.568 161.87 263.69 163.228 263.944 164.564C264.183 165.955 264.66 167.294 265.353 168.523Z" fill="#36B561"/>
<path d="M263.573 165.465C261.471 163.219 259.948 160.495 259.134 157.528C258.249 154.533 257.966 151.392 258.3 148.287C258.348 147.51 258.54 146.753 258.664 145.986L258.885 144.836L259.22 143.724C259.47 142.985 259.681 142.247 259.959 141.528C260.237 140.809 260.601 140.119 260.917 139.429L261.435 138.403L262.058 137.445L263.323 135.527C264.27 134.347 265.291 133.23 266.382 132.182C265.883 133.629 265.222 134.943 264.685 136.304L263.927 138.346L263.544 139.304L263.237 140.34C263.036 141.02 262.825 141.701 262.604 142.372L262.135 144.433L261.885 145.459L261.742 146.494C261.655 147.184 261.483 147.874 261.445 148.565C261.152 151.355 261.191 154.171 261.56 156.953C261.915 159.856 262.59 162.711 263.573 165.465Z" fill="#36B561"/>
<path d="M259.519 164.297L245.781 152.074L247.814 168.668L259.519 164.297Z" fill="#36B561"/>
<path d="M233.047 162.064H272.907L267.683 191.677H238.271L233.047 162.064Z" fill="#F5F5F5"/>
<path d="M257.945 162.064H272.9L267.676 191.677H259.824L257.945 162.064Z" fill="#EBEBEB"/>
<path d="M308.103 169.856C308.29 168.547 308.235 167.215 307.94 165.926C307.686 164.693 307.29 163.493 306.761 162.35C305.686 160.058 304.324 157.913 302.706 155.966C302.341 155.439 301.871 155.007 301.459 154.499C301.047 153.991 300.625 153.54 300.184 153.032C299.226 152.074 298.401 151.115 297.452 150.156C296.503 149.198 295.592 148.239 294.634 147.281C293.675 146.322 292.716 145.363 291.758 144.318C293.052 144.807 294.279 145.411 295.525 146.025C296.734 146.69 297.909 147.416 299.044 148.201C299.616 148.593 300.166 149.015 300.692 149.466C301.229 149.907 301.756 150.367 302.284 150.818C303.306 151.782 304.266 152.81 305.16 153.895C307.001 156.112 308.344 158.697 309.1 161.478C309.463 162.885 309.59 164.343 309.474 165.792C309.408 167.249 308.933 168.658 308.103 169.856Z" fill="#36B561"/>
<path d="M330.517 165.839C329.507 164.969 328.759 163.833 328.36 162.561C328.138 161.906 327.994 161.227 327.928 160.538C327.909 160.187 327.909 159.835 327.928 159.484C327.917 159.133 327.949 158.782 328.024 158.439C328.587 155.712 330.012 153.238 332.089 151.383C332.568 150.914 333.115 150.54 333.623 150.118C334.128 149.698 334.667 149.32 335.233 148.987C335.789 148.661 336.345 148.325 336.921 148.028C337.199 147.875 337.477 147.702 337.774 147.568L338.656 147.194C339.25 146.945 339.844 146.715 340.439 146.485C341.03 146.246 341.639 146.053 342.26 145.909C343.495 145.588 344.746 145.332 346.008 145.143C345.017 145.928 343.984 146.657 342.912 147.328C342.385 147.645 341.886 147.999 341.388 148.364C340.889 148.728 340.429 149.054 339.873 149.389C338.828 150.012 337.956 150.808 336.997 151.479C336.519 151.815 336.064 152.183 335.636 152.582C335.195 152.965 334.677 153.31 334.313 153.713C332.653 155.181 331.342 157.002 330.478 159.043C330.296 159.556 330.148 160.081 330.037 160.615C329.949 161.17 329.904 161.731 329.903 162.293C329.903 163.501 330.11 164.701 330.517 165.839Z" fill="#36B561"/>
<path d="M329.49 165.839C327.759 163.584 326.816 160.822 326.806 157.978C326.766 155.066 327.508 152.196 328.954 149.667L330.104 147.846C330.545 147.28 331.015 146.743 331.484 146.206L332.203 145.411L332.989 144.721L334.6 143.369C335.738 142.579 336.919 141.853 338.137 141.193C339.388 140.626 340.668 140.127 341.972 139.697C341.013 140.713 340.055 141.615 339.029 142.477C338.003 143.34 337.169 144.327 336.268 145.238C335.846 145.737 335.434 146.197 335.003 146.686L334.36 147.386L333.814 148.152C333.45 148.661 333.047 149.111 332.692 149.648L331.734 151.23C330.518 153.363 329.697 155.698 329.308 158.122C328.911 160.685 328.973 163.298 329.49 165.839Z" fill="#36B561"/>
<path d="M309.328 167.259C310.124 164.297 310.987 161.44 311.821 158.631C312.655 155.822 313.469 152.956 314.217 150.118C314.965 147.281 315.588 144.424 316.134 141.491C316.681 138.557 316.978 135.739 317.237 132.633C318.244 135.56 318.718 138.645 318.637 141.74C318.521 144.821 318.074 147.881 317.304 150.866C316.522 153.833 315.466 156.722 314.15 159.494C312.864 162.268 311.244 164.876 309.328 167.259Z" fill="#36B561"/>
<path d="M310.328 166.778C311.574 163.902 312.916 161.027 314.239 158.275C315.562 155.524 316.895 152.725 318.17 149.945C319.445 147.165 320.672 144.375 321.813 141.547C322.953 138.719 323.931 135.795 324.89 132.785C325.186 135.968 324.956 139.177 324.209 142.285C323.453 145.376 322.403 148.387 321.075 151.277C319.74 154.145 318.178 156.902 316.406 159.521C314.65 162.155 312.612 164.588 310.328 166.778Z" fill="#36B561"/>
<path d="M306.43 170.428C308.299 167.858 310.264 165.433 312.182 163.008C314.099 160.582 316.016 158.215 317.876 155.77C319.736 153.325 321.557 150.9 323.302 148.389C325.047 145.877 326.638 143.289 328.258 140.547C327.834 143.715 326.891 146.792 325.468 149.654C324.043 152.497 322.348 155.197 320.407 157.716C318.464 160.211 316.326 162.548 314.013 164.704C311.701 166.883 309.158 168.802 306.43 170.428Z" fill="#36B561"/>
<path d="M312.297 166.251C314.128 163.96 315.959 161.793 317.761 159.598C319.563 157.403 321.308 155.227 323.015 153.012C324.721 150.798 326.303 148.516 327.808 146.187C329.313 143.857 330.684 141.394 332.16 138.844C331.944 141.791 331.218 144.678 330.013 147.376C328.812 150.07 327.296 152.612 325.497 154.949C323.714 157.274 321.704 159.416 319.496 161.343C317.324 163.29 314.903 164.94 312.297 166.251Z" fill="#36B561"/>
<path d="M307.614 168.926C308.655 166.847 309.156 164.539 309.071 162.216C308.944 159.998 308.377 157.828 307.403 155.831L307.077 155.055L306.665 154.307L305.86 152.792C305.217 151.834 304.642 150.808 303.942 149.82C303.243 148.833 302.61 147.846 301.901 146.858C301.156 145.865 300.461 144.835 299.82 143.771C300.923 144.378 301.992 145.043 303.022 145.765C304.027 146.531 304.988 147.353 305.898 148.229C306.353 148.674 306.779 149.148 307.173 149.648C307.582 150.14 307.985 150.639 308.381 151.143L309.407 152.802L309.896 153.645L310.298 154.547C311.468 156.977 311.901 159.696 311.545 162.369C311.374 163.673 310.937 164.928 310.261 166.056C309.585 167.184 308.684 168.161 307.614 168.926Z" fill="#36B561"/>
<path d="M309.398 165.868C310.187 163.492 310.727 161.041 311.009 158.554C311.268 156.235 311.096 153.888 310.501 151.632C310.202 150.52 309.784 149.443 309.254 148.421C308.727 147.366 308.105 146.362 307.395 145.42C305.869 143.426 304.196 141.548 302.391 139.803C304.959 140.563 307.313 141.916 309.264 143.752C310.281 144.688 311.165 145.759 311.891 146.935C312.639 148.123 313.207 149.415 313.578 150.77C314.3 153.479 314.257 156.336 313.453 159.023C312.727 161.622 311.328 163.983 309.398 165.868Z" fill="#36B561"/>
<path d="M314.086 163.596L329.079 149.197L328.475 163.318L314.086 163.596Z" fill="#36B561"/>
<path d="M297.68 162.064H337.54L332.315 191.677H302.904L297.68 162.064Z" fill="#F5F5F5"/>
<path d="M322.578 162.064H337.543L332.318 191.677H324.467L322.578 162.064Z" fill="#EBEBEB"/>
<path d="M49.2792 27.2305V182.529C49.2792 188.987 46.7138 195.18 42.1474 199.747C37.581 204.313 31.3876 206.879 24.9297 206.879H138.05C144.508 206.879 150.703 204.314 155.271 199.747C159.839 195.181 162.406 188.988 162.409 182.529V27.2305H49.2792Z" fill="#F5F5F5"/>
<path d="M144.659 66.543H71.5625V139.639H144.659V66.543Z" fill="#F0F0F0"/>
<path d="M142.417 64.291H69.3203V137.387H142.417V64.291Z" fill="white"/>
<path d="M87.26 148.209H68.6719V166.797H87.26V148.209Z" fill="white"/>
<path d="M142.401 148.209H123.812V166.797H142.401V148.209Z" fill="white"/>
<path d="M114.83 148.209H96.2422V166.797H114.83V148.209Z" fill="white"/>
<path d="M162.43 27.2305H49.2812V45.7129H162.43V27.2305Z" fill="#FF373F"/>
<path d="M56.1172 21.2956V33.1635C56.1159 33.5981 56.2006 34.0288 56.3664 34.4306C56.5321 34.8324 56.7757 35.1975 57.0831 35.5049C57.3904 35.8123 57.7555 36.0558 58.1574 36.2216C58.5592 36.3873 58.9898 36.472 59.4245 36.4708C59.8588 36.4708 60.2889 36.3852 60.6902 36.219C61.0914 36.0528 61.456 35.8092 61.7632 35.5021C62.0703 35.195 62.3139 34.8304 62.4801 34.4291C62.6463 34.0278 62.7318 33.5978 62.7318 33.1635V21.2956C62.7293 20.4192 62.3801 19.5794 61.7604 18.9598C61.1407 18.3401 60.3009 17.9908 59.4245 17.9883C58.5474 17.9883 57.7061 18.3367 57.0859 18.957C56.4657 19.5772 56.1172 20.4184 56.1172 21.2956Z" fill="#FF9500"/>
<path d="M149.031 21.2956V33.1635C149.031 34.0406 149.38 34.8818 150 35.5021C150.62 36.1223 151.461 36.4708 152.339 36.4708C152.773 36.472 153.204 36.3873 153.606 36.2216C154.008 36.0558 154.373 35.8123 154.68 35.5049C154.987 35.1975 155.231 34.8324 155.397 34.4306C155.562 34.0288 155.647 33.5981 155.646 33.1635V21.2956C155.646 20.4184 155.297 19.5772 154.677 18.957C154.057 18.3367 153.216 17.9883 152.339 17.9883C151.462 17.9908 150.622 18.3401 150.003 18.9598C149.383 19.5794 149.034 20.4192 149.031 21.2956Z" fill="#FF9500"/>
<path d="M130.438 21.2956V33.1635C130.437 33.5978 130.523 34.0279 130.689 34.4291C130.855 34.8304 131.099 35.195 131.406 35.5021C131.713 35.8092 132.078 36.0528 132.479 36.219C132.88 36.3852 133.31 36.4708 133.745 36.4708C134.179 36.4708 134.609 36.3852 135.01 36.219C135.412 36.0528 135.776 35.8092 136.083 35.5021C136.391 35.195 136.634 34.8304 136.8 34.4291C136.967 34.0279 137.052 33.5978 137.052 33.1635V21.2956C137.05 20.4225 136.703 19.5856 136.087 18.9665C135.472 18.3473 134.637 17.9959 133.764 17.9883C133.328 17.987 132.897 18.0716 132.494 18.2371C132.091 18.4026 131.725 18.6459 131.416 18.953C131.107 19.2601 130.861 19.6251 130.694 20.027C130.526 20.4289 130.439 20.86 130.438 21.2956Z" fill="#FF9500"/>
<path d="M111.859 21.2956V33.1635C111.858 33.5981 111.943 34.0288 112.109 34.4306C112.274 34.8324 112.518 35.1975 112.825 35.5049C113.133 35.8123 113.498 36.0558 113.9 36.2216C114.301 36.3873 114.732 36.472 115.167 36.4708C116.038 36.4632 116.871 36.1111 117.483 35.4914C118.096 34.8717 118.438 34.0348 118.436 33.1635V21.2956C118.436 20.4201 118.089 19.5803 117.47 18.9603C116.852 18.3404 116.013 17.9908 115.138 17.9883C114.266 17.9959 113.432 18.3477 112.818 18.9671C112.204 19.5865 111.859 20.4234 111.859 21.2956Z" fill="#FF9500"/>
<path d="M93.2656 21.2956V33.1635C93.2644 33.5973 93.3487 34.0272 93.5139 34.4284C93.6791 34.8296 93.9218 35.1943 94.2281 35.5015C94.5345 35.8087 94.8984 36.0525 95.2992 36.2188C95.6999 36.3851 96.1295 36.4708 96.5634 36.4708C96.9981 36.472 97.4287 36.3873 97.8305 36.2216C98.2324 36.0558 98.5975 35.8123 98.9048 35.5049C99.2122 35.1975 99.4557 34.8324 99.6215 34.4306C99.7873 34.0288 99.872 33.5981 99.8707 33.1635V21.2956C99.8707 20.4184 99.5222 19.5772 98.902 18.957C98.2818 18.3367 97.4405 17.9883 96.5634 17.9883C95.6879 17.9908 94.8491 18.3404 94.2309 18.9603C93.6128 19.5803 93.2656 20.4201 93.2656 21.2956Z" fill="#FF9500"/>
<path d="M74.6719 21.2956V33.1635C74.6719 33.5978 74.7574 34.0278 74.9236 34.4291C75.0898 34.8304 75.3335 35.195 75.6406 35.5021C75.9477 35.8092 76.3123 36.0528 76.7135 36.219C77.1148 36.3852 77.5449 36.4708 77.9792 36.4708C78.4135 36.4708 78.8436 36.3852 79.2448 36.219C79.6461 36.0528 80.0107 35.8092 80.3178 35.5021C80.6249 35.195 80.8685 34.8304 81.0348 34.4291C81.201 34.0278 81.2865 33.5978 81.2865 33.1635V21.2956C81.284 20.4192 80.9347 19.5794 80.315 18.9598C79.6953 18.3401 78.8556 17.9908 77.9792 17.9883C77.1028 17.9908 76.2631 18.3401 75.6434 18.9598C75.0237 19.5794 74.6744 20.4192 74.6719 21.2956Z" fill="#FF9500"/>
<path d="M127.888 196.637C127.888 199.339 128.961 201.931 130.872 203.842C132.784 205.753 135.376 206.827 138.078 206.827H10.7607C8.05803 206.827 5.46607 205.753 3.555 203.842C1.64394 201.931 0.570312 199.339 0.570312 196.637H127.888Z" fill="#E6E6E6"/>
<path opacity="0.2" d="M208.146 247.725C208.146 247.725 137.695 289.32 137.695 328.729H278.616C278.606 289.32 208.146 247.725 208.146 247.725Z" fill="#026FCE"/>
<path opacity="0.2" d="M208.139 297.354C208.139 297.354 143.086 313.468 143.086 328.73H273.193C273.193 313.468 208.139 297.354 208.139 297.354Z" fill="#026FCE"/>
<path opacity="0.3" d="M216.695 259.207C229.925 272.216 255.635 301.042 255.635 328.727H238.006C238.006 301.042 223.933 272.216 216.695 259.207Z" fill="white"/>
<path opacity="0.2" d="M208.146 247.723C208.146 247.723 137.695 206.128 137.695 166.719H278.616C278.606 206.128 208.146 247.723 208.146 247.723Z" fill="#026FCE"/>
<path opacity="0.2" d="M208.14 243.929C208.14 243.929 172.172 226.674 172.172 210.281H244.118C244.118 226.645 208.14 243.929 208.14 243.929Z" fill="#026FCE"/>
<path opacity="0.3" d="M200.48 236.239C187.26 223.23 161.578 194.404 161.578 166.719H179.208C179.169 194.404 193.213 223.23 200.48 236.239Z" fill="white"/>
<path opacity="0.3" d="M216.695 236.239C229.925 223.23 254.993 191.068 255.635 166.719H250.938C248.733 196.408 227.164 223.652 216.695 236.239Z" fill="white"/>
<path d="M269.04 152.812H261.055V153.771H269.04V152.812Z" fill="#026FCE"/>
<path d="M296.143 165.984H295.185C295.182 162.747 293.896 159.644 291.608 157.354C289.32 155.065 286.218 153.776 282.981 153.771H274.555V152.812H282.981C286.471 152.82 289.816 154.211 292.283 156.679C294.75 159.148 296.138 162.494 296.143 165.984Z" fill="#026FCE"/>
<path d="M282.988 156.166H133.324C127.903 156.166 123.508 160.561 123.508 165.982V167.459C123.508 172.88 127.903 177.275 133.324 177.275H282.988C288.409 177.275 292.804 172.88 292.804 167.459V165.982C292.804 160.561 288.409 156.166 282.988 156.166Z" fill="#026FCE"/>
<path d="M282.988 318.176H133.324C127.903 318.176 123.508 322.571 123.508 327.992V329.468C123.508 334.89 127.903 339.285 133.324 339.285H282.988C288.409 339.285 292.804 334.89 292.804 329.468V327.992C292.804 322.571 288.409 318.176 282.988 318.176Z" fill="#026FCE"/>
<path d="M84.6168 232.183L78.1172 226.412L89.1991 209.396L95.6987 215.158L84.6168 232.183Z" fill="#FF8B7B"/>
<path d="M79.4479 222.753L87.7114 228.505C87.7819 228.549 87.8431 228.606 87.8914 228.674C87.9397 228.741 87.9742 228.818 87.9929 228.899C88.0116 228.98 88.0141 229.064 88.0004 229.146C87.9866 229.228 87.9568 229.306 87.9127 229.377L83.7714 236.202C83.5329 236.546 83.169 236.781 82.7582 236.858C82.3474 236.935 81.9228 236.848 81.5761 236.615C78.7002 234.573 77.6361 233.576 74.1945 230.796C70.793 228.122 67.5294 225.278 64.4164 222.273C61.8664 219.628 64.5602 217.068 65.9119 217.979C69.1041 220.145 74.6547 222.532 77.8661 222.341C78.4247 222.296 78.982 222.441 79.4479 222.753Z" fill="#263238"/>
<path opacity="0.2" d="M95.6734 215.167L89.1738 209.396L83.8438 217.593L90.5063 223.124L95.6734 215.167Z" fill="black"/>
<path d="M161.809 130.168C161.809 130.168 118.19 127.187 112.784 141.969C100.484 175.579 84.4844 211.23 84.4844 211.23L97.3398 220.539C97.3398 220.539 124.517 178.982 132.81 152.303C149.586 156.377 179.917 159.857 189.686 148.641C198.026 139.055 191.785 130.168 191.785 130.168H161.809Z" fill="#263238"/>
<path opacity="0.3" d="M124.456 156.291C123.44 160.394 121.896 172.147 120.938 179.941C123.056 175.838 125.069 171.677 126.881 167.612L124.456 156.291Z" fill="black"/>
<path d="M96.5107 224.745L81.9297 213.318L84.9111 206.914L101.208 219.367L96.5107 224.745Z" fill="#026FCE"/>
<path d="M75.9521 222.225C76.6281 222.665 77.3476 223.034 78.0994 223.327C78.1368 223.34 78.1772 223.342 78.2158 223.333C78.2544 223.325 78.2897 223.305 78.3178 223.277C78.3458 223.249 78.3653 223.214 78.3742 223.175C78.383 223.136 78.3809 223.096 78.3679 223.059C78.2432 222.733 77.1504 219.866 76.0096 219.588C75.8787 219.558 75.7425 219.562 75.6134 219.599C75.4843 219.636 75.3667 219.705 75.2714 219.799C75.111 219.926 74.9868 220.093 74.9111 220.283C74.8354 220.473 74.8109 220.68 74.84 220.883C75.034 221.451 75.4297 221.928 75.9521 222.225ZM77.8022 222.752C76.2972 222.1 75.3577 221.381 75.2523 220.835C75.2357 220.701 75.2555 220.566 75.3095 220.443C75.3635 220.319 75.4497 220.213 75.559 220.135C75.6033 220.087 75.6596 220.052 75.722 220.034C75.7844 220.015 75.8506 220.014 75.9137 220.029C76.5272 220.183 77.3229 221.611 77.8022 222.752Z" fill="#026FCE"/>
<path d="M78.0565 223.298C78.0878 223.307 78.1211 223.307 78.1524 223.298C78.1882 223.302 78.2244 223.297 78.2578 223.284C78.2912 223.27 78.3208 223.249 78.3441 223.221C78.4112 223.145 80.0409 221.141 79.8013 219.905C79.7697 219.746 79.7023 219.598 79.6042 219.47C79.5062 219.342 79.3801 219.238 79.2357 219.166C79.0884 219.074 78.9149 219.033 78.7418 219.048C78.5687 219.064 78.4054 219.136 78.277 219.253C77.5484 219.933 77.5772 222.234 78.0086 223.183C78.015 223.225 78.0314 223.264 78.0565 223.298ZM79.1206 219.627C79.19 219.672 79.2494 219.732 79.2955 219.801C79.3416 219.87 79.3734 219.948 79.389 220.029C79.5328 220.758 78.7563 222.014 78.2483 222.704C77.9798 221.745 78.0661 220.039 78.5358 219.598C78.6317 219.511 78.7659 219.425 79.0439 219.598L79.1206 219.627Z" fill="#026FCE"/>
<path d="M141.91 242.242L133.522 243.92L131.969 221.459L140.491 221.727L141.91 242.242Z" fill="#FF8B7B"/>
<path d="M132.388 240.851L141.975 236.815C142.053 236.776 142.138 236.754 142.226 236.749C142.313 236.744 142.4 236.757 142.483 236.786C142.565 236.816 142.64 236.862 142.705 236.921C142.769 236.98 142.821 237.052 142.857 237.131L146.519 244.494C146.686 244.892 146.691 245.34 146.531 245.742C146.372 246.143 146.061 246.466 145.665 246.641C142.31 247.993 140.642 248.462 136.434 250.246C133.845 251.338 126.847 254.502 123.109 255.432C119.37 256.362 118.526 252.613 120.041 251.885C123.626 250.159 129.57 244.896 131.171 241.992C131.443 241.491 131.87 241.091 132.388 240.851Z" fill="#263238"/>
<path d="M129.999 243.612C130.754 243.267 131.471 242.843 132.137 242.347C132.17 242.321 132.195 242.287 132.21 242.248C132.225 242.21 132.23 242.167 132.223 242.126C132.212 242.086 132.19 242.05 132.159 242.021C132.129 241.992 132.091 241.972 132.05 241.963C131.705 241.887 128.599 241.264 127.727 242.107C127.627 242.203 127.555 242.324 127.516 242.457C127.477 242.589 127.474 242.73 127.506 242.864C127.528 243.072 127.604 243.27 127.727 243.438C127.85 243.607 128.015 243.739 128.206 243.823C128.809 243.977 129.448 243.902 129.999 243.612ZM131.465 242.289C130.075 243.248 128.935 243.66 128.369 243.44C128.243 243.382 128.135 243.29 128.057 243.175C127.979 243.061 127.935 242.926 127.928 242.788C127.91 242.723 127.909 242.654 127.926 242.588C127.942 242.522 127.976 242.462 128.024 242.414C128.494 241.963 130.219 242.078 131.465 242.289Z" fill="#026FCE"/>
<path d="M132.08 242.378C132.113 242.361 132.142 242.338 132.166 242.311C132.182 242.28 132.191 242.245 132.191 242.21C132.191 242.175 132.182 242.141 132.166 242.109C132.166 242.004 131.285 239.473 130.077 239.003C129.921 238.942 129.754 238.917 129.587 238.932C129.42 238.947 129.26 239.001 129.118 239.09C128.95 239.165 128.812 239.295 128.729 239.459C128.645 239.623 128.62 239.811 128.658 239.991C128.85 240.949 130.872 242.244 131.936 242.387C131.984 242.403 132.035 242.4 132.08 242.378ZM129.463 239.416C129.542 239.382 129.627 239.365 129.712 239.365C129.798 239.365 129.883 239.382 129.962 239.416C130.681 239.694 131.342 241.065 131.668 241.889C130.709 241.573 129.243 240.585 129.118 239.914C129.118 239.79 129.118 239.627 129.377 239.473L129.463 239.416Z" fill="#026FCE"/>
<path opacity="0.2" d="M140.501 221.737L131.969 221.459L132.784 233.193L141.277 233.039L140.501 221.737Z" fill="black"/>
<path d="M182.995 130.168C182.995 130.168 120.683 136.064 122.926 154.824C126.205 181.886 128.602 229.272 128.602 229.272L144.486 229.895C144.486 229.895 150.449 188.232 146.96 160.518C163.093 160.518 198.141 161.372 204.306 153.031C211.62 143.138 208.236 130.168 208.236 130.168H182.995Z" fill="#263238"/>
<path d="M146.232 230.872L127.165 229.923L126.484 221.631L147.392 223.069L146.232 230.872Z" fill="#026FCE"/>
<path d="M169.154 75.2281C169.02 76.9441 168.867 78.4683 168.656 80.0693C168.445 81.6702 168.244 83.2327 167.994 84.8145C167.534 87.9684 166.902 91.1031 166.192 94.257C165.483 97.411 164.61 100.555 163.518 103.728C162.408 107.066 160.953 110.279 159.175 113.315C158.114 115.101 156.825 116.741 155.34 118.194C154.947 118.562 154.535 118.907 154.104 119.229C153.711 119.555 153.318 119.833 152.915 120.111C152.148 120.652 151.351 121.148 150.528 121.597C147.488 123.251 144.272 124.56 140.942 125.499C139.36 125.988 137.768 126.381 136.148 126.736C134.528 127.09 132.985 127.397 131.355 127.646C128.183 128.165 124.981 128.486 121.769 128.605C120.977 128.638 120.199 128.384 119.581 127.888C118.962 127.393 118.544 126.69 118.403 125.91C118.263 125.13 118.41 124.325 118.817 123.645C119.225 122.965 119.864 122.455 120.618 122.211L120.743 122.163C126.365 120.385 131.879 118.285 137.26 115.874C139.735 114.755 142.102 113.413 144.335 111.867C144.843 111.503 145.294 111.129 145.754 110.755C145.965 110.573 146.185 110.391 146.367 110.199C146.537 110.046 146.697 109.883 146.847 109.71C147.483 108.941 148.03 108.101 148.476 107.208C149.64 104.846 150.574 102.377 151.266 99.8363C152.043 97.1425 152.714 94.3337 153.27 91.477C153.826 88.6203 154.324 85.7252 154.794 82.7918C155.264 79.8584 155.618 76.8674 155.944 74.0874V73.9244C156.184 72.2433 157.064 70.72 158.401 69.6723C159.737 68.6247 161.427 68.1337 163.117 68.3019C164.806 68.4702 166.366 69.2846 167.469 70.5752C168.573 71.8658 169.136 73.5328 169.039 75.2281H169.154Z" fill="#E6E6E6"/>
<path d="M122.09 120.484L117.297 120.782L121.131 129.601C121.131 129.601 129.424 129.419 129.251 125.335L127.756 123.418C127.071 122.557 126.213 121.851 125.236 121.346C124.26 120.84 123.188 120.547 122.09 120.484Z" fill="#FF8B7B"/>
<path d="M112.047 121.51L116.188 129.62H121.125L117.291 120.801L112.047 121.51Z" fill="#FF8B7B"/>
<path d="M168.466 61.6371L177.736 59.7199L185.117 58.6558C186.172 58.4834 187.244 58.4351 188.31 58.512C191.142 58.7689 193.829 59.884 196.012 61.7082C198.194 63.5325 199.768 65.9792 200.523 68.7215C202.373 75.4319 204.041 83.6666 205.316 90.9618C207.099 101.095 208.019 116.318 208.192 130.16H164.276C163.318 105.092 157.988 88.9391 156.176 78.9213C155.63 75.897 156.094 72.7771 157.495 70.0421C158.896 67.307 161.158 65.1083 163.931 63.7845L168.466 61.6371Z" fill="#F5F5F5"/>
<path d="M164.289 67.1469C164.395 71.2691 165.248 85.9649 169.667 94.3146C170.444 86.4922 179.733 62.6797 179.733 62.6797L164.289 67.1469Z" fill="#F5F5F5"/>
<path opacity="0.3" d="M206.328 97.8418C206.328 97.6884 206.328 97.5446 206.27 97.3817L206.184 96.6914C206.136 96.3176 206.088 95.9437 206.04 95.589L205.896 94.5633L205.753 93.6046C205.753 93.3362 205.666 93.0582 205.628 92.7994C205.532 92.1859 205.436 91.5915 205.331 91.0067C205.014 89.2141 204.679 87.3543 204.315 85.485V85.3316C203.95 83.4144 203.576 81.5642 203.174 79.6948V79.5702C203.011 78.765 202.838 77.9789 202.656 77.1832L202.455 76.3013L202.11 74.7771L201.822 73.5883L201.765 73.3391C201.381 71.7669 200.988 70.2235 200.586 68.7664L193.923 65.2578C194.69 68.2008 195.418 71.441 196.109 74.7579C195.311 75.1752 194.576 75.701 193.923 76.3204C192.332 77.7392 192.389 80.7589 193.98 84.3346C198.386 94.5593 200.825 105.522 201.17 116.65C201.372 121.165 201.496 125.738 201.554 130.177H208.264C208.073 119.181 207.459 107.332 206.328 97.8418Z" fill="black"/>
<path d="M174.288 43.1621L170.521 48.9139L165.402 56.7268C166.061 57.398 166.596 58.18 166.984 59.0371C167.942 60.9544 168.69 62.3348 164.731 65.0286C163.887 65.6037 163.858 66.5144 164.05 67.521C164.28 68.7481 164.026 68.037 168.282 67.2796C172.396 66.4883 177.133 66.4021 179.983 63.3318C181.402 61.9034 181.076 60.8393 179.705 59.363C175.832 55.193 174.672 48.5305 174.288 43.1621Z" fill="#FF8B7B"/>
<path d="M168.484 67.2517C170.507 68.0857 171.523 69.9646 172.444 72.1311C172.444 72.1311 182.135 64.788 182.337 59.9469C181.819 58.298 179.394 58.5856 179.394 58.5856C179.394 58.5856 176.441 63.7048 168.484 67.2517Z" fill="white"/>
<path d="M168.482 67.2521C167.537 67.6345 166.734 68.3012 166.185 69.1599C165.635 70.0186 165.366 71.0269 165.415 72.0453C165.415 72.0453 161.101 66.9837 164.609 63.1587C165.561 62.6592 166.573 62.2824 167.619 62.0371C167.619 62.0371 166.565 64.1461 168.482 67.2521Z" fill="white"/>
<path opacity="0.2" d="M166.662 54.8001L169.806 49.2305C169.864 49.3647 169.941 49.5276 170.017 49.681C170.293 50.3762 170.517 51.0907 170.688 51.8188C171.264 54.3016 169.346 57.8294 167.228 59.4879C167.141 59.3345 167.065 59.1715 166.978 59.0085C166.601 58.2037 166.114 57.4552 165.531 56.7845L165.406 56.6886L166.662 54.8001Z" fill="black"/>
<path d="M151.347 42.8359C150.59 39.4327 156.006 34.7258 156.006 34.7258L149.593 32.4922C146.698 34.5724 148.577 40.5064 151.347 42.8359Z" fill="#263238"/>
<path d="M172.958 32.9996C174.473 41.5122 175.834 46.4205 172.632 51.8559C171.629 53.6407 170.157 55.117 168.375 56.1252C166.593 57.1334 164.569 57.635 162.522 57.5758C160.476 57.5166 158.484 56.8987 156.763 55.7892C155.043 54.6796 153.658 53.1205 152.76 51.2807C149.165 44.2635 147.295 31.5329 154.61 25.944C156.16 24.6943 158.011 23.874 159.978 23.5652C161.945 23.2564 163.959 23.47 165.817 24.1846C167.676 24.8993 169.314 26.0898 170.567 27.6369C171.82 29.184 172.645 31.0333 172.958 32.9996Z" fill="#FF8B7B"/>
<path d="M173.069 41.6099L169.043 40.5075V35.3308C169.043 35.3308 163.953 32.4549 164.739 28.8601C165.129 26.839 165.677 24.8517 166.378 22.9165C166.378 22.9165 174.45 22.3989 176.923 23.4342C176.282 24.1283 175.587 24.7694 174.843 25.3515C176.778 26.6905 178.438 28.3894 179.732 30.3555C178.721 30.5807 177.776 31.0368 176.971 31.688C176.971 31.688 178.026 38.7915 173.069 41.6099Z" fill="#263238"/>
<path d="M163.805 17.3924C166.767 19.2521 165.051 22.6649 165.051 22.6649L172.979 22.8278C172.557 20.3258 165.684 17.2677 163.805 17.3924Z" fill="#263238"/>
<path d="M166.905 30.6046C166.339 32.1959 159.916 34.1515 154.059 34.3432C151.139 34.2799 148.25 33.7358 145.508 32.7327C146.335 31.8834 147.309 31.1915 148.384 30.6908C144.846 29.8185 140.369 26.7125 139.133 24.1817C141.716 23.2587 144.506 23.0793 147.185 23.6641C146.308 22.9238 145.588 22.0159 145.066 20.9937C144.544 19.9715 144.232 18.8555 144.147 17.7109C144.147 17.7109 159.14 23.6545 164.911 21.1908C171.18 18.5066 175.945 23.5394 171.823 27.374C167.7 31.2085 166.905 30.6046 166.905 30.6046Z" fill="#263238"/>
<path d="M177.533 39.1645C177.615 41.042 177.004 42.8841 175.817 44.3411C174.264 46.1912 171.848 44.715 171.292 42.4238C170.794 40.3436 171.446 37.1322 173.488 36.1352C175.53 35.1382 177.428 36.835 177.533 39.1645Z" fill="#FF8B7B"/>
<path d="M159.65 51.0305C160.42 50.7725 161.13 50.363 161.739 49.8263C162.348 49.2896 162.844 48.6365 163.197 47.9054C163.216 47.8545 163.215 47.7981 163.193 47.7481C163.172 47.698 163.132 47.6582 163.082 47.637C163.057 47.6259 163.031 47.6199 163.004 47.6192C162.977 47.6185 162.95 47.6232 162.925 47.6331C162.9 47.6429 162.877 47.6576 162.858 47.6764C162.839 47.6952 162.824 47.7176 162.813 47.7424C162.424 48.5352 161.858 49.2278 161.158 49.7664C160.458 50.305 159.643 50.6753 158.777 50.8484C158.751 50.854 158.725 50.865 158.703 50.8807C158.68 50.8965 158.661 50.9166 158.647 50.94C158.633 50.9633 158.623 50.9893 158.619 51.0164C158.615 51.0435 158.617 51.0712 158.624 51.0976C158.636 51.1498 158.667 51.1952 158.712 51.2239C158.757 51.2527 158.812 51.2624 158.864 51.251C159.13 51.1947 159.393 51.121 159.65 51.0305Z" fill="#263238"/>
<path d="M198.481 64.5957C199.535 65.8995 200.456 67.0786 201.357 68.3344C202.258 69.5902 203.197 70.8364 204.079 72.1114C205.872 74.6518 207.54 77.2881 209.17 79.9722C210.799 82.6564 212.314 85.4556 213.675 88.4178C215.153 91.4909 216.325 94.7018 217.174 98.0042C217.651 99.924 217.902 101.893 217.922 103.871C217.898 105.849 217.615 107.815 217.079 109.719C216.124 113.033 214.731 116.206 212.937 119.152C212.113 120.561 211.221 121.913 210.291 123.216C209.362 124.52 208.374 125.785 207.415 127.003C205.414 129.451 203.239 131.751 200.906 133.886C200.323 134.406 199.573 134.701 198.791 134.718C198.009 134.736 197.247 134.474 196.641 133.98C196.035 133.486 195.625 132.792 195.484 132.023C195.343 131.254 195.482 130.459 195.873 129.783L195.96 129.639C198.937 124.809 201.539 119.758 203.744 114.531C204.733 112.175 205.454 109.715 205.891 107.197C206.052 106.186 206.093 105.16 206.016 104.139C205.9 103.129 205.682 102.133 205.364 101.168C204.535 98.7165 203.492 96.3428 202.248 94.0738C200.973 91.6676 199.535 89.2806 198.002 86.8552C196.468 84.4299 194.857 82.0621 193.208 79.7326L190.687 76.224C189.844 75.0832 188.962 73.8657 188.166 72.8208L188.108 72.7441C187.028 71.3738 186.536 69.6303 186.741 67.8972C186.946 66.1641 187.831 64.5834 189.201 63.5029C190.572 62.4224 192.315 61.9305 194.048 62.1354C195.781 62.3403 197.362 63.2254 198.443 64.5957H198.481Z" fill="#E6E6E6"/>
<path d="M107.151 135.318L188.712 131.627C188.97 131.61 189.228 131.646 189.471 131.731C189.714 131.816 189.938 131.949 190.129 132.123C190.319 132.296 190.473 132.507 190.58 132.741C190.688 132.976 190.747 133.229 190.754 133.487L105.291 137.321C105.279 137.067 105.319 136.813 105.406 136.574C105.494 136.336 105.628 136.116 105.801 135.93C105.974 135.744 106.183 135.593 106.414 135.488C106.646 135.383 106.896 135.325 107.151 135.318Z" fill="#026FCE"/>
<g opacity="0.6">
<path d="M107.151 135.318L188.712 131.627C188.97 131.61 189.228 131.646 189.471 131.731C189.714 131.816 189.938 131.949 190.129 132.123C190.319 132.296 190.473 132.507 190.58 132.741C190.688 132.976 190.747 133.229 190.754 133.487L105.291 137.321C105.279 137.067 105.319 136.813 105.406 136.574C105.494 136.336 105.628 136.116 105.801 135.93C105.974 135.744 106.183 135.593 106.414 135.488C106.646 135.383 106.896 135.325 107.151 135.318Z" fill="white"/>
</g>
<path d="M94.1726 97.4802L152.199 94.8535C152.572 94.8585 152.933 94.9781 153.235 95.1959C153.537 95.4138 153.764 95.7193 153.887 96.071L165.026 131.416C165.086 131.562 165.109 131.72 165.093 131.877C165.077 132.034 165.022 132.185 164.934 132.316C164.846 132.447 164.727 132.554 164.587 132.628C164.448 132.701 164.292 132.74 164.134 132.739L106.108 135.365C105.738 135.362 105.378 135.244 105.077 135.028C104.777 134.811 104.551 134.507 104.43 134.158L93.2907 98.8031C93.231 98.6579 93.2079 98.5002 93.2235 98.344C93.239 98.1877 93.2927 98.0377 93.3798 97.907C93.4668 97.7764 93.5847 97.6692 93.7229 97.5947C93.8612 97.5203 94.0156 97.481 94.1726 97.4802Z" fill="#026FCE"/>
<path opacity="0.6" d="M94.1726 97.4802L152.199 94.8535C152.572 94.8585 152.933 94.9781 153.235 95.1959C153.537 95.4138 153.764 95.7193 153.887 96.071L165.026 131.416C165.086 131.562 165.109 131.72 165.093 131.877C165.077 132.034 165.022 132.185 164.934 132.316C164.846 132.447 164.727 132.554 164.587 132.628C164.448 132.701 164.292 132.74 164.134 132.739L106.108 135.365C105.738 135.362 105.378 135.244 105.077 135.028C104.777 134.811 104.551 134.507 104.43 134.158L93.2907 98.8031C93.231 98.6579 93.2079 98.5002 93.2235 98.344C93.239 98.1877 93.2927 98.0377 93.3798 97.907C93.4668 97.7764 93.5847 97.6692 93.7229 97.5947C93.8612 97.5203 94.0156 97.481 94.1726 97.4802Z" fill="white"/>
<path opacity="0.5" d="M153.89 96.0573L165.03 131.402C165.092 131.549 165.116 131.708 165.101 131.867C165.086 132.025 165.032 132.177 164.944 132.309C164.855 132.441 164.735 132.549 164.595 132.624C164.454 132.698 164.297 132.736 164.138 132.735L152.203 94.8398C152.575 94.8449 152.937 94.9644 153.239 95.1823C153.541 95.4001 153.768 95.7056 153.89 96.0573Z" fill="#026FCE"/>
<path opacity="0.5" d="M167.27 132.594L188.715 131.635C188.972 131.618 189.23 131.653 189.474 131.738C189.717 131.824 189.941 131.957 190.131 132.131C190.322 132.304 190.476 132.515 190.583 132.749C190.691 132.983 190.75 133.237 190.757 133.495L165.41 134.635C165.393 134.378 165.429 134.12 165.514 133.877C165.599 133.633 165.732 133.41 165.906 133.219C166.08 133.028 166.29 132.875 166.524 132.767C166.759 132.66 167.012 132.601 167.27 132.594Z" fill="#026FCE"/>
<path d="M194.351 129.383L188.867 130.179L194.485 137.992C194.485 137.992 203.41 136.563 202.374 132.604L200.457 131.013C199.61 130.329 198.629 129.831 197.577 129.55C196.525 129.27 195.426 129.213 194.351 129.383Z" fill="#FF8B7B"/>
<path d="M182.156 132.515L189.03 138.506L194.484 137.989L188.867 130.176L182.156 132.515Z" fill="#FF8B7B"/>
</svg>
