<svg width="16" height="16" viewBox="0 0 16 16" fill="none" xmlns="http://www.w3.org/2000/svg">
<g clip-path="url(#clip0_1333_12188)">
<path d="M9.98897 4.67743C9.98897 4.67743 10.3223 5.01076 10.6556 5.67743C10.6556 5.67743 11.715 4.01076 12.6556 3.67743M6.66564 1.34743C4.99964 1.27743 3.71297 1.46876 3.71297 1.46876C2.90031 1.52743 1.34364 1.9821 1.34364 4.64343C1.34364 7.28076 1.32631 10.5328 1.34364 11.8294C1.34364 12.6214 1.83364 14.4694 3.53097 14.5681C5.59431 14.6881 9.31097 14.7141 11.0163 14.5681C11.4723 14.5421 12.9923 14.1841 13.1843 12.5308C13.3843 10.8174 13.3443 9.62743 13.3443 9.3441" stroke="currentColor" stroke-width='1.5' stroke-linecap="round" stroke-linejoin="round"/>
<path d="M4.65625 8.67708H7.32292M4.65625 11.3438H9.98958M14.6696 4.67709C14.6696 6.51775 13.1763 8.01042 11.3329 8.01042C10.8949 8.01086 10.4611 7.92496 10.0563 7.75764C9.65148 7.59032 9.28362 7.34486 8.97374 7.03529C8.66386 6.72571 8.41803 6.3581 8.2503 5.95347C8.08258 5.54883 7.99625 5.11511 7.99625 4.67709C7.99625 2.83575 9.49025 1.34375 11.3329 1.34375C11.7709 1.34331 12.2047 1.42921 12.6096 1.59653C13.0144 1.76385 13.3822 2.00931 13.6921 2.31888C14.002 2.62846 14.2478 2.99607 14.4155 3.4007C14.5833 3.80534 14.6696 4.23906 14.6696 4.67709Z" stroke="currentColor" stroke-width='1.5' stroke-linecap="round"/>
</g>
<defs>
<clipPath id="clip0_1333_12188">
<rect width="16" height="16" fill="white"/>
</clipPath>
</defs>
</svg>
