<svg width="14" height="17" viewBox="0 0 14 17" fill="none" xmlns="http://www.w3.org/2000/svg">
<path d="M8.56888 6.72221L12.6033 6.72222C13.0985 6.72222 13.4999 6.32427 13.4999 5.83335L13.5 0.5H9.68956L7.67237 2.27778L7.67234 5.83331C7.67233 6.32423 8.07373 6.7222 8.56888 6.72221Z" fill="#FF9500"/>
<path d="M8.56888 16.5L12.6033 16.5C13.0985 16.5 13.4999 16.102 13.4999 15.6111L13.5 10.2778H9.68956L7.67237 12.0556L7.67234 15.6111C7.67233 16.102 8.07373 16.5 8.56888 16.5Z" fill="#FF9500"/>
<path d="M4.53444 14.975C4.81058 14.975 5.03444 14.7512 5.03444 14.475C5.03444 14.1989 4.81058 13.975 4.53444 13.975V14.475V14.975ZM0.50049 11.8085L0.000489563 11.8085L0.50049 11.8085ZM1 0.499978C0.999988 0.223836 0.776121 -1.19805e-05 0.499978 0C0.223836 1.19507e-05 -1.19805e-05 0.223879 0 0.500022L0.5 0.5L1 0.499978ZM4.53444 5.09739C4.81058 5.09739 5.03444 4.87353 5.03444 4.59739C5.03444 4.32125 4.81058 4.09739 4.53444 4.09739V4.59739V5.09739ZM12.6033 6.72222L12.6033 6.22222V6.22222L12.6033 6.72222ZM8.56888 6.72221L8.56887 7.22221V7.22221L8.56888 6.72221ZM13.5 0.5L14 0.500011C14 0.367401 13.9473 0.240221 13.8536 0.14645C13.7598 0.0526799 13.6326 0 13.5 0V0.5ZM13.4999 5.83335L13.9999 5.83337V5.83337L13.4999 5.83335ZM7.67234 5.83331L7.17234 5.83331V5.83331L7.67234 5.83331ZM7.67237 2.27778L7.34177 1.90267C7.23407 1.99758 7.17237 2.13422 7.17237 2.27777L7.67237 2.27778ZM9.68956 0.5V0C9.56783 0 9.45029 0.0444049 9.35897 0.124888L9.68956 0.5ZM12.6033 16.5L12.6033 16V16L12.6033 16.5ZM8.56888 16.5L8.56887 17V17L8.56888 16.5ZM13.5 10.2778L14 10.2778C14 10.1452 13.9473 10.018 13.8536 9.92423C13.7598 9.83046 13.6326 9.77778 13.5 9.77778V10.2778ZM13.4999 15.6111L13.9999 15.6111V15.6111L13.4999 15.6111ZM7.67234 15.6111L7.17234 15.6111V15.6111L7.67234 15.6111ZM7.67237 12.0556L7.34177 11.6804C7.23407 11.7754 7.17237 11.912 7.17237 12.0556L7.67237 12.0556ZM9.68956 10.2778V9.77778C9.56783 9.77778 9.45029 9.82218 9.35897 9.90267L9.68956 10.2778ZM4.53444 14.475V13.975H3.19011V14.475V14.975H4.53444V14.475ZM0.50049 11.8085L1.00049 11.8085L1.00018 4.59737L0.500177 4.59739L0.000177383 4.59741L0.000489563 11.8085L0.50049 11.8085ZM0.500177 4.59739L1.00018 4.59737L1 0.499978L0.5 0.5L0 0.500022L0.000177383 4.59741L0.500177 4.59739ZM4.53444 4.59739V4.09739H0.500177V4.59739V5.09739H4.53444V4.59739ZM3.19011 14.475V13.975C1.9768 13.975 1.00054 13.001 1.00049 11.8085L0.50049 11.8085L0.000489563 11.8085C0.000565469 13.5614 1.43264 14.975 3.19011 14.975V14.475ZM12.6033 6.72222L12.6033 6.22222L8.56888 6.22221L8.56888 6.72221L8.56887 7.22221L12.6033 7.22222L12.6033 6.72222ZM13.5 0.5L13 0.499989L12.9999 5.83334L13.4999 5.83335L13.9999 5.83337L14 0.500011L13.5 0.5ZM12.6033 6.72222L12.6033 7.22222C13.3706 7.22223 13.9999 6.60445 13.9999 5.83337L13.4999 5.83335L12.9999 5.83334C12.9999 6.04408 12.8264 6.22222 12.6033 6.22222L12.6033 6.72222ZM7.67234 5.83331L7.17234 5.83331C7.17233 6.60441 7.80163 7.2222 8.56887 7.22221L8.56888 6.72221L8.56888 6.22221C8.34582 6.22221 8.17234 6.04406 8.17234 5.83331L7.67234 5.83331ZM7.67234 5.83331L8.17234 5.83332L8.17237 2.27778L7.67237 2.27778L7.17237 2.27777L7.17234 5.83331L7.67234 5.83331ZM9.68956 0.5V1H13.5V0.5V0H9.68956V0.5ZM9.68956 0.5L9.35897 0.124888L7.34177 1.90267L7.67237 2.27778L8.00296 2.65289L10.0202 0.875112L9.68956 0.5ZM12.6033 16.5L12.6033 16L8.56888 16L8.56888 16.5L8.56887 17L12.6033 17L12.6033 16.5ZM13.5 10.2778L13 10.2778L12.9999 15.6111L13.4999 15.6111L13.9999 15.6111L14 10.2778L13.5 10.2778ZM12.6033 16.5L12.6033 17C13.3706 17 13.9999 16.3822 13.9999 15.6111L13.4999 15.6111L12.9999 15.6111C12.9999 15.8219 12.8264 16 12.6033 16L12.6033 16.5ZM7.67234 15.6111L7.17234 15.6111C7.17233 16.3822 7.80163 17 8.56887 17L8.56888 16.5L8.56888 16C8.34582 16 8.17234 15.8218 8.17234 15.6111L7.67234 15.6111ZM7.67234 15.6111L8.17234 15.6111L8.17237 12.0556L7.67237 12.0556L7.17237 12.0556L7.17234 15.6111L7.67234 15.6111ZM9.68956 10.2778V10.7778H13.5V10.2778V9.77778H9.68956V10.2778ZM9.68956 10.2778L9.35897 9.90267L7.34177 11.6804L7.67237 12.0556L8.00296 12.4307L10.0202 10.6529L9.68956 10.2778Z" fill="#333333"/>
</svg>
