<svg width="14" height="14" viewBox="0 0 14 14" fill="none" xmlns="http://www.w3.org/2000/svg">
<path d="M10.5 4.66671H11.0833C11.7022 4.66671 12.2957 4.91254 12.7332 5.35012C13.1708 5.78771 13.4167 6.3812 13.4167 7.00004C13.4167 7.61888 13.1708 8.21237 12.7332 8.64996C12.2957 9.08754 11.7022 9.33337 11.0833 9.33337H10.5M10.5 4.66671H1.16666V9.91671C1.16666 10.5355 1.4125 11.129 1.85008 11.5666C2.28767 12.0042 2.88116 12.25 3.5 12.25H8.16666C8.7855 12.25 9.37899 12.0042 9.81658 11.5666C10.2542 11.129 10.5 10.5355 10.5 9.91671V4.66671ZM3.5 0.583374V2.33337M5.83333 0.583374V2.33337M8.16666 0.583374V2.33337" stroke="currentColor" stroke-width="1.5" stroke-linecap="round" stroke-linejoin="round"/>
</svg>
