<svg width="14" height="14" viewBox="0 0 14 14" fill="none" xmlns="http://www.w3.org/2000/svg">
<g clip-path="url(#clip0_672_12216)">
<path d="M5.25 0.583374V2.33337M8.75 0.583374V2.33337M5.25 11.6667V13.4167M8.75 11.6667V13.4167M11.6667 5.25004H13.4167M11.6667 8.16671H13.4167M0.583336 5.25004H2.33334M0.583336 8.16671H2.33334M3.5 2.33337H10.5C11.1443 2.33337 11.6667 2.85571 11.6667 3.50004V10.5C11.6667 11.1444 11.1443 11.6667 10.5 11.6667H3.5C2.85567 11.6667 2.33334 11.1444 2.33334 10.5V3.50004C2.33334 2.85571 2.85567 2.33337 3.5 2.33337ZM5.25 5.25004H8.75V8.75004H5.25V5.25004Z" stroke="currentColor" stroke-width="1.5" stroke-linecap="round" stroke-linejoin="round"/>
</g>
<defs>
<clipPath id="clip0_672_12216">
<rect width="14" height="14" fill="white"/>
</clipPath>
</defs>
</svg>
