<svg width="14" height="14" viewBox="0 0 14 14" fill="none" xmlns="http://www.w3.org/2000/svg">
<path d="M11.0833 12.25C10.1168 12.25 9.33333 9.89949 9.33333 7C9.33333 4.10051 10.1168 1.75 11.0833 1.75M11.0833 12.25C12.0498 12.25 12.8333 9.89949 12.8333 7C12.8333 4.10051 12.0498 1.75 11.0833 1.75M11.0833 12.25H2.91666C1.94833 12.25 1.16666 9.91667 1.16666 7C1.16666 4.08333 1.94833 1.75 2.91666 1.75H11.0833M7 12.25C6.03166 12.25 5.25 9.91667 5.25 7C5.25 4.08333 6.03166 1.75 7 1.75" stroke="currentColor" stroke-width="1.5" stroke-linecap="round" stroke-linejoin="round"/>
</svg>
