<svg width="17" height="17" viewBox="0 0 17 17" fill="none" xmlns="http://www.w3.org/2000/svg">
<path d="M7.7 2.09961V6.89961C7.7 7.78325 6.08824 8.49961 4.1 8.49961C2.11178 8.49961 0.5 7.78325 0.5 6.89961V2.09961" stroke="#333333" stroke-linecap="round" stroke-linejoin="round"/>
<path d="M7.7 4.5C7.7 5.38364 6.08824 6.1 4.1 6.1C2.11178 6.1 0.5 5.38364 0.5 4.5" stroke="#333333" stroke-linecap="round" stroke-linejoin="round"/>
<path d="M7.7 2.1C7.7 2.98364 6.08824 3.7 4.1 3.7C2.11178 3.7 0.5 2.98364 0.5 2.1C0.5 1.21634 2.11178 0.5 4.1 0.5C6.08824 0.5 7.7 1.21634 7.7 2.1Z" fill="#FF9500" stroke="#333333" stroke-linecap="round" stroke-linejoin="round"/>
<path d="M11.7031 1.30078H14.1031C14.9868 1.30078 15.7031 2.01713 15.7031 2.90078V5.30078" stroke="#333333" stroke-linecap="round" stroke-linejoin="round"/>
<path d="M5.29688 15.6992H2.89688C2.01322 15.6992 1.29688 14.9829 1.29688 14.0992V11.6992" stroke="#333333" stroke-linecap="round" stroke-linejoin="round"/>
<path d="M12.8984 12.5C14.003 12.5 14.8984 11.6046 14.8984 10.5C14.8984 9.39543 14.003 8.5 12.8984 8.5C11.7939 8.5 10.8984 9.39543 10.8984 10.5C10.8984 11.6046 11.7939 12.5 12.8984 12.5Z" fill="#FF9500" stroke="#333333" stroke-linecap="round" stroke-linejoin="round"/>
<path d="M16.4969 16.5004H9.29688C9.29688 14.5122 10.9086 12.9004 12.8969 12.9004C14.8851 12.9004 16.4969 14.5122 16.4969 16.5004Z" fill="#FF9500" stroke="#333333" stroke-linecap="round" stroke-linejoin="round"/>
</svg>
