<svg width="24" height="24" viewBox="0 0 24 24" fill="none" xmlns="http://www.w3.org/2000/svg">
<path fill-rule="evenodd" clip-rule="evenodd" d="M2.66406 11.3333C2.66406 10.9797 2.80454 10.6406 3.05459 10.3905C3.30464 10.1405 3.64377 10 3.9974 10H5.33073C5.68435 10 6.02349 10.1405 6.27354 10.3905C6.52359 10.6406 6.66406 10.9797 6.66406 11.3333V12.6667C6.66406 13.0203 6.52359 13.3594 6.27354 13.6095C6.02349 13.8595 5.68435 14 5.33073 14H3.9974C3.64377 14 3.30464 13.8595 3.05459 13.6095C2.80454 13.3594 2.66406 13.0203 2.66406 12.6667V11.3333ZM5.33073 11.3333V12.6667H3.9974V11.3333H5.33073ZM9.33073 10C8.97711 10 8.63797 10.1405 8.38792 10.3905C8.13787 10.6406 7.9974 10.9797 7.9974 11.3333V12.6667C7.9974 13.0203 8.13787 13.3594 8.38792 13.6095C8.63797 13.8595 8.97711 14 9.33073 14H10.6641C11.0177 14 11.3568 13.8595 11.6069 13.6095C11.8569 13.3594 11.9974 13.0203 11.9974 12.6667V11.3333C11.9974 10.9797 11.8569 10.6406 11.6069 10.3905C11.3568 10.1405 11.0177 10 10.6641 10H9.33073ZM10.6641 11.3333H9.33073V12.6667H10.6641V11.3333ZM13.3307 11.3333C13.3307 10.9797 13.4712 10.6406 13.7213 10.3905C13.9713 10.1405 14.3104 10 14.6641 10H15.9974C16.351 10 16.6902 10.1405 16.9402 10.3905C17.1903 10.6406 17.3307 10.9797 17.3307 11.3333V12.6667C17.3307 13.0203 17.1903 13.3594 16.9402 13.6095C16.6902 13.8595 16.351 14 15.9974 14H14.6641C14.3104 14 13.9713 13.8595 13.7213 13.6095C13.4712 13.3594 13.3307 13.0203 13.3307 12.6667V11.3333ZM14.6641 11.3333H15.9974V12.6667H14.6641V11.3333ZM3.9974 15.3333C3.64377 15.3333 3.30464 15.4738 3.05459 15.7239C2.80454 15.9739 2.66406 16.313 2.66406 16.6667V18C2.66406 18.3536 2.80454 18.6928 3.05459 18.9428C3.30464 19.1929 3.64377 19.3333 3.9974 19.3333H5.33073C5.68435 19.3333 6.02349 19.1929 6.27354 18.9428C6.52359 18.6928 6.66406 18.3536 6.66406 18V16.6667C6.66406 16.313 6.52359 15.9739 6.27354 15.7239C6.02349 15.4738 5.68435 15.3333 5.33073 15.3333H3.9974ZM3.9974 16.6667V18H5.33073V16.6667H3.9974ZM7.9974 16.6667C7.9974 16.313 8.13787 15.9739 8.38792 15.7239C8.63797 15.4738 8.97711 15.3333 9.33073 15.3333H10.6641C11.0177 15.3333 11.3568 15.4738 11.6069 15.7239C11.8569 15.9739 11.9974 16.313 11.9974 16.6667V18C11.9974 18.3536 11.8569 18.6928 11.6069 18.9428C11.3568 19.1929 11.0177 19.3333 10.6641 19.3333H9.33073C8.97711 19.3333 8.63797 19.1929 8.38792 18.9428C8.13787 18.6928 7.9974 18.3536 7.9974 18V16.6667ZM9.33073 16.6667H10.6641V18H9.33073V16.6667Z" fill="currentColor"/>
<path d="M19.3307 17C19.5075 17 19.6771 17.0702 19.8021 17.1953C19.9272 17.3203 19.9974 17.4899 19.9974 17.6667V19.0573L20.4687 19.5287C20.5902 19.6544 20.6574 19.8228 20.6558 19.9976C20.6543 20.1724 20.5842 20.3396 20.4606 20.4632C20.337 20.5868 20.1698 20.6569 19.995 20.6584C19.8202 20.66 19.6518 20.5928 19.5261 20.4713L18.6641 19.6093V17.6667C18.6641 17.4899 18.7343 17.3203 18.8593 17.1953C18.9843 17.0702 19.1539 17 19.3307 17Z" fill="currentColor"/>
<path fill-rule="evenodd" clip-rule="evenodd" d="M4 0.666667C4 0.489856 4.07024 0.320287 4.19526 0.195262C4.32029 0.070238 4.48986 0 4.66667 0C4.84348 0 5.01305 0.070238 5.13807 0.195262C5.2631 0.320287 5.33333 0.489856 5.33333 0.666667V4C5.33333 4.17681 5.2631 4.34638 5.13807 4.4714C5.01305 4.59643 4.84348 4.66667 4.66667 4.66667C4.48986 4.66667 4.32029 4.59643 4.19526 4.4714C4.07024 4.34638 4 4.17681 4 4V3.33333H2C1.82319 3.33333 1.65362 3.40357 1.5286 3.5286C1.40357 3.65362 1.33333 3.82319 1.33333 4V6.66667H18.6667V4C18.6667 3.82319 18.5964 3.65362 18.4714 3.5286C18.3464 3.40357 18.1768 3.33333 18 3.33333H16V2H18C18.5304 2 19.0391 2.21071 19.4142 2.58579C19.7893 2.96086 20 3.46957 20 4V14.7133C21.1677 14.8821 22.2282 15.4868 22.968 16.4059C23.7078 17.3249 24.0722 18.4901 23.9877 19.6669C23.9032 20.8437 23.3762 21.9448 22.5127 22.7487C21.6491 23.5527 20.5132 23.9998 19.3333 24C18.5809 24.0006 17.8395 23.819 17.1725 23.4707C16.5056 23.1224 15.9328 22.6178 15.5033 22H2C1.46957 22 0.960859 21.7893 0.585787 21.4142C0.210714 21.0391 0 20.5304 0 20V4C0 3.46957 0.210714 2.96086 0.585787 2.58579C0.960859 2.21071 1.46957 2 2 2H4V0.666667ZM14.6667 19.3333C14.6664 18.211 15.0706 17.1261 15.8053 16.2775C16.5399 15.429 17.5558 14.8737 18.6667 14.7133V8H1.33333V20C1.33333 20.1768 1.40357 20.3464 1.5286 20.4714C1.65362 20.5964 1.82319 20.6667 2 20.6667H14.86C14.7314 20.2339 14.6663 19.7848 14.6667 19.3333ZM19.3333 22.6667C20.2174 22.6667 21.0652 22.3155 21.6904 21.6904C22.3155 21.0652 22.6667 20.2174 22.6667 19.3333C22.6667 18.4493 22.3155 17.6014 21.6904 16.9763C21.0652 16.3512 20.2174 16 19.3333 16C18.4493 16 17.6014 16.3512 16.9763 16.9763C16.3512 17.6014 16 18.4493 16 19.3333C16 20.2174 16.3512 21.0652 16.9763 21.6904C17.6014 22.3155 18.4493 22.6667 19.3333 22.6667Z" fill="currentColor"/>
<path d="M13.9974 4.66667C13.8206 4.66667 13.651 4.59643 13.526 4.4714C13.401 4.34638 13.3307 4.17681 13.3307 4V3.33333H6.66406V2H13.3307V0.666667C13.3307 0.489856 13.401 0.320287 13.526 0.195262C13.651 0.070238 13.8206 0 13.9974 0C14.1742 0 14.3438 0.070238 14.4688 0.195262C14.5938 0.320287 14.6641 0.489856 14.6641 0.666667V4C14.6641 4.17681 14.5938 4.34638 14.4688 4.4714C14.3438 4.59643 14.1742 4.66667 13.9974 4.66667Z" fill="currentColor"/>
</svg>
