<svg width="14" height="14" viewBox="0 0 14 14" fill="none" xmlns="http://www.w3.org/2000/svg">
<g clip-path="url(#clip0_672_12171)">
<path d="M4.66666 6.99996H9.33333M7.58333 9.33329C7.58333 9.65546 7.32216 9.91663 7 9.91663C6.67783 9.91663 6.41666 9.65546 6.41666 9.33329C6.41666 9.01113 6.67783 8.74996 7 8.74996C7.32216 8.74996 7.58333 9.01113 7.58333 9.33329ZM7.58333 4.66663C7.58333 4.98879 7.32216 5.24996 7 5.24996C6.67783 5.24996 6.41666 4.98879 6.41666 4.66663C6.41666 4.34446 6.67783 4.08329 7 4.08329C7.32216 4.08329 7.58333 4.34446 7.58333 4.66663ZM12.8333 6.99996C12.8333 10.2216 10.2217 12.8333 7 12.8333C3.77834 12.8333 1.16666 10.2216 1.16666 6.99996C1.16666 3.7783 3.77834 1.16663 7 1.16663C10.2217 1.16663 12.8333 3.7783 12.8333 6.99996Z" stroke="currentColor" stroke-width="1.5" stroke-linecap="round" stroke-linejoin="round"/>
</g>
<defs>
<clipPath id="clip0_672_12171">
<rect width="14" height="14" fill="white"/>
</clipPath>
</defs>
</svg>
