<svg width="14" height="17" viewBox="0 0 14 17" fill="none" xmlns="http://www.w3.org/2000/svg">
<path d="M12.5 0.5H1.3C1.08783 0.5 0.884344 0.584285 0.734315 0.734315C0.584286 0.884344 0.5 1.08783 0.5 1.3V15.7C0.5 15.9122 0.584286 16.1157 0.734315 16.2657C0.884344 16.4157 1.08783 16.5 1.3 16.5H12.5C12.7122 16.5 12.9157 16.4157 13.0657 16.2657C13.2157 16.1157 13.3 15.9122 13.3 15.7V1.3C13.3 1.08783 13.2157 0.884344 13.0657 0.734315C12.9157 0.584285 12.7122 0.5 12.5 0.5Z" fill="#FF9500" stroke="#333333" stroke-linecap="round" stroke-linejoin="round"/>
<path d="M4.10156 10.9012H9.70156H4.10156ZM4.10156 13.3012H6.90156H4.10156ZM4.90156 5.70117H8.90156H4.90156ZM6.90156 7.70117V3.70117V7.70117Z" fill="#FF9500"/>
<path d="M4.10156 10.9012H9.70156M4.10156 13.3012H6.90156M4.90156 5.70117H8.90156M6.90156 7.70117V3.70117" stroke="#333333" stroke-linecap="round" stroke-linejoin="round"/>
</svg>
