<svg width="16" height="16" viewBox="0 0 16 16" fill="none" xmlns="http://www.w3.org/2000/svg">
<path d="M7.99844 4.79961C7.11478 4.79961 6.39844 4.08326 6.39844 3.19961C6.39844 2.31595 7.11478 1.59961 7.99844 1.59961C8.88209 1.59961 9.59844 2.31595 9.59844 3.19961C9.59844 4.08327 8.88209 4.79961 7.99844 4.79961Z" fill="currentColor"/>
<path d="M7.99844 9.59961C7.11478 9.59961 6.39844 8.88327 6.39844 7.99961C6.39844 7.11595 7.11478 6.39961 7.99844 6.39961C8.88209 6.39961 9.59844 7.11595 9.59844 7.99961C9.59844 8.88327 8.88209 9.59961 7.99844 9.59961Z" fill="currentColor"/>
<path d="M7.99844 14.3996C7.11478 14.3996 6.39844 13.6833 6.39844 12.7996C6.39844 11.916 7.11478 11.1996 7.99844 11.1996C8.88209 11.1996 9.59844 11.916 9.59844 12.7996C9.59844 13.6833 8.88209 14.3996 7.99844 14.3996Z" fill="currentColor"/>
</svg>
