<svg width="16" height="16" viewBox="0 0 16 16" fill="none" xmlns="http://www.w3.org/2000/svg">
<g clip-path="url(#clip0_350_8115)">
<path d="M7.33594 2.66617H2.66927C2.31565 2.66617 1.97651 2.80664 1.72646 3.05669C1.47641 3.30674 1.33594 3.64588 1.33594 3.9995V13.3328C1.33594 13.6865 1.47641 14.0256 1.72646 14.2756C1.97651 14.5257 2.31565 14.6662 2.66927 14.6662H12.0026C12.3562 14.6662 12.6954 14.5257 12.9454 14.2756C13.1955 14.0256 13.3359 13.6865 13.3359 13.3328V8.66617M12.3359 1.66617C12.6012 1.40095 12.9609 1.25195 13.3359 1.25195C13.711 1.25195 14.0707 1.40095 14.3359 1.66617C14.6012 1.93138 14.7502 2.29109 14.7502 2.66617C14.7502 3.04124 14.6012 3.40095 14.3359 3.66617L8.0026 9.9995L5.33594 10.6662L6.0026 7.9995L12.3359 1.66617Z" stroke="currentColor" stroke-width='1.5' stroke-linecap="round" stroke-linejoin="round"/>
</g>
<defs>
<clipPath id="clip0_350_8115">
<rect width="16" height="16" fill="white"/>
</clipPath>
</defs>
</svg>
