<svg width="14" height="14" viewBox="0 0 14 14" fill="none" xmlns="http://www.w3.org/2000/svg">
<g clip-path="url(#clip0_2796_33112)">
<path d="M11.5 2H13C13.1326 2 13.2598 2.05268 13.3536 2.14645C13.4473 2.24021 13.5 2.36739 13.5 2.5V10.5C13.5 10.6326 13.4473 10.7598 13.3536 10.8536C13.2598 10.9473 13.1326 11 13 11H1C0.867392 11 0.740215 10.9473 0.646447 10.8536C0.552678 10.7598 0.5 10.6326 0.5 10.5V2.5C0.5 2.36739 0.552678 2.24021 0.646447 2.14645C0.740215 2.05268 0.867392 2 1 2H2.5" stroke="currentColor" stroke-linecap="round" stroke-linejoin="round"/>
<path d="M6 11L5 13.5" stroke="currentColor" stroke-linecap="round" stroke-linejoin="round"/>
<path d="M8 11L9 13.5" stroke="currentColor" stroke-linecap="round" stroke-linejoin="round"/>
<path d="M4 13.5H10" stroke="currentColor" stroke-linecap="round" stroke-linejoin="round"/>
<path d="M6.44821 2.36083C6.49126 2.24996 6.56681 2.15468 6.66496 2.0875C6.76311 2.02032 6.87927 1.98437 6.99821 1.98438C7.11715 1.98437 7.23331 2.02032 7.33146 2.0875C7.42961 2.15468 7.50516 2.24996 7.54821 2.36083L8.18821 4.00083H9.89821C10.0198 4.00262 10.1381 4.04071 10.2378 4.1102C10.3376 4.17969 10.4144 4.27742 10.4582 4.39083C10.492 4.49723 10.4949 4.61103 10.4665 4.719C10.4382 4.82698 10.3799 4.92471 10.2982 5.00083L8.78821 6.34083L9.42821 7.62083C9.48614 7.73321 9.50577 7.86143 9.48411 7.98599C9.46245 8.11055 9.40068 8.22462 9.30821 8.31083C9.21799 8.40088 9.10104 8.45929 8.97485 8.47732C8.84866 8.49534 8.72003 8.47202 8.60821 8.41083L6.99821 7.53083L5.38821 8.41083C5.27638 8.47202 5.14775 8.49534 5.02157 8.47732C4.89538 8.45929 4.77843 8.40088 4.68821 8.31083C4.59574 8.22462 4.53397 8.11055 4.51231 7.98599C4.49064 7.86143 4.51027 7.73321 4.56821 7.62083L5.20821 6.34083L3.69821 5.00083C3.60883 4.92145 3.54567 4.8168 3.5171 4.70072C3.48853 4.58465 3.49589 4.46263 3.53821 4.35083C3.58811 4.2449 3.66745 4.15556 3.76675 4.0935C3.86605 4.03144 3.98112 3.99927 4.09821 4.00083H5.80821L6.44821 2.36083Z" stroke="currentColor" stroke-linecap="round" stroke-linejoin="round"/>
</g>
<defs>
<clipPath id="clip0_2796_33112">
<rect width="14" height="14" fill="white"/>
</clipPath>
</defs>
</svg>
