<svg width="16" height="16" viewBox="0 0 16 16" fill="none" xmlns="http://www.w3.org/2000/svg">
<path d="M9.33073 1.33398H3.9974C3.64377 1.33398 3.30464 1.47446 3.05459 1.72451C2.80454 1.97456 2.66406 2.3137 2.66406 2.66732V13.334C2.66406 13.6876 2.80454 14.0267 3.05459 14.2768C3.30464 14.5268 3.64377 14.6673 3.9974 14.6673H11.9974C12.351 14.6673 12.6902 14.5268 12.9402 14.2768C13.1903 14.0267 13.3307 13.6876 13.3307 13.334V5.33398M9.33073 1.33398L13.3307 5.33398M9.33073 1.33398V5.33398H13.3307M10.6641 8.66732H5.33073M10.6641 11.334H5.33073M6.66406 6.00065H5.33073" stroke="currentColor" stroke-width='1.5' stroke-linecap="round" stroke-linejoin="round"/>
</svg>
