<svg width="17" height="16" viewBox="0 0 17 16" fill="none" xmlns="http://www.w3.org/2000/svg">
<path d="M0.5 6.58C0.5 8.19252 1.14057 9.73899 2.28079 10.8792C3.42101 12.0194 4.96748 12.66 6.58 12.66C8.19252 12.66 9.73899 12.0194 10.8792 10.8792C12.0194 9.73899 12.66 8.19252 12.66 6.58C12.66 4.96748 12.0194 3.42101 10.8792 2.28079C9.73899 1.14057 8.19252 0.5 6.58 0.5C4.96748 0.5 3.42101 1.14057 2.28079 2.28079C1.14057 3.42101 0.5 4.96748 0.5 6.58Z" fill="#FF9500"/>
<path d="M12.66 6.9V13.3C12.66 13.8092 12.8623 14.2976 13.2224 14.6576C13.5824 15.0177 14.0708 15.22 14.58 15.22C15.0892 15.22 15.5776 15.0177 15.9376 14.6576C16.2977 14.2976 16.5 13.8092 16.5 13.3M0.5 6.58C0.5 8.19252 1.14057 9.73899 2.28079 10.8792C3.42101 12.0194 4.96748 12.66 6.58 12.66C8.19252 12.66 9.73899 12.0194 10.8792 10.8792C12.0194 9.73899 12.66 8.19252 12.66 6.58C12.66 4.96748 12.0194 3.42101 10.8792 2.28079C9.73899 1.14057 8.19252 0.5 6.58 0.5C4.96748 0.5 3.42101 1.14057 2.28079 2.28079C1.14057 3.42101 0.5 4.96748 0.5 6.58Z" stroke="#333333" stroke-linecap="round" stroke-linejoin="round"/>
<path d="M6.5829 3.95055C6.49803 3.95055 6.41664 3.91683 6.35663 3.85682C6.29661 3.79681 6.2629 3.71542 6.2629 3.63055C6.2629 3.54568 6.29661 3.46428 6.35663 3.40427C6.41664 3.34426 6.49803 3.31055 6.5829 3.31055M6.5829 3.95055C6.66777 3.95055 6.74916 3.91683 6.80917 3.85682C6.86919 3.79681 6.9029 3.71542 6.9029 3.63055C6.9029 3.54568 6.86919 3.46428 6.80917 3.40427C6.74916 3.34426 6.66777 3.31055 6.5829 3.31055M6.5829 9.85135C6.49803 9.85135 6.41664 9.81763 6.35663 9.75762C6.29661 9.69761 6.2629 9.61622 6.2629 9.53135C6.2629 9.44648 6.29661 9.36508 6.35663 9.30507C6.41664 9.24506 6.49803 9.21135 6.5829 9.21135M6.5829 9.85135C6.66777 9.85135 6.74916 9.81763 6.80917 9.75762C6.86919 9.69761 6.9029 9.61622 6.9029 9.53135C6.9029 9.44648 6.86919 9.36508 6.80917 9.30507C6.74916 9.24506 6.66777 9.21135 6.5829 9.21135M3.6325 6.90095C3.54763 6.90095 3.46624 6.86723 3.40623 6.80722C3.34621 6.74721 3.3125 6.66582 3.3125 6.58095C3.3125 6.49608 3.34621 6.41468 3.40623 6.35467C3.46624 6.29466 3.54763 6.26095 3.6325 6.26095M3.6325 6.90095C3.71737 6.90095 3.79876 6.86723 3.85877 6.80722C3.91879 6.74721 3.9525 6.66582 3.9525 6.58095C3.9525 6.49608 3.91879 6.41468 3.85877 6.35467C3.79876 6.29466 3.71737 6.26095 3.6325 6.26095M9.5333 6.90095C9.44843 6.90095 9.36704 6.86723 9.30703 6.80722C9.24701 6.74721 9.2133 6.66582 9.2133 6.58095C9.2133 6.49608 9.24701 6.41468 9.30703 6.35467C9.36704 6.29466 9.44843 6.26095 9.5333 6.26095M9.5333 6.90095C9.61817 6.90095 9.69956 6.86723 9.75957 6.80722C9.81959 6.74721 9.8533 6.66582 9.8533 6.58095C9.8533 6.49608 9.81959 6.41468 9.75957 6.35467C9.69956 6.29466 9.61817 6.26095 9.5333 6.26095" stroke="#333333" stroke-linecap="round" stroke-linejoin="round"/>
</svg>
