<svg width="24" height="24" viewBox="0 0 24 24" fill="none" xmlns="http://www.w3.org/2000/svg">
<path d="M5.3998 5.32947V3.52947C5.3998 2.86673 5.93706 2.32947 6.5998 2.32947H17.9998C18.6625 2.32947 19.1998 2.86673 19.1998 3.52947V8.32947M2.40074 19.2705L2.40083 10.1462C2.40084 9.23223 2.4005 7.9305 2.40021 6.98795C2.4 6.32503 2.93734 5.78826 3.60025 5.78826H9.31847L12.0835 8.74189H20.3998C21.0625 8.74189 21.5998 9.27917 21.5998 9.94193L21.5995 19.2706C21.5994 20.5961 20.5249 21.6705 19.1995 21.6705L4.80074 21.6705C3.47525 21.6705 2.40073 20.596 2.40074 19.2705Z" stroke="currentColor" stroke-width="1.5" stroke-linecap="round" stroke-linejoin="round"/>
</svg>
