<svg width="9" height="9" viewBox="0 0 9 9" fill="none" xmlns="http://www.w3.org/2000/svg">
<path d="M7.125 1.125C7.53921 1.125 7.875 1.45619 7.875 1.86472L7.875 3.12747C7.875 3.53601 7.53922 3.8672 7.125 3.8672H6C5.58579 3.8672 5.25 3.53601 5.25 3.12747L5.25 1.86472C5.25 1.45619 5.58579 1.125 6 1.125L7.125 1.125Z" stroke="currentColor" stroke-linecap="round" stroke-linejoin="round"/>
<path d="M1.875 1.125C1.46079 1.125 1.125 1.45619 1.125 1.86472L1.125 3.12747C1.125 3.53601 1.46079 3.8672 1.875 3.8672H3C3.41422 3.8672 3.75 3.53601 3.75 3.12747L3.75 1.86472C3.75 1.45619 3.41421 1.125 3 1.125L1.875 1.125Z" stroke="currentColor" stroke-linecap="round" stroke-linejoin="round"/>
<path d="M7.125 5.13282C7.53922 5.13282 7.875 5.464 7.875 5.87254V7.13527C7.875 7.54381 7.53922 7.875 7.125 7.875H6C5.58579 7.875 5.25 7.54381 5.25 7.13527L5.25 5.87254C5.25 5.464 5.58579 5.13282 6 5.13282H7.125Z" stroke="currentColor" stroke-linecap="round" stroke-linejoin="round"/>
<path d="M1.875 5.13282C1.46079 5.13282 1.125 5.464 1.125 5.87254L1.125 7.13527C1.125 7.54381 1.46079 7.875 1.875 7.875H3C3.41422 7.875 3.75 7.54381 3.75 7.13527L3.75 5.87254C3.75 5.464 3.41422 5.13282 3 5.13282H1.875Z" stroke="currentColor" stroke-linecap="round" stroke-linejoin="round"/>
</svg>
