<svg width="14" height="14" viewBox="0 0 14 14" fill="none" xmlns="http://www.w3.org/2000/svg">
<path d="M12.1567 2.68913C11.8587 2.39105 11.505 2.15459 11.1156 1.99327C10.7263 1.83194 10.3089 1.7489 9.8875 1.7489C9.46605 1.7489 9.04873 1.83194 8.65937 1.99327C8.27002 2.15459 7.91627 2.39105 7.61833 2.68913L7 3.30747L6.38166 2.68913C5.77984 2.08731 4.9636 1.74921 4.1125 1.74921C3.2614 1.74921 2.44515 2.08731 1.84333 2.68913C1.24151 3.29095 0.903412 4.1072 0.903412 4.9583C0.903412 5.8094 1.24151 6.62565 1.84333 7.22747L7 12.3841L12.1567 7.22747C12.4547 6.92953 12.6912 6.57577 12.8525 6.18642C13.0139 5.79707 13.0969 5.37975 13.0969 4.9583C13.0969 4.53685 13.0139 4.11953 12.8525 3.73018C12.6912 3.34082 12.4547 2.98707 12.1567 2.68913Z" stroke="currentColor" stroke-width="1.5" stroke-linecap="round" stroke-linejoin="round"/>
</svg>
