<svg width="10" height="10" viewBox="0 0 10 10" fill="none" xmlns="http://www.w3.org/2000/svg">
<path d="M5 9.5C7.48535 9.5 9.5 7.48535 9.5 5C9.5 2.51465 7.48535 0.5 5 0.5C2.51465 0.5 0.5 2.51465 0.5 5C0.5 6.08585 0.88475 7.08215 1.5251 7.85975L0.5 9.5H5Z" stroke="currentColor" stroke-width="1.5" stroke-linejoin="bevel"/>
<path d="M3.62109 4.12559V3.87539C3.62109 3.69811 3.65601 3.52256 3.72386 3.35877C3.7917 3.19498 3.89114 3.04616 4.0165 2.9208C4.14186 2.79544 4.29068 2.696 4.45447 2.62815C4.61826 2.56031 4.79381 2.52539 4.97109 2.52539C5.14838 2.52539 5.32393 2.56031 5.48772 2.62815C5.65151 2.696 5.80033 2.79544 5.92569 2.9208C6.05105 3.04616 6.15049 3.19498 6.21833 3.35877C6.28617 3.52256 6.32109 3.69811 6.32109 3.87539V4.12559L4.97109 5.32529V6.12539M4.97109 7.02539V7.70039" stroke="currentColor" stroke-width="1.5" stroke-linejoin="bevel"/>
</svg>
