<svg width="32" height="32" viewBox="0 0 32 32" fill="none" xmlns="http://www.w3.org/2000/svg">
<path d="M24.0001 24.6666L24.3707 22.8186C24.5654 21.8413 25.0881 20.9386 25.2747 19.96C25.3147 19.7564 25.3343 19.5475 25.3334 19.3333C25.3329 18.8694 25.2354 18.4107 25.0474 17.9865C24.8594 17.5624 24.585 17.1822 24.2416 16.8702C23.8982 16.5582 23.4935 16.3214 23.0533 16.1748C22.6132 16.0282 22.1472 15.9751 21.6854 16.0189C21.2235 16.0627 20.7759 16.2024 20.3711 16.4292C19.9664 16.6559 19.6134 16.9646 19.3348 17.3356C19.0562 17.7065 18.8581 18.1315 18.7531 18.5835C18.6482 19.0354 18.6388 19.5042 18.7254 19.96C18.9121 20.94 19.4347 21.84 19.6307 22.8186L20.0001 24.6666M24.0001 24.6666H20.0001H24.0001ZM24.0001 24.6666L27.3294 25.5546C27.8978 25.6811 28.4061 25.9976 28.7705 26.4519C29.1348 26.9061 29.3334 27.471 29.3334 28.0533C29.3334 28.76 28.7601 29.3333 28.0534 29.3333H15.9467C15.6073 29.3333 15.2817 29.1985 15.0417 28.9584C14.8016 28.7184 14.6667 28.3928 14.6667 28.0533C14.6667 26.8533 15.5001 25.8146 16.6707 25.5546L20.0001 24.6666" fill="#FF9500"/>
<path d="M24.0001 24.6666L24.3707 22.8186C24.5654 21.8413 25.0881 20.9386 25.2747 19.96C25.3147 19.7564 25.3343 19.5475 25.3334 19.3333C25.3329 18.8694 25.2354 18.4107 25.0474 17.9865C24.8594 17.5624 24.585 17.1822 24.2416 16.8702C23.8982 16.5582 23.4935 16.3214 23.0533 16.1748C22.6132 16.0282 22.1472 15.9751 21.6854 16.0189C21.2235 16.0627 20.7759 16.2024 20.3711 16.4292C19.9664 16.6559 19.6134 16.9646 19.3348 17.3356C19.0562 17.7065 18.8581 18.1315 18.7531 18.5835C18.6482 19.0354 18.6388 19.5042 18.7254 19.96C18.9121 20.94 19.4347 21.84 19.6307 22.8186L20.0001 24.6666M24.0001 24.6666H20.0001M24.0001 24.6666L27.3294 25.5546C27.8978 25.6811 28.4061 25.9976 28.7705 26.4519C29.1348 26.9061 29.3334 27.471 29.3334 28.0533C29.3334 28.76 28.7601 29.3333 28.0534 29.3333H15.9467C15.6073 29.3333 15.2817 29.1985 15.0417 28.9584C14.8016 28.7184 14.6667 28.3928 14.6667 28.0533C14.6667 26.8533 15.5001 25.8146 16.6707 25.5546L20.0001 24.6666" stroke="#333333" stroke-width="2"/>
<path d="M22.6667 12V10.6666C22.6667 6.89596 22.6667 5.00929 21.4947 3.83863C20.3241 2.66663 18.4374 2.66663 14.6667 2.66663H10.6667C6.89608 2.66663 5.00941 2.66663 3.83875 3.83863C2.66675 5.00929 2.66675 6.89596 2.66675 10.6666V21.3333C2.66675 25.104 2.66675 26.9906 3.83875 28.1613C5.00941 29.3333 6.89608 29.3333 10.6667 29.3333" stroke="#333333" stroke-width="2" stroke-linecap="round"/>
<path d="M9.3335 11.556C9.3335 11.556 10.1668 11.556 11.0002 13.3333C11.0002 13.3333 13.6468 8.88933 16.0002 8" stroke="#333333" stroke-width="2" stroke-linecap="round" stroke-linejoin="round"/>
<path d="M8 18.6666H13.3333M8 22.6666H13.3333" stroke="#333333" stroke-width="2" stroke-linecap="round"/>
</svg>
