<svg width="16" height="16" viewBox="0 0 16 16" fill="none" xmlns="http://www.w3.org/2000/svg">
<g clip-path="url(#clip0_350_8119)">
<path d="M9.33594 14.6673V5.33398M9.33594 14.6673H5.33594C3.4506 14.6673 2.50727 14.6673 1.92194 14.0813C1.33594 13.496 1.33594 12.5527 1.33594 10.6673V5.33398C1.33594 3.44865 1.33594 2.50532 1.92194 1.91998C2.50727 1.33398 3.4506 1.33398 5.33594 1.33398C7.22127 1.33398 8.1646 1.33398 8.74994 1.91998C9.33594 2.50532 9.33594 3.44865 9.33594 5.33398M9.33594 14.6673H12.0026C13.2599 14.6673 13.8879 14.6673 14.2786 14.2766C14.6693 13.886 14.6693 13.258 14.6693 12.0007V8.00065C14.6693 6.74332 14.6693 6.11532 14.2786 5.72465C13.8879 5.33398 13.2599 5.33398 12.0026 5.33398H9.33594M4.33594 7.33398H3.66927M7.0026 7.33398H6.33594M4.33594 4.66732H3.66927M4.33594 10.0007H3.66927M7.0026 4.66732H6.33594M7.0026 10.0007H6.33594M12.3359 10.0007H11.6693M12.3359 7.33398H11.6693" stroke="currentColor" stroke-width="1.5" stroke-linecap="round"/>
</g>
<defs>
<clipPath id="clip0_350_8119">
<rect width="16" height="16" fill="white"/>
</clipPath>
</defs>
</svg>
