<svg width="32" height="32" viewBox="0 0 32 32" fill="none" xmlns="http://www.w3.org/2000/svg">
<path d="M16.0013 26.6663H4.66797C4.13754 26.6663 3.62883 26.4556 3.25376 26.0806C2.87868 25.7055 2.66797 25.1968 2.66797 24.6663V7.33301C2.66797 6.80257 2.87868 6.29387 3.25376 5.91879C3.62883 5.54372 4.13754 5.33301 4.66797 5.33301H27.3346C27.8651 5.33301 28.3738 5.54372 28.7488 5.91879C29.1239 6.29387 29.3346 6.80257 29.3346 7.33301V15.3723" stroke="#333333" stroke-width="2" stroke-linecap="round" stroke-linejoin="round"/>
<path d="M2.66797 7.33301C2.66797 6.80257 2.87868 6.29387 3.25376 5.91879C3.62883 5.54372 4.13754 5.33301 4.66797 5.33301H27.3346C27.8651 5.33301 28.3738 5.54372 28.7488 5.91879C29.1239 6.29387 29.3346 6.80257 29.3346 7.33301V13.333H2.66797V7.33301Z" fill="#FF9500" stroke="#333333" stroke-width="2"/>
<path d="M5.33333 9.33268C5.33333 8.5963 5.93029 7.99935 6.66667 7.99935C7.40305 7.99935 8 8.5963 8 9.33268C8 10.0691 7.40305 10.666 6.66667 10.666C5.93029 10.666 5.33333 10.0691 5.33333 9.33268Z" fill="white"/>
<path d="M9.33333 9.33268C9.33333 8.5963 9.93029 7.99935 10.6667 7.99935C11.403 7.99935 12 8.5963 12 9.33268C12 10.0691 11.403 10.666 10.6667 10.666C9.93029 10.666 9.33333 10.0691 9.33333 9.33268Z" fill="white"/>
<path d="M24.668 24.666C25.7725 24.666 26.668 23.7706 26.668 22.666C26.668 21.5614 25.7725 20.666 24.668 20.666C23.5634 20.666 22.668 21.5614 22.668 22.666C22.668 23.7706 23.5634 24.666 24.668 24.666Z" stroke="#333333" stroke-width="2"/>
<path d="M24.6663 27.3333V24.6667M24.6663 20.6667V18M20.625 25L22.9343 23.6667M26.3983 21.6667L28.7077 20.3333M20.625 20.3333L22.9343 21.6667M26.3983 23.6667L28.7077 25" stroke="#333333" stroke-width="2" stroke-linecap="round" stroke-linejoin="round"/>
</svg>
