<svg width="13" height="17" viewBox="0 0 13 17" fill="none" xmlns="http://www.w3.org/2000/svg">
<path d="M11.7 14.0996V1.29997C11.7 0.85816 11.3418 0.5 10.9 0.5H1.3C0.85816 0.5 0.5 0.85816 0.5 1.29997V14.0996" stroke="#333333" stroke-linecap="round" stroke-linejoin="round"/>
<path d="M9.3 11.6992H2.9C1.57452 11.6992 0.5 12.7737 0.5 14.0991C0.5 15.4246 1.57452 16.4991 2.9 16.4991H9.3C10.6255 16.4991 11.7 15.4246 11.7 14.0991C11.7 12.7737 10.6255 11.6992 9.3 11.6992Z" fill="#FF9500" stroke="#333333" stroke-linecap="round" stroke-linejoin="round"/>
<path d="M4.49844 5.30112L6.09844 3.70117L7.69844 5.30112L9.29844 3.70117L8.09844 8.10103H4.09844L2.89844 3.70117L4.49844 5.30112Z" fill="#FF9500" stroke="#333333" stroke-linejoin="round"/>
<path d="M9.3 14.8988C9.74183 14.8988 10.1 14.5406 10.1 14.0988C10.1 13.657 9.74183 13.2988 9.3 13.2988C8.85817 13.2988 8.5 13.657 8.5 14.0988C8.5 14.5406 8.85817 14.8988 9.3 14.8988Z" fill="#E5F3FF"/>
</svg>
