<svg width="10" height="10" viewBox="0 0 10 10" fill="none" xmlns="http://www.w3.org/2000/svg">
<g clip-path="url(#clip0_780_60)">
<path d="M7.91671 4.16667V5.00001C7.91671 5.77355 7.60942 6.51542 7.06244 7.0624C6.51545 7.60938 5.77359 7.91667 5.00004 7.91667M5.00004 7.91667C4.22649 7.91667 3.48463 7.60938 2.93765 7.0624C2.39066 6.51542 2.08337 5.77355 2.08337 5.00001V4.16667M5.00004 7.91667V9.58334M3.33337 9.58334H6.66671M5.00004 0.416672C4.66852 0.416672 4.35058 0.548368 4.11616 0.782788C3.88174 1.01721 3.75004 1.33515 3.75004 1.66667V5.00001C3.75004 5.33153 3.88174 5.64947 4.11616 5.88389C4.35058 6.11831 4.66852 6.25001 5.00004 6.25001C5.33156 6.25001 5.6495 6.11831 5.88392 5.88389C6.11834 5.64947 6.25004 5.33153 6.25004 5.00001V1.66667C6.25004 1.33515 6.11834 1.01721 5.88392 0.782788C5.6495 0.548368 5.33156 0.416672 5.00004 0.416672Z" stroke="currentColor" stroke-width="1" stroke-linecap="round" stroke-linejoin="round"/>
</g>
<defs>
<clipPath id="clip0_780_60">
<rect width="10" height="10" fill="yellow"/>
</clipPath>
</defs>
</svg>
