<svg width="17" height="17" viewBox="0 0 17 17" fill="none" xmlns="http://www.w3.org/2000/svg">
<path d="M6.1 0.5H1.3C0.858172 0.5 0.5 0.858172 0.5 1.3V6.1C0.5 6.54184 0.858172 6.9 1.3 6.9H6.1C6.54184 6.9 6.9 6.54184 6.9 6.1V1.3C6.9 0.858172 6.54184 0.5 6.1 0.5Z" fill="#FF9500" stroke="#333333" stroke-linejoin="round"/>
<path d="M6.1 10.0996H1.3C0.858172 10.0996 0.5 10.4578 0.5 10.8996V15.6996C0.5 16.1414 0.858172 16.4996 1.3 16.4996H6.1C6.54184 16.4996 6.9 16.1414 6.9 15.6996V10.8996C6.9 10.4578 6.54184 10.0996 6.1 10.0996Z" fill="#FF9500" stroke="#333333" stroke-linejoin="round"/>
<path d="M15.7016 0.5H10.9016C10.4597 0.5 10.1016 0.858172 10.1016 1.3V6.1C10.1016 6.54184 10.4597 6.9 10.9016 6.9H15.7016C16.1434 6.9 16.5016 6.54184 16.5016 6.1V1.3C16.5016 0.858172 16.1434 0.5 15.7016 0.5Z" fill="#FF9500" stroke="#333333" stroke-linejoin="round"/>
<path d="M10.1016 10.0996H16.5016" stroke="#333333" stroke-linecap="round" stroke-linejoin="round"/>
<path d="M13.2969 13.3008H16.4969" stroke="#333333" stroke-linecap="round" stroke-linejoin="round"/>
<path d="M10.1016 16.5H16.5016" stroke="#333333" stroke-linecap="round" stroke-linejoin="round"/>
</svg>
