<svg width="16" height="16" viewBox="0 0 16 16" fill="none" xmlns="http://www.w3.org/2000/svg">
<path d="M7.9974 8.66732C8.36559 8.66732 8.66406 8.36884 8.66406 8.00065C8.66406 7.63246 8.36559 7.33398 7.9974 7.33398C7.62921 7.33398 7.33073 7.63246 7.33073 8.00065C7.33073 8.36884 7.62921 8.66732 7.9974 8.66732Z" stroke="currentColor" stroke-width="2" stroke-linecap="round" stroke-linejoin="round"/>
<path d="M12.6641 8.66732C13.0323 8.66732 13.3307 8.36884 13.3307 8.00065C13.3307 7.63246 13.0323 7.33398 12.6641 7.33398C12.2959 7.33398 11.9974 7.63246 11.9974 8.00065C11.9974 8.36884 12.2959 8.66732 12.6641 8.66732Z" stroke="currentColor" stroke-width="2" stroke-linecap="round" stroke-linejoin="round"/>
<path d="M3.33073 8.66732C3.69892 8.66732 3.9974 8.36884 3.9974 8.00065C3.9974 7.63246 3.69892 7.33398 3.33073 7.33398C2.96254 7.33398 2.66406 7.63246 2.66406 8.00065C2.66406 8.36884 2.96254 8.66732 3.33073 8.66732Z" stroke="currentColor" stroke-width="2" stroke-linecap="round" stroke-linejoin="round"/>
</svg>
