<svg width="9" height="10" viewBox="0 0 9 10" fill="none" xmlns="http://www.w3.org/2000/svg">
<path d="M5.96867 7.67703C5.96867 8.16051 5.7766 8.62419 5.43473 8.96606C5.09286 9.30794 4.62918 9.5 4.1457 9.5C3.66221 9.5 3.19853 9.30794 2.85666 8.96606C2.51479 8.62419 2.32273 8.16051 2.32273 7.67703M0.955499 7.67703C0.877845 7.67699 0.801489 7.65711 0.733677 7.61927C0.665864 7.58143 0.608845 7.52689 0.56803 7.46083C0.527214 7.39477 0.503956 7.31937 0.500462 7.24179C0.496968 7.16422 0.513354 7.08704 0.548066 7.01757L1.41124 5.29031V4.03109C1.41124 2.33208 2.57338 0.904699 4.1457 0.5C5.71801 0.904699 6.88015 2.33208 6.88015 4.03109V5.29076L7.74333 7.01757C7.77804 7.08704 7.79442 7.16422 7.79093 7.24179C7.78744 7.31937 7.76418 7.39477 7.72336 7.46083C7.68255 7.52689 7.62553 7.58143 7.55772 7.61927C7.4899 7.65711 7.41355 7.67699 7.33589 7.67703H0.955499Z" stroke="currentColor" stroke-width="1.5" stroke-linecap="round" stroke-linejoin="round"/>
</svg>
