<svg width="14" height="14" viewBox="0 0 14 14" fill="none" xmlns="http://www.w3.org/2000/svg">
<g clip-path="url(#clip0_672_12231)">
<path d="M3.5 5.24996V1.16663H10.5V5.24996M3.5 10.5H2.33333C2.02391 10.5 1.72717 10.377 1.50837 10.1583C1.28958 9.93946 1.16666 9.64271 1.16666 9.33329V6.41663C1.16666 6.10721 1.28958 5.81046 1.50837 5.59167C1.72717 5.37288 2.02391 5.24996 2.33333 5.24996H11.6667C11.9761 5.24996 12.2728 5.37288 12.4916 5.59167C12.7104 5.81046 12.8333 6.10721 12.8333 6.41663V9.33329C12.8333 9.64271 12.7104 9.93946 12.4916 10.1583C12.2728 10.377 11.9761 10.5 11.6667 10.5H10.5M3.5 8.16663H10.5V12.8333H3.5V8.16663Z" stroke="currentColor" stroke-width="1.3" stroke-linecap="round" stroke-linejoin="round"/>
</g>
<defs>
<clipPath id="clip0_672_12231">
<rect width="14" height="14" fill="white"/>
</clipPath>
</defs>
</svg>
