<svg width="17" height="17" viewBox="0 0 17 17" fill="none" xmlns="http://www.w3.org/2000/svg">
<path d="M4.41406 6.05193C5.86251 4.7647 6.76076 4.32965 8.49839 4.00977C10.236 4.33093 11.1343 4.7647 12.5827 6.05193" stroke="#333333" stroke-linecap="round" stroke-linejoin="round"/>
<path d="M4.41745 6.05273C3.91459 7.43465 3.90947 9.08271 4.30869 10.471C4.37586 10.6986 4.50954 10.9009 4.69255 11.0519C5.95675 12.1063 6.82173 12.494 8.23179 12.8024C8.40973 12.8408 8.59382 12.8408 8.77176 12.8024C10.1818 12.494 11.0468 12.1063 12.3097 11.0519C12.4932 10.9011 12.6273 10.6988 12.6949 10.471C13.0941 9.08271 13.089 7.43465 12.5861 6.05273L8.50178 8.0949L4.41745 6.05273Z" fill="#FF9500"/>
<path d="M8.50178 8.08466V12.8587M4.41745 6.05273C3.91459 7.43465 3.90947 9.08271 4.30869 10.471C4.37586 10.6986 4.50954 10.9009 4.69255 11.0519C5.95675 12.1063 6.82173 12.494 8.23179 12.8024C8.40973 12.8408 8.59382 12.8408 8.77176 12.8024C10.1818 12.494 11.0468 12.1063 12.3097 11.0519C12.4932 10.9011 12.6273 10.6988 12.6949 10.471C13.0941 9.08271 13.089 7.43465 12.5861 6.05273L8.50178 8.0949L4.41745 6.05273Z" stroke="#333333" stroke-linecap="round" stroke-linejoin="round"/>
<path d="M0.500001 8.50029C0.499313 6.71994 1.09272 4.99027 2.18622 3.5853C3.27972 2.18034 4.81076 1.18044 6.53679 0.74401C8.26282 0.307581 10.0851 0.459586 11.715 1.17594C13.3449 1.8923 14.6891 3.13203 15.5347 4.69874C15.632 3.28868 15.6025 2.48256 15.4068 1.02003M16.4944 8.50029C16.4949 10.2769 15.9039 12.0031 14.8145 13.4066C13.7251 14.81 12.1994 15.8107 10.4781 16.2508C8.75684 16.6908 6.93804 16.5452 5.30873 15.8369C3.67942 15.1285 2.33236 13.8978 1.48014 12.3389C1.38289 13.749 1.41104 14.5551 1.60809 16.0177" stroke="#333333" stroke-linecap="round" stroke-linejoin="round"/>
</svg>
