<svg width="17" height="17" viewBox="0 0 17 17" fill="none" xmlns="http://www.w3.org/2000/svg">
<path d="M15.2692 0.5H1.73077C1.40435 0.5 1.0913 0.62967 0.860484 0.860484C0.62967 1.0913 0.5 1.40435 0.5 1.73077V15.2692C0.5 15.5957 0.62967 15.9087 0.860484 16.1395C1.0913 16.3703 1.40435 16.5 1.73077 16.5H15.2692C15.5957 16.5 15.9087 16.3703 16.1395 16.1395C16.3703 15.9087 16.5 15.5957 16.5 15.2692V1.73077C16.5 1.40435 16.3703 1.0913 16.1395 0.860484C15.9087 0.62967 15.5957 0.5 15.2692 0.5Z" fill="#FF9500"/>
<path d="M4.19231 12.8077H12.8077M15.2692 0.5H1.73077C1.40435 0.5 1.0913 0.62967 0.860484 0.860484C0.62967 1.0913 0.5 1.40435 0.5 1.73077V15.2692C0.5 15.5957 0.62967 15.9087 0.860484 16.1395C1.0913 16.3703 1.40435 16.5 1.73077 16.5H15.2692C15.5957 16.5 15.9087 16.3703 16.1395 16.1395C16.3703 15.9087 16.5 15.5957 16.5 15.2692V1.73077C16.5 1.40435 16.3703 1.0913 16.1395 0.860484C15.9087 0.62967 15.5957 0.5 15.2692 0.5Z" stroke="#333333" stroke-linecap="round" stroke-linejoin="round"/>
<path d="M6.65685 10.3472V4.19336L4.19531 6.6549M10.3492 10.3472V4.19336L12.8107 6.6549" stroke="#333333" stroke-linecap="round" stroke-linejoin="round"/>
</svg>
