<svg width="14" height="14" viewBox="0 0 14 14" fill="none" xmlns="http://www.w3.org/2000/svg">
<g clip-path="url(#clip0_576_12794)">
<path d="M6.99992 8.75004C7.96642 8.75004 8.74992 7.96654 8.74992 7.00004C8.74992 6.03354 7.96642 5.25004 6.99992 5.25004C6.03342 5.25004 5.24992 6.03354 5.24992 7.00004C5.24992 7.96654 6.03342 8.75004 6.99992 8.75004Z" stroke="currentColor" stroke-width="1.5" stroke-linecap="round" stroke-linejoin="round"/>
<path d="M11.3166 8.75004C11.2389 8.92598 11.2158 9.12115 11.2501 9.31038C11.2844 9.49961 11.3746 9.67423 11.5091 9.81171L11.5441 9.84671C11.6526 9.95506 11.7386 10.0837 11.7973 10.2254C11.856 10.367 11.8863 10.5188 11.8863 10.6721C11.8863 10.8254 11.856 10.9773 11.7973 11.1189C11.7386 11.2605 11.6526 11.3892 11.5441 11.4975C11.4357 11.606 11.3071 11.6921 11.1654 11.7508C11.0238 11.8095 10.872 11.8397 10.7187 11.8397C10.5654 11.8397 10.4135 11.8095 10.2719 11.7508C10.1303 11.6921 10.0016 11.606 9.89325 11.4975L9.85825 11.4625C9.72077 11.3281 9.54616 11.2378 9.35693 11.2035C9.1677 11.1692 8.97253 11.1924 8.79658 11.27C8.62405 11.344 8.47691 11.4668 8.37326 11.6233C8.26962 11.7798 8.214 11.9632 8.21325 12.1509V12.25C8.21325 12.5595 8.09034 12.8562 7.87154 13.075C7.65275 13.2938 7.356 13.4167 7.04659 13.4167C6.73717 13.4167 6.44042 13.2938 6.22163 13.075C6.00283 12.8562 5.87992 12.5595 5.87992 12.25V12.1975C5.8754 12.0045 5.8129 11.8172 5.70055 11.6601C5.58819 11.503 5.43118 11.3834 5.24992 11.3167C5.07398 11.2391 4.87881 11.2159 4.68958 11.2502C4.50034 11.2845 4.32573 11.3747 4.18825 11.5092L4.15325 11.5442C4.0449 11.6527 3.91623 11.7387 3.7746 11.7974C3.63297 11.8562 3.48115 11.8864 3.32784 11.8864C3.17452 11.8864 3.0227 11.8562 2.88107 11.7974C2.73944 11.7387 2.61077 11.6527 2.50242 11.5442C2.39395 11.4359 2.30789 11.3072 2.24918 11.1656C2.19047 11.0239 2.16025 10.8721 2.16025 10.7188C2.16025 10.5655 2.19047 10.4137 2.24918 10.272C2.30789 10.1304 2.39395 10.0017 2.50242 9.89337L2.53742 9.85837C2.6719 9.72089 2.76211 9.54628 2.79642 9.35705C2.83073 9.16782 2.80757 8.97265 2.72992 8.79671C2.65597 8.62417 2.53319 8.47703 2.37669 8.37339C2.22019 8.26974 2.03679 8.21412 1.84909 8.21337H1.74992C1.4405 8.21337 1.14375 8.09046 0.924961 7.87166C0.706168 7.65287 0.583252 7.35613 0.583252 7.04671C0.583252 6.73729 0.706168 6.44054 0.924961 6.22175C1.14375 6.00296 1.4405 5.88004 1.74992 5.88004H1.80242C1.9955 5.87552 2.18275 5.81303 2.33984 5.70067C2.49693 5.58832 2.61659 5.4313 2.68325 5.25004C2.7609 5.0741 2.78407 4.87893 2.74975 4.6897C2.71544 4.50047 2.62523 4.32585 2.49075 4.18837L2.45575 4.15337C2.34728 4.04502 2.26123 3.91635 2.20252 3.77472C2.1438 3.63309 2.11358 3.48128 2.11358 3.32796C2.11358 3.17464 2.1438 3.02282 2.20252 2.88119C2.26123 2.73956 2.34728 2.61089 2.45575 2.50254C2.5641 2.39407 2.69277 2.30802 2.8344 2.2493C2.97604 2.19059 3.12785 2.16037 3.28117 2.16037C3.43449 2.16037 3.5863 2.19059 3.72793 2.2493C3.86956 2.30802 3.99823 2.39407 4.10659 2.50254L4.14159 2.53754C4.27906 2.67202 4.45368 2.76223 4.64291 2.79654C4.83214 2.83085 5.02731 2.80769 5.20325 2.73004H5.24992C5.42245 2.6561 5.5696 2.53331 5.67324 2.37681C5.77688 2.22031 5.8325 2.03692 5.83325 1.84921V1.75004C5.83325 1.44062 5.95617 1.14388 6.17496 0.925083C6.39375 0.70629 6.6905 0.583374 6.99992 0.583374C7.30934 0.583374 7.60608 0.70629 7.82488 0.925083C8.04367 1.14388 8.16659 1.44062 8.16659 1.75004V1.80254C8.16733 1.99025 8.22295 2.17364 8.3266 2.33015C8.43024 2.48665 8.57739 2.60943 8.74992 2.68337C8.92586 2.76102 9.12103 2.78419 9.31026 2.74988C9.49949 2.71557 9.67411 2.62535 9.81158 2.49087L9.84658 2.45587C9.95494 2.3474 10.0836 2.26135 10.2252 2.20264C10.3669 2.14393 10.5187 2.11371 10.672 2.11371C10.8253 2.11371 10.9771 2.14393 11.1188 2.20264C11.2604 2.26135 11.3891 2.3474 11.4974 2.45587C11.6059 2.56423 11.6919 2.6929 11.7507 2.83453C11.8094 2.97616 11.8396 3.12797 11.8396 3.28129C11.8396 3.43461 11.8094 3.58642 11.7507 3.72805C11.6919 3.86969 11.6059 3.99836 11.4974 4.10671L11.4624 4.14171C11.3279 4.27919 11.2377 4.4538 11.2034 4.64303C11.1691 4.83226 11.1923 5.02743 11.2699 5.20337V5.25004C11.3439 5.42257 11.4666 5.56972 11.6231 5.67336C11.7796 5.77701 11.963 5.83263 12.1508 5.83337H12.2499C12.5593 5.83337 12.8561 5.95629 13.0749 6.17508C13.2937 6.39388 13.4166 6.69062 13.4166 7.00004C13.4166 7.30946 13.2937 7.60621 13.0749 7.825C12.8561 8.04379 12.5593 8.16671 12.2499 8.16671H12.1974C12.0097 8.16746 11.8263 8.22308 11.6698 8.32672C11.5133 8.43036 11.3905 8.57751 11.3166 8.75004Z" stroke="currentColor" stroke-width="1.5" stroke-linecap="round" stroke-linejoin="round"/>
</g>
<defs>
<clipPath id="clip0_576_12794">
<rect width="14" height="14" fill="white"/>
</clipPath>
</defs>
</svg>
