<svg width="16" height="16" viewBox="0 0 16 16" fill="none" xmlns="http://www.w3.org/2000/svg">
<path d="M7.88927 9.33398V8.91998C7.88895 8.64714 7.9605 8.37902 8.09673 8.14262C8.23295 7.90621 8.42905 7.70986 8.66527 7.57332C9.41594 7.13332 9.6746 6.20198 9.2346 5.45132C8.7946 4.70065 7.86327 4.44198 7.1126 4.88198C6.64594 5.16732 6.33594 5.65865 6.33594 6.22798M8.0026 11.334H7.99727M14.6693 8.00065C14.6693 4.31865 11.6846 1.33398 8.0026 1.33398C4.3206 1.33398 1.33594 4.31865 1.33594 8.00065C1.33594 11.6827 4.3206 14.6673 8.0026 14.6673C11.6846 14.6673 14.6693 11.6827 14.6693 8.00065Z" stroke="currentColor" stroke-miterlimit="10" stroke-width="1.5" stroke-linecap="round" stroke-linejoin="round"/>
</svg>
