<svg width="24" height="24" viewBox="0 0 24 24" fill="none" xmlns="http://www.w3.org/2000/svg">
<path d="M9.12002 9.1199V8.1199C8.56774 8.1199 8.12002 8.56762 8.12002 9.1199H9.12002ZM9.21565 9.1199H10.2156C10.2156 8.56762 9.76793 8.1199 9.21565 8.1199V9.1199ZM14.88 9.1199V8.1199C14.3277 8.1199 13.88 8.56762 13.88 9.1199H14.88ZM14.965 9.1199H15.965C15.965 8.56762 15.5173 8.1199 14.965 8.1199V9.1199ZM9.21565 9.19678V10.1968C9.76793 10.1968 10.2156 9.74906 10.2156 9.19678H9.21565ZM9.12002 9.19678H8.12002C8.12002 9.74906 8.56774 10.1968 9.12002 10.1968V9.19678ZM14.965 9.19678V10.1968C15.5173 10.1968 15.965 9.74906 15.965 9.19678H14.965ZM14.88 9.19678H13.88C13.88 9.74906 14.3277 10.1968 14.88 10.1968V9.19678ZM9.52226 14.3927C9.23157 13.9231 8.61525 13.7781 8.14565 14.0688C7.67605 14.3595 7.53101 14.9758 7.82169 15.4454L8.67198 14.9191L9.52226 14.3927ZM16.1784 15.4454C16.469 14.9758 16.324 14.3595 15.8544 14.0688C15.3848 13.7781 14.7685 13.9231 14.4778 14.3927L15.3281 14.9191L16.1784 15.4454ZM21.6 11.9999H20.6C20.6 16.7495 16.7497 20.5999 12 20.5999V21.5999V22.5999C17.8542 22.5999 22.6 17.8541 22.6 11.9999H21.6ZM12 21.5999V20.5999C7.25037 20.5999 3.40002 16.7495 3.40002 11.9999H2.40002H1.40002C1.40002 17.8541 6.14581 22.5999 12 22.5999V21.5999ZM2.40002 11.9999H3.40002C3.40002 7.25025 7.25037 3.3999 12 3.3999V2.3999V1.3999C6.14581 1.3999 1.40002 6.14568 1.40002 11.9999H2.40002ZM12 2.3999V3.3999C16.7497 3.3999 20.6 7.25025 20.6 11.9999H21.6H22.6C22.6 6.14568 17.8542 1.3999 12 1.3999V2.3999ZM9.12002 9.1199V10.1199H9.21565V9.1199V8.1199H9.12002V9.1199ZM14.88 9.1199V10.1199H14.965V9.1199V8.1199H14.88V9.1199ZM9.21565 9.1199H8.21565V9.19678H9.21565H10.2156V9.1199H9.21565ZM9.21565 9.19678V8.19678H9.12002V9.19678V10.1968H9.21565V9.19678ZM9.12002 9.19678H10.12V9.1199H9.12002H8.12002V9.19678H9.12002ZM14.965 9.1199H13.965V9.19678H14.965H15.965V9.1199H14.965ZM14.965 9.19678V8.19678H14.88V9.19678V10.1968H14.965V9.19678ZM14.88 9.19678H15.88V9.1199H14.88H13.88V9.19678H14.88ZM12 16.7998V15.7998C10.9702 15.7998 10.0524 15.2491 9.52226 14.3927L8.67198 14.9191L7.82169 15.4454C8.69145 16.8505 10.2315 17.7998 12 17.7998V16.7998ZM15.3281 14.9191L14.4778 14.3927C13.9477 15.2491 13.0298 15.7998 12 15.7998V16.7998V17.7998C13.7686 17.7998 15.3086 16.8505 16.1784 15.4454L15.3281 14.9191Z" fill="currentColor"/>
</svg>
