<svg width="16" height="16" viewBox="0 0 16 16" fill="none" xmlns="http://www.w3.org/2000/svg">
<path d="M2 5.42857H14M5.42857 2V14M2.85714 2H13.1429C13.3702 2 13.5882 2.09031 13.7489 2.25105C13.9097 2.4118 14 2.62981 14 2.85714V13.1429C14 13.3702 13.9097 13.5882 13.7489 13.7489C13.5882 13.9097 13.3702 14 13.1429 14H2.85714C2.62981 14 2.4118 13.9097 2.25105 13.7489C2.09031 13.5882 2 13.3702 2 13.1429V2.85714C2 2.62981 2.09031 2.4118 2.25105 2.25105C2.4118 2.09031 2.62981 2 2.85714 2Z" stroke="currentColor" stroke-width="1.5"/>
</svg>
