<svg width="17" height="17" viewBox="0 0 17 17" fill="none" xmlns="http://www.w3.org/2000/svg">
<path d="M5.3 0.5H13.3C11.532 0.5 10.1 2.4696 10.1 4.9V16.5H0.5V5.3C0.5 4.02696 1.00571 2.80606 1.90589 1.90589C2.80606 1.00571 4.02696 0.5 5.3 0.5Z" fill="#FF9500"/>
<path d="M13.3016 9.3C11.5336 9.3 10.1016 7.3304 10.1016 4.9C10.1016 2.4696 11.5336 0.5 13.3016 0.5C15.0696 0.5 16.5016 2.4696 16.5016 4.9C16.5016 7.3304 15.0696 9.3 13.3016 9.3Z" fill="#E5F3FF"/>
<path d="M13.3016 4.3V5.5M13.3016 9.3C11.5336 9.3 10.1016 7.3304 10.1016 4.9C10.1016 2.4696 11.5336 0.5 13.3016 0.5C15.0696 0.5 16.5016 2.4696 16.5016 4.9C16.5016 7.3304 15.0696 9.3 13.3016 9.3Z" stroke="#333333"/>
<path d="M13.3 0.5H5.3C4.02696 0.5 2.80606 1.00571 1.90589 1.90589C1.00571 2.80606 0.5 4.02696 0.5 5.3V16.5H10.1V4.9M0.5 11.7H2.9M4.1 11.7H6.5M10.1 11.7H7.7" stroke="#333333"/>
</svg>
