<svg width="14" height="14" viewBox="0 0 14 14" fill="none" xmlns="http://www.w3.org/2000/svg">
<path d="M8.575 3.67501C8.46812 3.78405 8.40825 3.93065 8.40825 4.08334C8.40825 4.23603 8.46812 4.38263 8.575 4.49168L9.50833 5.42501C9.61737 5.53189 9.76398 5.59176 9.91667 5.59176C10.0694 5.59176 10.216 5.53189 10.325 5.42501L12.5242 3.22584C12.8175 3.87404 12.9063 4.59623 12.7788 5.29618C12.6512 5.99612 12.3134 6.64058 11.8103 7.14367C11.3072 7.64676 10.6628 7.98458 9.96283 8.11211C9.26289 8.23964 8.54069 8.15083 7.8925 7.85751L3.86167 11.8883C3.6296 12.1204 3.31485 12.2508 2.98667 12.2508C2.65848 12.2508 2.34373 12.1204 2.11167 11.8883C1.8796 11.6563 1.74923 11.3415 1.74923 11.0133C1.74923 10.6852 1.8796 10.3704 2.11167 10.1383L6.1425 6.10751C5.84918 5.45932 5.76037 4.73712 5.8879 4.03717C6.01543 3.33723 6.35325 2.69277 6.85634 2.18968C7.35942 1.68659 8.00388 1.34877 8.70383 1.22124C9.40378 1.09371 10.126 1.18252 10.7742 1.47584L8.575 3.67501Z" stroke="currentColor" stroke-width="1.5" stroke-linecap="round" stroke-linejoin="round"/>
</svg>
