<svg width="100" height="98" viewBox="0 0 100 98" fill="none" xmlns="http://www.w3.org/2000/svg">
<path d="M16.7873 77.1562H12.2949V88.5087H16.7873V77.1562Z" fill="#60E2C9"/>
<path d="M25.6487 77.1562H21.1562V88.5087H25.6487V77.1562Z" fill="#60E2C9"/>
<path d="M34.51 77.1562H30.0176V88.5087H34.51V77.1562Z" fill="#60E2C9"/>
<path d="M43.3733 77.1562H38.8809V88.5087H43.3733V77.1562Z" fill="#60E2C9"/>
<path d="M52.2346 77.1562H47.7422V88.5087H52.2346V77.1562Z" fill="#60E2C9"/>
<path d="M61.0959 77.1562H56.6035V88.5087H61.0959V77.1562Z" fill="#60E2C9"/>
<path d="M69.9592 77.1562H65.4668V88.5087H69.9592V77.1562Z" fill="#60E2C9"/>
<path d="M78.8205 77.1562H74.3281V88.5087H78.8205V77.1562Z" fill="#60E2C9"/>
<path d="M87.6838 77.1562H83.1914V88.5087H87.6838V77.1562Z" fill="#60E2C9"/>
<path d="M94.275 76.6606H5.70312V81.3069H94.275V76.6606Z" fill="#4ECC86"/>
<path d="M100 3.69263H0V9.77473H100V3.69263Z" fill="#A8A8A8"/>
<path d="M92.9875 0H7.01367V3.69271H92.9875V0Z" fill="#757373"/>
<path d="M94.2868 9.77588H5.71484V49.7471H94.2868V9.77588Z" fill="#BFBEBE"/>
<path d="M5.71484 49.7461C5.71484 49.7461 32.9799 75.7786 34.3874 75.7786H65.9554L94.2868 49.7471H5.71484V49.7461Z" fill="#757373"/>
<path d="M67.779 75.7786H32.2207V79.8445H67.779V75.7786Z" fill="#685750"/>
<path d="M10.2072 42.3066H5.71484V88.5088H10.2072V42.3066Z" fill="#4ECC86"/>
<path d="M94.2873 42.3066H89.7949V88.5088H94.2873V42.3066Z" fill="#4ECC86"/>
<path d="M94.2868 83.8625H5.71484V88.5088H94.2868V83.8625Z" fill="#4ECC86"/>
<path d="M10.2068 97.9991C12.5765 97.9991 14.4975 96.0755 14.4975 93.7027C14.4975 91.3298 12.5765 89.4062 10.2068 89.4062C7.83705 89.4062 5.91602 91.3298 5.91602 93.7027C5.91602 96.0755 7.83705 97.9991 10.2068 97.9991Z" fill="#362C29"/>
<path d="M10.2052 96.0827C11.518 96.0827 12.5823 95.017 12.5823 93.7025C12.5823 92.3879 11.518 91.3223 10.2052 91.3223C8.89238 91.3223 7.82812 92.3879 7.82812 93.7025C7.82812 95.017 8.89238 96.0827 10.2052 96.0827Z" fill="#D8D1C7"/>
<path d="M10.4907 93.2068L12.3576 88.4954H8.05664L9.92347 93.2068C10.0253 93.4649 10.3899 93.4649 10.4918 93.2068H10.4907Z" fill="#0A0808"/>
<path d="M89.7947 97.9991C92.1644 97.9991 94.0854 96.0755 94.0854 93.7027C94.0854 91.3298 92.1644 89.4062 89.7947 89.4062C87.4249 89.4062 85.5039 91.3298 85.5039 93.7027C85.5039 96.0755 87.4249 97.9991 89.7947 97.9991Z" fill="#362C29"/>
<path d="M89.795 96.0827C91.1079 96.0827 92.1721 95.017 92.1721 93.7025C92.1721 92.3879 91.1079 91.3223 89.795 91.3223C88.4822 91.3223 87.418 92.3879 87.418 93.7025C87.418 95.017 88.4822 96.0827 89.795 96.0827Z" fill="#D8D1C7"/>
<path d="M90.0786 93.2068L91.9455 88.4954H87.6445L89.5114 93.2068C89.6132 93.4649 89.9778 93.4649 90.0797 93.2068H90.0786Z" fill="#0A0808"/>
<path d="M61.7476 17.3601H38.2539V24.0531H61.7476V17.3601Z" fill="#4ECC86"/>
</svg>
