<svg width="14" height="14" viewBox="0 0 14 14" fill="none" xmlns="http://www.w3.org/2000/svg">
<path d="M9.33334 12.25V11.0833C9.33334 10.4645 9.0875 9.871 8.64992 9.43342C8.21233 8.99583 7.61884 8.75 7 8.75H2.91667C2.29783 8.75 1.70434 8.99583 1.26675 9.43342C0.829169 9.871 0.583336 10.4645 0.583336 11.0833V12.25M9.91667 6.41667L11.0833 7.58333L13.4167 5.25M7.29167 4.08333C7.29167 5.372 6.247 6.41667 4.95834 6.41667C3.66967 6.41667 2.625 5.372 2.625 4.08333C2.625 2.79467 3.66967 1.75 4.95834 1.75C6.247 1.75 7.29167 2.79467 7.29167 4.08333Z" stroke="currentColor" stroke-width="1.5" stroke-linecap="round" stroke-linejoin="round"/>
</svg>
