<svg width="11" height="11" viewBox="0 0 11 11" fill="none" xmlns="http://www.w3.org/2000/svg">
<path d="M5.5 0.5C2.46682 0.5 0.921818 1.70905 0.575909 2.01949C0.552086 2.04076 0.533013 2.06681 0.519934 2.09594C0.506855 2.12508 0.500062 2.15664 0.5 2.18858V2.99991C0.5 3.06018 0.523945 3.11799 0.566567 3.16061C0.609189 3.20323 0.666996 3.22718 0.727273 3.22718H10.2727C10.333 3.22718 10.3908 3.20323 10.4334 3.16061C10.4761 3.11799 10.5 3.06018 10.5 2.99991V2.18858C10.4999 2.15664 10.4931 2.12508 10.4801 2.09594C10.467 2.06681 10.4479 2.04076 10.4241 2.01949C10.0782 1.70905 8.53318 0.5 5.5 0.5Z" stroke="currentColor" stroke-width="1.5" stroke-linecap="round" stroke-linejoin="round"/>
<path d="M0.952515 9.59127V3.22786H10.0434V9.59127" stroke="currentColor" stroke-width="1.5" stroke-linecap="round" stroke-linejoin="round"/>
<path d="M5.49822 6.86406H2.54368C2.4834 6.86406 2.42559 6.88801 2.38297 6.93063C2.34035 6.97325 2.31641 7.03105 2.31641 7.09133V9.36397C2.31641 9.42425 2.34035 9.48205 2.38297 9.52467C2.42559 9.56729 2.4834 9.59124 2.54368 9.59124H5.49822M5.49822 6.86406V9.59124M5.49822 6.86406H8.45277C8.51305 6.86406 8.57086 6.88801 8.61348 6.93063C8.6561 6.97325 8.68004 7.03105 8.68004 7.09133V9.36397C8.68004 9.42425 8.6561 9.48205 8.61348 9.52467C8.57086 9.56729 8.51305 9.59124 8.45277 9.59124H5.49822M3.90732 4.13689H6.63459C6.69487 4.13689 6.75267 4.16083 6.79529 4.20345C6.83792 4.24607 6.86186 4.30388 6.86186 4.36415V6.86406H3.68004V4.36415C3.68004 4.30388 3.70399 4.24607 3.74661 4.20345C3.78923 4.16083 3.84704 4.13689 3.90732 4.13689Z" stroke="currentColor" stroke-width="1.5"/>
</svg>
