<svg width="147" height="200" viewBox="0 0 147 200" fill="none" xmlns="http://www.w3.org/2000/svg">
<path d="M121.577 0H24.4774C10.9589 0 0 10.94 0 24.4351V173.694C0 187.189 10.9589 198.129 24.4774 198.129H121.577C135.096 198.129 146.054 187.189 146.054 173.694V24.4351C146.054 10.94 135.096 0 121.577 0Z" fill="white"/>
<path d="M125.135 200H20.9035C9.35575 200 0 190.613 0 179.133V20.8674C0 9.38714 9.4034 0 20.9035 0H125.135C136.683 0 146.039 9.38714 146.039 20.8674V179.085C146.039 190.613 136.635 199.952 125.135 199.952V199.984V200ZM20.9035 2.69563C10.8647 2.69563 2.7003 10.846 2.7003 20.8674V179.085C2.7003 189.106 10.8647 197.257 20.9035 197.257H125.135C135.174 197.257 143.338 189.106 143.338 179.085V20.8674C143.338 10.846 135.174 2.69563 125.135 2.69563H20.9035Z" fill="#21B8F3"/>
<path d="M73.0519 132.545C46.0171 132.545 24.0176 110.584 24.0176 83.596C24.0176 56.608 46.0171 34.6465 73.0519 34.6465C100.087 34.6465 122.086 56.608 122.086 83.596C122.086 110.584 100.087 132.545 73.0519 132.545ZM73.0519 36.4859C47.0337 36.4859 25.8284 57.6228 25.8284 83.6277C25.8284 109.633 47.0019 130.77 73.0519 130.77C99.1018 130.77 120.275 109.633 120.275 83.6277C120.275 57.6228 99.1018 36.4859 73.0519 36.4859Z" fill="#21B8F3"/>
<path d="M73.0516 137.239C43.4595 137.239 19.3633 113.185 19.3633 83.6277C19.3633 54.0709 43.4595 30.0322 73.0516 30.0322C102.644 30.0322 126.756 54.0868 126.756 83.6277C126.756 113.169 102.66 137.239 73.0516 137.239ZM73.0516 31.8399C44.4284 31.8399 21.1582 55.0699 21.1582 83.6436C21.1582 112.217 44.4284 135.447 73.0516 135.447C101.675 135.447 124.945 112.217 124.945 83.6436C124.945 55.0699 101.675 31.8399 73.0516 31.8399Z" fill="#21B8F3"/>
<path d="M73.0512 141.711C40.9812 141.711 14.8359 115.658 14.8359 83.5961C14.8359 51.5339 40.9494 25.4814 73.0512 25.4814C105.153 25.4814 131.267 51.5339 131.267 83.5961C131.267 115.658 105.169 141.711 73.0512 141.711ZM73.0512 27.3208C41.9501 27.3208 16.6467 52.5805 16.6467 83.6278C16.6467 114.675 41.9501 139.935 73.0512 139.935C104.152 139.935 129.456 114.675 129.456 83.6278C129.456 52.5805 104.152 27.3208 73.0512 27.3208Z" fill="#21B8F3"/>
<path d="M73.0669 128.296C97.7825 128.296 117.812 108.301 117.812 83.6282C117.812 58.9552 97.7825 38.96 73.0669 38.96C48.3512 38.96 28.3213 58.9552 28.3213 83.6282C28.3213 108.301 48.3512 128.296 73.0669 128.296Z" fill="#EC1F27"/>
<path d="M103.215 103.956H98.3705C96.0831 103.956 94.2088 102.101 94.2088 99.8173V79.8062C94.2088 77.8717 92.6363 76.3018 90.6984 76.3018H66.8564C66.8564 76.3018 66.2051 76.2226 65.808 76.5714C65.5539 76.7934 65.4427 77.1423 65.4427 77.6497C65.4427 78.1571 65.5697 78.5218 65.8239 78.7596C66.2051 79.1085 66.8087 79.0768 66.8087 79.0768H83.36C87.6804 79.0768 91.1908 82.5811 91.1908 86.8941V96.5032C91.1908 100.61 87.8393 103.956 83.7253 103.956H46.1911C42.0771 103.956 38.7256 100.61 38.7256 96.5032V66.994L38.8844 67.1526C39.361 65.0119 41.2829 63.4104 43.5544 63.4104H47.3507C49.9874 63.4104 52.1477 65.551 52.1477 68.1991V90.002C52.1477 91.7304 53.5614 93.1416 55.2927 93.1416H77.737C77.9276 93.1416 78.9283 93.0623 78.9283 91.8414C78.9283 91.445 78.833 91.1754 78.6424 91.0168C78.3406 90.7631 77.8323 90.8424 77.8323 90.8424H63.0759C57.8183 90.8424 53.5455 86.577 53.5455 81.3284V75.842C53.5455 68.9761 59.1367 63.3945 66.0145 63.3945H98.164C103.231 63.3945 107.361 67.5173 107.361 72.5755V99.8331C107.361 102.116 105.502 103.972 103.215 103.972V103.956ZM90.6984 75.3505C93.1605 75.3505 95.146 77.3484 95.146 79.7903V99.8014C95.146 101.577 96.5914 103.004 98.3705 103.004H103.215C104.994 103.004 106.424 101.562 106.424 99.8014V72.5438C106.424 67.993 102.723 64.2984 98.164 64.2984H66.0145C59.6609 64.2984 54.4826 69.4676 54.4826 75.8103V81.2967C54.4826 86.022 58.3425 89.8752 63.0759 89.8752H77.737C77.737 89.8752 78.5947 89.7166 79.2301 90.2557C79.6431 90.6046 79.8496 91.112 79.8496 91.7938C79.8496 93.6173 78.3247 94.0296 77.7211 94.0296H55.2768C53.0213 94.0296 51.1946 92.2061 51.1946 89.9544V68.1515C51.1946 66.0267 49.4633 64.2984 47.3348 64.2984H43.5385C41.41 64.2984 39.6786 66.0267 39.6786 68.1515V69.3091L39.6469 69.2615V96.4398C39.6469 100.039 42.5695 102.957 46.1752 102.957H83.7094C87.3151 102.957 90.2378 100.039 90.2378 96.4398V86.8307C90.2378 83.0409 87.1404 79.9489 83.3441 79.9489H66.8405C66.8405 79.9489 65.8874 80.044 65.1885 79.4098C64.7279 78.9975 64.4896 78.3949 64.4896 77.6021C64.4896 76.8093 64.7279 76.2226 65.1885 75.8103C65.9033 75.1919 66.8564 75.3346 66.904 75.3346H90.6825L90.6984 75.3505Z" fill="white"/>
<path d="M26.4412 171.629H23.2803V157.358H26.4412V171.629Z" fill="#21B8F3"/>
<path d="M38.0684 166.905H38.1002V157.327H41.0387V171.598H37.8778L31.9371 162.021H31.9054V171.598H28.9668V157.327H32.0801L38.0525 166.905H38.0684Z" fill="#21B8F3"/>
<path d="M55.6206 164.383C55.6206 168.887 53.3333 171.598 49.5687 171.598H43.7393V157.327H49.4893C53.2062 157.327 55.6206 159.88 55.6206 164.383ZM52.682 164.685C52.682 161.275 51.2842 159.991 48.8063 159.991H46.6937V168.998H49.2828C51.1254 168.998 52.6344 167.761 52.6344 164.685H52.6661H52.682Z" fill="#21B8F3"/>
<path d="M86.3886 161.91C86.3886 164.494 85.0702 166.492 82.4334 166.492H79.7331V171.598H77.1758V157.327H82.4017C85.102 157.327 86.3886 159.357 86.3886 161.91ZM83.9424 161.91C83.9424 160.451 83.2594 159.769 81.7663 159.769H79.7331V164.05H81.7663C83.2276 164.05 83.9424 163.416 83.9424 161.91Z" fill="#21B8F3"/>
<path d="M102.78 164.525C102.78 168.696 100.112 171.962 95.7437 171.962C91.3756 171.962 88.707 168.696 88.707 164.525C88.707 160.355 91.3438 156.978 95.7437 156.978C100.144 156.978 102.78 160.212 102.78 164.525ZM95.7596 169.298C98.4281 169.298 99.6353 167.126 99.6353 164.525C99.6353 161.782 98.3963 159.61 95.7278 159.61C93.0593 159.61 91.8521 161.75 91.8521 164.525C91.8521 167.3 93.1228 169.298 95.7278 169.298H95.7596Z" fill="#21B8F3"/>
<path d="M108.197 168.966H113.581V171.598H104.639V157.327H108.213V168.966H108.197Z" fill="#21B8F3"/>
<path d="M117.521 162.956L120.19 157.327H123.017L118.776 166.112V171.598H116.25V166.048L112.041 157.343H114.9L117.569 162.972H117.537L117.521 162.956Z" fill="#21B8F3"/>
<path d="M66.6444 172.375C62.2763 172.375 58.75 168.839 58.75 164.494C58.75 160.149 62.2922 156.613 66.6444 156.613C70.9967 156.613 74.5388 160.149 74.5388 164.494C74.5388 168.839 70.9967 172.375 66.6444 172.375ZM66.6444 157.406C62.7369 157.406 59.576 160.562 59.576 164.462C59.576 168.363 62.7369 171.519 66.6444 171.519C70.5519 171.519 73.7128 168.363 73.7128 164.462C73.7128 160.562 70.5519 157.406 66.6444 157.406Z" fill="#EC1C24"/>
<path d="M66.6445 170.614C63.2612 170.614 60.4814 167.871 60.4814 164.462C60.4814 161.053 63.2294 158.31 66.6445 158.31C70.0596 158.31 72.8075 161.053 72.8075 164.462C72.8075 167.871 70.0596 170.614 66.6445 170.614ZM66.6445 159.166C63.7059 159.166 61.3074 161.56 61.3074 164.494C61.3074 167.427 63.7059 169.822 66.6445 169.822C69.583 169.822 71.9815 167.411 71.9815 164.494C71.9815 161.576 69.5672 159.166 66.6445 159.166Z" fill="#EC1C24"/>
<path d="M66.6444 168.696C64.3094 168.696 62.4033 166.778 62.4033 164.462C62.4033 162.147 64.3253 160.213 66.6444 160.213C68.9635 160.213 70.9013 162.132 70.9013 164.462C70.9013 166.793 68.9793 168.696 66.6444 168.696ZM66.6444 161.037C64.7701 161.037 63.2293 162.576 63.2293 164.447C63.2293 166.318 64.7701 167.856 66.6444 167.856C68.5187 167.856 70.0595 166.318 70.0595 164.447C70.0595 162.576 68.5187 161.037 66.6444 161.037Z" fill="#EC1C24"/>
</svg>
