<svg width="270" height="32" viewBox="0 0 270 32" fill="none" xmlns="http://www.w3.org/2000/svg">
<g clip-path="url(#clip0_546_6224)">
<path d="M115.086 13.9795C115.086 13.1372 114.504 12.7921 114.161 12.7921C113.157 12.7921 112.842 13.4137 112.842 13.8958C112.842 14.1216 112.913 14.3347 113.142 14.5326C113.371 14.7457 113.686 14.8573 114.288 15.0704C115.033 15.3241 115.734 15.5804 116.222 16.0193C116.651 16.4024 117.037 17.0392 117.037 18.0007C117.037 19.8401 115.691 21.101 113.714 21.101C111.953 21.101 111.008 19.4672 110.898 18.1935L112.664 18.1707C112.664 18.8202 112.969 19.4291 113.643 19.4291C114.489 19.4291 115.119 18.9191 115.119 18.1276C115.119 17.7876 115.005 17.5187 114.745 17.2777C114.387 16.9529 113.815 16.7677 113.269 16.585C112.769 16.4151 112.166 16.1893 111.679 15.763C111.363 15.4941 110.919 14.9715 110.919 14.0074C110.919 12.6196 111.864 11.2344 113.983 11.2344C114.585 11.2344 116.956 11.7951 116.956 13.9795H115.081H115.086Z" fill="white"/>
<path d="M168.602 13.9795C168.602 13.1372 168.02 12.7921 167.677 12.7921C166.673 12.7921 166.358 13.4137 166.358 13.8958C166.358 14.1216 166.429 14.3347 166.658 14.5326C166.886 14.7457 167.202 14.8573 167.804 15.0704C168.548 15.3241 169.25 15.5804 169.737 16.0193C170.167 16.4024 170.553 17.0392 170.553 18.0007C170.553 19.8401 169.206 21.101 167.229 21.101C165.469 21.101 164.523 19.4672 164.414 18.1935L166.18 18.1707C166.18 18.8202 166.485 19.4291 167.158 19.4291C168.004 19.4291 168.635 18.9191 168.635 18.1276C168.635 17.7876 168.52 17.5187 168.261 17.2777C167.903 16.9529 167.331 16.7677 166.785 16.585C166.284 16.4151 165.682 16.1893 165.194 15.763C164.879 15.4941 164.434 14.9715 164.434 14.0074C164.434 12.6196 165.38 11.2344 167.499 11.2344C168.101 11.2344 170.472 11.7951 170.472 13.9795H168.596H168.602Z" fill="white"/>
<path d="M218.977 13.9795C218.977 13.1372 218.395 12.7921 218.052 12.7921C217.048 12.7921 216.733 13.4137 216.733 13.8958C216.733 14.1216 216.804 14.3347 217.033 14.5326C217.261 14.7457 217.576 14.8573 218.179 15.0704C218.923 15.3241 219.624 15.5804 220.112 16.0193C220.542 16.4024 220.928 17.0392 220.928 18.0007C220.928 19.8401 219.581 21.101 217.604 21.101C215.844 21.101 214.898 19.4672 214.789 18.1935L216.555 18.1707C216.555 18.8202 216.86 19.4291 217.533 19.4291C218.379 19.4291 219.01 18.9191 219.01 18.1276C219.01 17.7876 218.895 17.5187 218.636 17.2777C218.278 16.9529 217.706 16.7677 217.16 16.585C216.659 16.4151 216.057 16.1893 215.569 15.763C215.254 15.4941 214.809 14.9715 214.809 14.0074C214.809 12.6196 215.755 11.2344 217.874 11.2344C218.476 11.2344 220.847 11.7951 220.847 13.9795H218.971H218.977Z" fill="white"/>
<path d="M121.272 20.8787H120.015L117.039 11.2327H118.81L120.721 17.7987L122.812 11.1465H123.734L125.709 17.7987L127.762 11.2327H129.533L126.364 20.8787H125.107L123.234 14.7618L121.272 20.8787Z" fill="white"/>
<path d="M135.854 18.8557H131.959L131.105 20.8803H129.062L133.22 11.2344H134.696L138.736 20.8803H136.708L135.854 18.8557ZM135.306 17.3233L133.928 13.8526L132.551 17.3233H135.303H135.306Z" fill="white"/>
<path d="M141.269 15.314L144.397 11.2344H146.49L142.89 15.6895L146.681 20.8828H144.485L141.459 16.5597L141.269 16.7779V20.8854H139.609V11.2394H141.269V15.319V15.314Z" fill="white"/>
<path d="M153.377 18.8557H149.706L148.9 20.8803H146.977L150.892 11.2344H152.285L156.091 20.8803H154.18L153.375 18.8557H153.377ZM152.859 17.3233L151.563 13.8526L150.267 17.3233H152.859Z" fill="white"/>
<path d="M159.813 11.2344C161.145 11.2344 161.826 11.582 162.275 11.9574C163.015 12.579 163.231 13.4036 163.231 14.1266C163.231 15.0679 162.855 15.8924 162.1 16.3973C161.854 16.5698 161.506 16.7297 161.043 16.8159L164.057 20.8803H161.709L159.13 17.0037H158.898V20.8803H157.016V11.2344H159.811H159.813ZM158.898 15.6742H159.435C159.795 15.6742 161.29 15.6311 161.29 14.2129C161.29 12.7947 159.813 12.7668 159.465 12.7668H158.901V15.6742H158.898Z" fill="white"/>
<path d="M177.354 18.8557H173.459L172.605 20.8803H170.562L174.72 11.2344H176.198L180.238 20.8803H178.211L177.357 18.8557H177.354ZM176.806 17.3233L175.428 13.8526L174.051 17.3233H176.803H176.806Z" fill="white"/>
<path d="M28.8884 11.2344C29.976 11.2344 30.7281 11.3511 31.437 11.9727C32.2196 12.6678 32.4229 13.6065 32.4229 14.3017C32.4229 14.6772 32.3645 15.7199 31.625 16.4557C31.0889 16.991 30.2936 17.3081 29.1781 17.3081H27.961V20.8803H26.0781V11.2344H28.8884ZM27.961 15.6895H28.7283C29.0917 15.6895 29.5542 15.6895 29.9607 15.385C30.3088 15.111 30.4816 14.6772 30.4816 14.256C30.4816 13.7207 30.2199 13.3604 29.9455 13.1575C29.5542 12.8835 29.0612 12.853 28.614 12.853H27.9635V15.6869L27.961 15.6895Z" fill="white"/>
<path d="M36.5632 12.853V20.8803H34.6803V12.853H32.5078V11.2344H38.7357V12.853H36.5632Z" fill="white"/>
<path d="M44.3907 11.2344V20.8803H42.5078V11.2344H44.3907Z" fill="white"/>
<path d="M46.3672 20.8803V11.2344H47.4852L52.5265 17.6709V11.2344H54.14V20.8803H53.022L47.9807 14.4311V20.8803H46.3672Z" fill="white"/>
<path d="M58.2081 11.2344C59.5548 11.2344 60.7288 11.379 61.8011 12.1756C62.975 13.0585 63.656 14.4615 63.656 16.0649C63.656 17.6684 62.9902 19.0587 61.7147 19.9543C60.5839 20.7509 59.5269 20.8803 58.1802 20.8803H55.6875V11.2344H58.2081ZM57.5704 19.2616H58.1497C58.6274 19.2616 59.6717 19.2337 60.5102 18.6248C61.2776 18.0743 61.7121 17.0925 61.7121 16.0649C61.7121 15.0374 61.2929 14.0683 60.5255 13.4898C59.7429 12.9114 58.7875 12.853 58.1497 12.853H57.5704V19.2591V19.2616Z" fill="white"/>
<path d="M78.6072 11.2344C79.6947 11.2344 80.4468 11.3511 81.1558 11.9727C81.9384 12.6678 82.1417 13.6065 82.1417 14.3017C82.1417 14.6772 82.0832 15.7199 81.3438 16.4557C80.8076 16.991 80.0123 17.3081 78.8969 17.3081H77.6797V20.8803H75.7969V11.2344H78.6072ZM77.6797 15.6895H78.4471C78.8105 15.6895 79.2729 15.6895 79.6795 15.385C80.0276 15.111 80.2004 14.6772 80.2004 14.256C80.2004 13.7207 79.9386 13.3604 79.6642 13.1575C79.2729 12.8835 78.78 12.853 78.3328 12.853H77.6823V15.6869L77.6797 15.6895Z" fill="white"/>
<path d="M93.03 16.0644C93.03 18.9998 90.9159 21.0979 87.8744 21.0979C84.8328 21.0979 82.7188 18.9998 82.7188 16.0644C82.7188 13.129 84.8328 11.0156 87.8744 11.0156C90.9159 11.0156 93.03 13.1265 93.03 16.0644ZM91.0887 16.0644C91.0887 14.1108 89.7572 12.7231 87.8718 12.7231C85.9864 12.7231 84.655 14.1108 84.655 16.0644C84.655 18.0179 85.9864 19.3905 87.8718 19.3905C89.7572 19.3905 91.0887 18.0154 91.0887 16.0644Z" fill="white"/>
<path d="M96.0469 11.2344V19.2616H99.03V20.8803H94.1641V11.2344H96.0469Z" fill="white"/>
<path d="M101.98 16.4709L98.6641 11.2344H100.895L102.966 14.5909L105.037 11.2344H107.268L103.863 16.4709V20.8828H101.98V16.4709Z" fill="white"/>
<path d="M186.703 11.2344V20.8803H184.82V11.2344H186.703Z" fill="white"/>
<path d="M187.867 20.8803V11.2344H189.054L194.408 17.6709V11.2344H196.123V20.8803H194.936L189.582 14.4311V20.8803H187.867Z" fill="white"/>
<path d="M199.966 11.2344C201.313 11.2344 202.487 11.379 203.559 12.1756C204.733 13.0585 205.414 14.4615 205.414 16.0649C205.414 17.6684 204.748 19.0587 203.472 19.9543C202.342 20.7509 201.285 20.8803 199.938 20.8803H197.445V11.2344H199.966ZM199.331 19.2616H199.91C200.388 19.2616 201.432 19.2337 202.271 18.6248C203.038 18.0743 203.472 17.0925 203.472 16.0649C203.472 15.0374 203.053 14.0683 202.286 13.4898C201.503 12.9114 200.548 12.853 199.91 12.853H199.331V19.2591V19.2616Z" fill="white"/>
<path d="M208.407 11.2344V17.2954C208.407 18.0337 208.623 18.4802 208.816 18.7263C209.057 19.0587 209.504 19.391 210.168 19.391C210.831 19.391 211.275 19.0587 211.519 18.7263C211.71 18.4802 211.928 18.0312 211.928 17.2954V11.2344H213.585V17.1356C213.585 18.0464 213.458 18.9724 212.947 19.7107C212.335 20.6215 211.265 21.0985 210.168 21.0985C209.07 21.0985 208 20.6215 207.388 19.7107C206.877 18.9724 206.75 18.0464 206.75 17.1356V11.2344H208.407Z" fill="white"/>
<path d="M230.363 11.2344C231.692 11.2344 232.373 11.582 232.82 11.9574C233.557 12.579 233.773 13.4036 233.773 14.1266C233.773 15.0679 233.397 15.8924 232.645 16.3973C232.398 16.5698 232.053 16.7297 231.59 16.8159L234.596 20.8803H232.253L229.679 17.0037H229.448V20.8803H227.57V11.2344H230.36H230.363ZM229.451 15.6742H229.987C230.348 15.6742 231.837 15.6311 231.837 14.2129C231.837 12.7947 230.363 12.7668 230.015 12.7668H229.451V15.6742Z" fill="white"/>
<path d="M237.175 16.4709L233.859 11.2344H236.09L238.161 14.5909L240.232 11.2344H242.463L239.058 16.4709V20.8828H237.175V16.4709Z" fill="white"/>
<path d="M249.201 12.853V20.8803H247.511V12.853H245.562V11.2344H251.153V12.853H249.204H249.201Z" fill="white"/>
<path d="M224.568 12.853V20.8803H222.879V12.853H220.93V11.2344H226.52V12.853H224.571H224.568Z" fill="white"/>
<path d="M253.63 14.6225C254.336 13.6052 255.337 13.4352 255.945 13.4352C258.046 13.4352 259.441 15.1122 259.441 17.3321C259.441 19.552 257.995 21.2468 255.894 21.2468C255.434 21.2468 254.4 21.1631 253.627 20.0595V21.0083H251.625V11.2305H253.627V14.62L253.63 14.6225ZM253.432 17.3346C253.432 18.5042 254.252 19.4201 255.401 19.4201C256.549 19.4201 257.37 18.5042 257.37 17.3346C257.37 16.1651 256.549 15.2669 255.401 15.2669C254.252 15.2669 253.432 16.1651 253.432 17.3346Z" fill="white"/>
<path d="M262.518 11.233V16.9033L264.866 13.7117H267.156L264.216 17.3651L267.387 20.8789H265.039L262.707 18.2023L262.518 18.3748V20.8764H260.75V11.2305H262.518V11.233Z" fill="white"/>
<path d="M270.004 19.1309H268.172V20.9601H270.004V19.1309Z" fill="white"/>
<path d="M69.6443 21.386C66.7756 21.386 64.4531 19.0646 64.4531 16.2028C64.4531 13.3409 66.7781 11.0195 69.6443 11.0195C72.5105 11.0195 74.8355 13.3409 74.8355 16.2028C74.8355 19.0646 72.5105 21.386 69.6443 21.386ZM69.6443 11.5371C67.0729 11.5371 64.9969 13.6099 64.9969 16.1774C64.9969 18.7449 67.0729 20.8177 69.6443 20.8177C72.2158 20.8177 74.2917 18.7449 74.2917 16.1774C74.2917 13.6099 72.2158 11.5371 69.6443 11.5371Z" fill="#EC1C24"/>
<path d="M69.6491 20.2272C67.4232 20.2272 65.5938 18.4259 65.5938 16.1781C65.5938 13.9302 67.3978 12.1289 69.6491 12.1289C71.9004 12.1289 73.7045 13.9302 73.7045 16.1781C73.7045 18.4259 71.9004 20.2272 69.6491 20.2272ZM69.6491 12.6972C67.7205 12.6972 66.1375 14.2778 66.1375 16.2034C66.1375 18.1291 67.7205 19.7097 69.6491 19.7097C71.5777 19.7097 73.1607 18.1291 73.1607 16.2034C73.1607 14.2778 71.5777 12.6972 69.6491 12.6972Z" fill="#EC1C24"/>
<path d="M69.6519 18.9657C68.1197 18.9657 66.8594 17.7073 66.8594 16.1775C66.8594 14.6476 68.1197 13.3867 69.6519 13.3867C71.1841 13.3867 72.4469 14.6451 72.4469 16.1775C72.4469 17.7099 71.1866 18.9657 69.6519 18.9657ZM69.6519 13.9297C68.417 13.9297 67.4031 14.9419 67.4031 16.175C67.4031 17.408 68.417 18.4203 69.6519 18.4203C70.8868 18.4203 71.9006 17.408 71.9006 16.175C71.9006 14.9419 70.8868 13.9297 69.6519 13.9297Z" fill="#EC1C24"/>
<path d="M19.4485 0H3.91562C1.75308 0 0 1.7504 0 3.90962V27.791C0 29.9502 1.75308 31.7006 3.91562 31.7006H19.4485C21.6111 31.7006 23.3641 29.9502 23.3641 27.791V3.90962C23.3641 1.7504 21.6111 0 19.4485 0Z" fill="white"/>
<path d="M11.6891 20.5282C15.6429 20.5282 18.847 17.329 18.847 13.3813C18.847 9.43361 15.6429 6.23438 11.6891 6.23438C7.7354 6.23438 4.53125 9.43361 4.53125 13.3813C4.53125 17.329 7.7354 20.5282 11.6891 20.5282Z" fill="#EC1F27"/>
<path d="M11.6877 21.2068C7.36298 21.2068 3.84375 17.693 3.84375 13.3749C3.84375 9.0568 7.36298 5.54297 11.6877 5.54297C16.0124 5.54297 19.5316 9.0568 19.5316 13.3749C19.5316 17.693 16.0124 21.2068 11.6877 21.2068ZM11.6877 5.83727C7.5256 5.83727 4.13342 9.21918 4.13342 13.38C4.13342 17.5407 7.52052 20.9227 11.6877 20.9227C15.8549 20.9227 19.242 17.5407 19.242 13.38C19.242 9.21918 15.8549 5.83727 11.6877 5.83727Z" fill="#21B8F3"/>
<path d="M11.6822 21.9578C6.94839 21.9578 3.09375 18.1091 3.09375 13.38C3.09375 8.65088 6.94839 4.80469 11.6822 4.80469C16.416 4.80469 20.2732 8.65342 20.2732 13.38C20.2732 18.1065 16.4186 21.9578 11.6822 21.9578ZM11.6822 5.09391C7.10339 5.09391 3.38088 8.81071 3.38088 13.3825C3.38088 17.9543 7.10339 21.6711 11.6822 21.6711C16.261 21.6711 19.9835 17.9543 19.9835 13.3825C19.9835 8.81071 16.261 5.09391 11.6822 5.09391Z" fill="#21B8F3"/>
<path d="M11.6876 22.6729C6.55742 22.6729 2.375 18.5045 2.375 13.3745C2.375 8.24457 6.55234 4.07617 11.6876 4.07617C16.8229 4.07617 21.0002 8.24457 21.0002 13.3745C21.0002 18.5045 16.8254 22.6729 11.6876 22.6729ZM11.6876 4.37047C6.71242 4.37047 2.66467 8.41202 2.66467 13.3796C2.66467 18.3472 6.71242 22.3887 11.6876 22.3887C16.6628 22.3887 20.7106 18.3472 20.7106 13.3796C20.7106 8.41202 16.6628 4.37047 11.6876 4.37047Z" fill="#21B8F3"/>
<path d="M16.5116 16.6324H15.7366C15.3707 16.6324 15.0709 16.3356 15.0709 15.9702V12.7684C15.0709 12.4589 14.8193 12.2077 14.5093 12.2077H10.6954C10.6954 12.2077 10.5912 12.1951 10.5277 12.2509C10.487 12.2864 10.4692 12.3422 10.4692 12.4234C10.4692 12.5046 10.4895 12.5629 10.5302 12.601C10.5912 12.6568 10.6877 12.6517 10.6877 12.6517H13.3354C14.0266 12.6517 14.5881 13.2124 14.5881 13.9025V15.44C14.5881 16.0971 14.052 16.6324 13.3939 16.6324H7.38956C6.73146 16.6324 6.19531 16.0971 6.19531 15.44V10.7185L6.22072 10.7439C6.29695 10.4014 6.60441 10.1451 6.96776 10.1451H7.57505C7.99685 10.1451 8.34243 10.4876 8.34243 10.9113V14.3998C8.34243 14.6763 8.56857 14.9021 8.84554 14.9021H12.4359C12.4664 14.9021 12.6265 14.8894 12.6265 14.6941C12.6265 14.6306 12.6112 14.5875 12.5807 14.5621C12.5325 14.5216 12.4512 14.5342 12.4512 14.5342H10.0906C9.24955 14.5342 8.56603 13.8518 8.56603 13.012V12.1342C8.56603 11.0356 9.46045 10.1426 10.5607 10.1426H15.7036C16.5142 10.1426 17.1748 10.8022 17.1748 11.6115V15.9728C17.1748 16.3381 16.8775 16.6349 16.5116 16.6349V16.6324ZM14.5093 12.0555C14.9032 12.0555 15.2208 12.3752 15.2208 12.7659V15.9677C15.2208 16.2518 15.452 16.4802 15.7366 16.4802H16.5116C16.7962 16.4802 17.0249 16.2493 17.0249 15.9677V11.6065C17.0249 10.8783 16.4328 10.2872 15.7036 10.2872H10.5607C9.5443 10.2872 8.71595 11.1143 8.71595 12.1291V13.0069C8.71595 13.763 9.3334 14.3795 10.0906 14.3795H12.4359C12.4359 14.3795 12.5731 14.3541 12.6748 14.4404C12.7408 14.4962 12.7739 14.5774 12.7739 14.6865C12.7739 14.9782 12.5299 15.0442 12.4334 15.0442H8.84299C8.48218 15.0442 8.18997 14.7524 8.18997 14.3922V10.9037C8.18997 10.5637 7.913 10.2872 7.57251 10.2872H6.96522C6.62474 10.2872 6.34777 10.5637 6.34777 10.9037V11.0889L6.34269 11.0813V15.4298C6.34269 16.0057 6.81023 16.4726 7.38702 16.4726H13.3913C13.9681 16.4726 14.4356 16.0057 14.4356 15.4298V13.8924C14.4356 13.286 13.9402 12.7913 13.3329 12.7913H10.6928C10.6928 12.7913 10.5404 12.8065 10.4286 12.705C10.3549 12.6391 10.3168 12.5426 10.3168 12.4158C10.3168 12.2889 10.3549 12.1951 10.4286 12.1291C10.5429 12.0302 10.6954 12.053 10.703 12.053H14.5068L14.5093 12.0555Z" fill="white"/>
<path d="M4.21659 27.4181H3.71094V25.1348H4.21659V27.4181Z" fill="#21B8F3"/>
<path d="M6.07316 26.6613H6.07824V25.1289H6.54832V27.4123H6.04267L5.09235 25.8799H5.08727V27.4123H4.61719V25.1289H5.11522L6.07062 26.6613H6.07316Z" fill="#21B8F3"/>
<path d="M8.88501 26.2579C8.88501 26.9784 8.51912 27.4123 7.91691 27.4123H6.98438V25.1289H7.9042C8.49879 25.1289 8.88501 25.5374 8.88501 26.2579ZM8.41494 26.3061C8.41494 25.7606 8.19133 25.5551 7.79494 25.5551H7.45699V26.9962H7.87117C8.16592 26.9962 8.40731 26.7983 8.40731 26.3061H8.41239H8.41494Z" fill="#21B8F3"/>
<path d="M13.8019 25.8621C13.8019 26.2757 13.591 26.5953 13.1692 26.5953H12.7372V27.4123H12.3281V25.1289H13.1641C13.5961 25.1289 13.8019 25.4537 13.8019 25.8621ZM13.4106 25.8621C13.4106 25.6287 13.3013 25.5196 13.0625 25.5196H12.7372V26.2046H13.0625C13.2962 26.2046 13.4106 26.1031 13.4106 25.8621Z" fill="#21B8F3"/>
<path d="M16.431 26.2819C16.431 26.9491 16.0041 27.4717 15.3053 27.4717C14.6066 27.4717 14.1797 26.9491 14.1797 26.2819C14.1797 25.6146 14.6015 25.0742 15.3053 25.0742C16.0092 25.0742 16.431 25.5918 16.431 26.2819ZM15.3079 27.0455C15.7348 27.0455 15.9279 26.6979 15.9279 26.2819C15.9279 25.8429 15.7297 25.4954 15.3028 25.4954C14.8759 25.4954 14.6828 25.8379 14.6828 26.2819C14.6828 26.7258 14.8861 27.0455 15.3028 27.0455H15.3079Z" fill="#21B8F3"/>
<path d="M17.2957 26.9911H18.1571V27.4123H16.7266V25.1289H17.2983V26.9911H17.2957Z" fill="#21B8F3"/>
<path d="M18.7829 26.0296L19.2098 25.1289H19.6621L18.9836 26.5344V27.4123H18.5796V26.5243L17.9062 25.1314H18.3636L18.7905 26.0321H18.7854L18.7829 26.0296Z" fill="#21B8F3"/>
<path d="M10.6457 27.5375C9.94691 27.5375 9.38281 26.9717 9.38281 26.2765C9.38281 25.5814 9.94945 25.0156 10.6457 25.0156C11.3419 25.0156 11.9085 25.5814 11.9085 26.2765C11.9085 26.9717 11.3419 27.5375 10.6457 27.5375ZM10.6457 25.1425C10.0206 25.1425 9.51494 25.6474 9.51494 26.2715C9.51494 26.8956 10.0206 27.4005 10.6457 27.4005C11.2707 27.4005 11.7764 26.8956 11.7764 26.2715C11.7764 25.6474 11.2707 25.1425 10.6457 25.1425Z" fill="#EC1C24"/>
<path d="M10.65 27.2559C10.1087 27.2559 9.66406 26.817 9.66406 26.2715C9.66406 25.726 10.1036 25.2871 10.65 25.2871C11.1963 25.2871 11.6358 25.726 11.6358 26.2715C11.6358 26.817 11.1963 27.2559 10.65 27.2559ZM10.65 25.4241C10.1799 25.4241 9.79619 25.8072 9.79619 26.2766C9.79619 26.7459 10.1799 27.129 10.65 27.129C11.12 27.129 11.5037 26.7434 11.5037 26.2766C11.5037 25.8097 11.1175 25.4241 10.65 25.4241Z" fill="#EC1C24"/>
<path d="M10.6472 26.9491C10.2737 26.9491 9.96875 26.6421 9.96875 26.2717C9.96875 25.9013 10.2762 25.5918 10.6472 25.5918C11.0182 25.5918 11.3282 25.8988 11.3282 26.2717C11.3282 26.6447 11.0207 26.9491 10.6472 26.9491ZM10.6472 25.7237C10.3474 25.7237 10.1009 25.9698 10.1009 26.2692C10.1009 26.5686 10.3474 26.8147 10.6472 26.8147C10.947 26.8147 11.1935 26.5686 11.1935 26.2692C11.1935 25.9698 10.947 25.7237 10.6472 25.7237Z" fill="#EC1C24"/>
<path d="M20.0177 32H3.3439C1.49663 32 0 30.4981 0 28.6612V3.33878C0 1.50194 1.50425 0 3.3439 0H20.0177C21.865 0 23.3616 1.50194 23.3616 3.33878V28.6536C23.3616 30.4981 21.8573 31.9924 20.0177 31.9924V31.9975V32ZM3.3439 0.431301C1.73802 0.431301 0.431963 1.73535 0.431963 3.33878V28.6536C0.431963 30.257 1.73802 31.5611 3.3439 31.5611H20.0177C21.6236 31.5611 22.9296 30.257 22.9296 28.6536V3.33878C22.9296 1.73535 21.6236 0.431301 20.0177 0.431301H3.3439Z" fill="#21B8F3"/>
</g>
<defs>
<clipPath id="clip0_546_6224">
<rect width="270" height="32" fill="white"/>
</clipPath>
</defs>
</svg>
